<mxfile host="app.diagrams.net" agent="Mozilla/5.0 (Windows NT 10.0; Win64; x64) AppleWebKit/537.36 (KHTML, like Gecko) Chrome/135.0.0.0 Safari/537.36" version="26.2.14">
  <diagram name="Page-1" id="hm832idEZFqsKaSgjwF4">
    <mxGraphModel dx="983" dy="1631" grid="0" gridSize="10" guides="1" tooltips="1" connect="1" arrows="1" fold="1" page="1" pageScale="1" pageWidth="850" pageHeight="1100" math="0" shadow="0">
      <root>
        <mxCell id="0" />
        <mxCell id="1" parent="0" />
        <mxCell id="1Zp0o188tNxIGdORWYWi-1" value="JENKINS DB Maint Pipeline" style="ellipse;whiteSpace=wrap;html=1;" vertex="1" parent="1">
          <mxGeometry x="329.55" y="-963" width="131.75" height="62" as="geometry" />
        </mxCell>
        <mxCell id="1Zp0o188tNxIGdORWYWi-2" value="" style="shape=image;verticalLabelPosition=bottom;labelBackgroundColor=default;verticalAlign=top;aspect=fixed;imageAspect=0;image=data:image/png,iVBORw0KGgoAAAANSUhEUgAAAL8AAADECAIAAABBbWdTAAAgAElEQVR4Ae2d919TSRfw/VPe93n20V0bELBS7L2t67p2112VllysWOiEdC69lySkICIIsgKCDUFBjQoqRSD0mhBCQuqv7zv3wiWkESCrQC6f+9HJ3H7me8+cmTlzZpl+pr/uIWnJm49+8XyvWzGriBRniEqAaC7gX7C5QrTFvhEgGvouLsjrOJGoK4kU9xvRUIIg/0XdgHRkJgk51v7h4WGpVDo6OqpQKJaZvrpWq1OOq3olI/dfvj1FzyRAtP96RxAWPyWzpZwA0Zb7RDqRqD5xvEdvPg5IZeMqtU6nM5WYQ+UoFIrh4WGZTDY2NjZFj06nU6k1/VJZVX1zUHbhxmusn3winElLQbvMlhvseEQt0ZxIlOU+kVsCYXpe6ftmcb90RKPROhQxhi+r0WiGhoakUqlcLp+ip3NguFz0JTCrwDWAvsY/ygGVDQaN2QQBoq30I2+8xryR+eD5p+Y+idRQpg6VHhgYkEgkMpkM0DMyNv74bYNfknDdFcYq/yizssMzMQms9CNvuMq8mVXw/FOTRCZ3KG7Ql+3v7x8aGhoZGVkmahaT88rdr7NW4frGZtuOANFW+UftCoqj5JU2dfY5GkC9vb2Dg4NSqXTZH/RMpyXRdMJ0w3dLgIZnAN07QVD3tU2jdSBLqKenB628ljmRlkjD+7tBY3gjF4jqDFFP0DJff2l1HIC6u7v7+/uHh4eXLY0+G8MS/c5pAkR1IlJO0TPr27ocpArr6urq6+sD9HxnWS/J2xEg6i9+ZGZ++Yhc4QgAofQMDQ3h9Nitr9zjRnRjV58jdCd2dnaihjNOj93oWe4bWfb+i9YBzOeOjg6cHrtxg1bHy30jBU9r1RrNkq+8Ojo6enp6BgcHcd1jN4Z+9iXnvxKpHWAQA6VnYGAAp8du9KwkMUreNzlCu10sFqNdPjg99qHHLYDhdCPlsegbTo99BLokG+dmX8otgLHpdqpbEPfxB4foMzTUPXSzEsEzbZUAgo5XOH9dMM9x6Onu7gZ2z4ab8baKyeZBRAe6YAB90+2ULRHCLRFCR6RnS4TQ/W7mhutxrgG4ErK1yiZANLcAxoab8e7BWSg6jksP+v6b76StuxrtGsBwIM0xJ23qFsBwuxLtHpSJcePQugeTglc4f/OdtPXXY9yuMHGGTCRAd7vCWn89ZvPdDK9wASY0LOGgNRf2/mjCM4y3+W7GxlvJ66/H4hi5QjQAzY24TbeS3YMyvcL5RuLCfuL0AOsP2zxDc9zvZm66nQowCnA4beR2hbnhRtymO2nuQVmeYTmYWCwlcHqm0DGUkWdYjkdw9uY7aRtuJqy/HrO07Wu3AADN5rsZHiFsW6DBBIXTY54eVEBe4QKvMJ5nGM8jlLPpdurGwKR1V2ET48DWZsuCOnH9NXhjYNLmO+keIRzPUK5nGM+sZYOBYjaB02ONHkOReYXzvcIFnuE8z9AcjxD2plvJG24mAJgWQ5PNLYC57iq8MTBx061kz9AcsIHXAW9k+I6zTeP02EqPGclG5mKZm+9mgLbbNXjdVXghzAtbfw1efy1mM2LBYA+5xeCBpzINzL7ZZuL0zIOemeTuEcLefDcd3TbciNtwIw7pGmC5XWGCll0A+Nd4C2ACZQb6V0x2Tcthrb8ei1wzHruFZwh3tsU/z+Nxev5FeuZQNp6hXPegTNBODuPN4fTvfApOz8Ki5zsX/zxvh9OD0zN3CeD0zF128/xwl8DpOD04PXOXAE7P3GW3BJTHPF8BpwenZ+4SwOmZu+zm+eEugdNxenB65i4BnJ65y24JKI95vgJOD07P3CWwLpj3z4cWB5nPNTGnYp4fHH46JgH3CN6jLw04PXP//jBROlrCM1R4ICO7rFOk0S39KAhisRjXPXb7SLzChNvpvD+exZb2vFNrHYker3C7CdHR9A36vl5hwi2RguPFKX810h73vHU4enCA5sy9V7hwa5TgeFGKbwvrUivF4eg5UZKyjQqcMr3ChThGNmKEysorTLCTlXPmaaJ/G9O/jXWxlepw9Pi3M/8WxRzKztoaJfAKAwzZKEGHPQygEybcRuEfzsm8+AH2bwfoOCo9bSzw/u3M05WJBzKydjB5WyJwPWTmE0Kh2RIJ9M3BzKxzVQmo3FB0HJge5NPxb2f6NEWfqkg6zMncFcPdShZ4heF1GcAI5WYrWbA7lnuYl3nmWaLfN+STQ+U2+a9D1lyTL498Q0z/NqZPY/T5mrjfH6YczMzeweR5huSiGDlapeYVLvQMBZXUTjjnYHbW8aKUP9/E+TZHI1bORG2FKR6H1z1TGAGGQCPiE3y+Ou7EP8mHczK303meoRPSXKo6adIWnnjNHUzeIXbWHyXJ52viLtfDQN8A69gMN45t90xxA6w/gw3YQ36tLO8v0X+9iznzNOFoXvreRM7WKIFnSK5nCPguQW/HTHNxFvgB6Ft4hgg9Q4TbqPx9SZzfHqSdfZHwtyjm8ueZocHEhddchugYpsE359fK8vvG8mmM/lsUc+Z5wm/56ftS2FsiBR5BgCSwhS4OOwm1Y9Bn9ribu5XC35+efawg9ezLhIsfYJ8m8Jp+rTNoGgwaLIHTY0iM1XQ7kygGm18r6+JH+MyzxKP30vcmcL3ChB5373kE504pJ6R9+0NUFKpUJlkBj+QRnOtx955XmHBPPOdoXvrZFwmXG2D/tol3wdreGBCzSlxspVZ0fXKsUdJZCcjCwaCCI4oZxE4GUczw/gL/+SbuxOPko/cy9qexd8I52+n8bRTBlkiB12RfAGI5CZAuSuTfMLSraaKnYML+QHovLaeRU8IESP/C5KWQRiIyHR3cbhuFv53G2wXnHEjP/i0//VR50oXaOJ+v0cSOiUedJy7TpcG8/Bl+1uwo8ZonRkmni8CqvplmElk9EulAAjB1MogdDN9m1uUG+G9RzPma+NOViSceJx8vSv01N+NwTuah7KwDGdn7U9l7Ezi7Y7m7YO5OOGdndM4OJg9sDIMNzWHydsI5u2K4u+O4e5PY+1PZBzOyD2VnHeZl/Hov/XhR6snS5DNPE/98Hff3+9hL9bBP0yQrHQyj7hm7vjio2Y8XpT755CjxmjF6LDYi7CpfxIxAqAKKqgNQhX76ft9Yvi3AnPL+Ck9sX+DLn5GtHr70CWyXGyZysGN8GqN9W8CJiIECel+mrjl5FyvtI7u+GtOvlXnuVfw2Frfsg0MsEjjloWG9FWpXKVtVV+YVG6gTEci+G+KzfUim3zfWuVfxe+I5rkE5Dhev+Vx1PNKTMVup4ccDberbzDpVkbg7jusVLnBEv+bdsdzfC1N9W1hEMeNHa5pFRaSYcfEj/NuDtJ3ROWgvvCPSAzxUyII9cVx0+AZnaOZPqB10xJ8sTZ4YDZz0bHFEeiZGAYGXE39vIuf000TfZlQPLVhT40epKGCY+zRGn3qStAvOAR0Qk9ygnekOSg/68uigoGeocBec80dJivcXmCi2Nqwz8zdq3hD+UWU/n/uC7sTL9fCxgrTtdD7aq246/OLQ9ExjKAQ4XB7mZJ17meD9Ndq3ieXXCrqVF3YDbT58GJ6LfjOgHe7TFH35M+hJP5iZvSVSYH00Bqdn2pCnZ6jQIzh3GxU40Z0sT/qzNg7tfzMYbV4atdsELmAsDxnIu/QRvlAbe+Jx8iF21rYogUcw8FExVTZGOTg9ZmTkFQaGPz1DhTuYvIOZ2b8Xpp55lnihLvbiR9jna/SEnxTwzlxc1RzytEhnkl8r6Ku8+AEQc7oi8VhB6v5U9nY6H4zWhZoRiBE02E+cHovCmhhrRLyltpIFO6Nz9qeyjwgyjhelnK5MPP867qIoxqcx2q8VwwhLGFYKPyqNPQxIAJ+Tr8BT4HxN3KmKxOPFKUeEGftS2DtYPGALI1/LHFzhcHos0oN9YWgChQkdxN5G4e+Cc/Ylsw9lZ/16L/33h6kny5POVSX89S728mfYpzHapyka2ExgTH5ysMnuPcjY6ASSmLjRZE10uQG+8Db27IuEk2VJvxem/ipMP5iVtS+ZvTM6B8wFmPQCmAMxhmLB6bGVHkOpTUl/UjNto/J3sni7Y7l7Ezj7U8Eo5hFBxrGCtBOPk08/TTz7IuFCXdzfophLn2Dvz2BsawKvybEqdMTK2r+gYxPYKBMDZJ/BWNjfopgLb+LOvkg4XZn4R0nKsYLUI8KMQ9lZ+1PZe5Ah2B1M3jYqH9UuXsij2mLNGL6p9TROz1zoMZQpIMlww1wmIgVbyfytUfxtVP42Gh8MnjN5O6MnRsv3xHP2JHD2p7D3pwHUJjZ21mFu5mF+Bti4mYc5E/kHs7L2p2XvSwFMACzikJF5FhiW384AfGyjgBttJSOgoPPUJh5j6tkMn9leaRvpkY0pm3sG3za2VbxvyH1Wm1bygnHvcZTgUTi3KErwiJb7T3LxM3bZq4JX719+bBQ1t3cPSbU6nX4h/U2NktpLdpauMw0mQ7CwNHBvnXLW2RIx3WUHFP/UNrV38hTEVWgKC7O3s/Rs9s23RE+/VP6qviW1+NklmLs2gL4aoq0iUVcSKatI1DVEyip/ykq/KFeIvi4AbK4QfZV/1GoiZQ2Rsho5bDVEXQPRtt+OuZtVcO9ZbWNH77j6B0+V/3702LeEFvLVDOmRjipefxVTBY9+jUj+2Zf8k3fEcp9IZxJ1zqt2ECCaE5H6k3fE/7kc7hJAJ8bz81/UdQ1KfohawumZbx1tyvG6YK7w1aeHNaLrafc9b8I/+USs9ouaMy7WV6Ba7R/1k3eEE5FympaRVPxU9K1jcGR0XKX+PvUbTo/d6AErTYXmeASzN9yIc4Voy30jf/El/0vQmCJFgGi/+JLXEClnGFm8p7Uf27oHpKP/tm81To8d6PEKF4C1yW6nrL8Gu0I/bD1yAkQD9RqJusKXvP1O3N2c4ke19R39Q/8eQzg986Vn8510sDoi4GahLIeIMERZ5UfeGgj7J9/jVLxu6x34N+oynJ650+MRwtkYmOS2gFdBJEC0NcQor5vwpXiB8Fnd8KjCvgzh9MyFHo8QzsQCmgtG31jRfChDWwNhn6R7D2tEowqlvRjC6Zk1Pe53MxfjKr4EiOpEom66ER2YXdDaY5+KDKdnFvR4huVsuJnwA+1iKwrGll0EiEqAqGtJ1N3BCeXvPyvn3bDH6bGJHq8IgUdwti0ltCiOIUC05T6RQZzCfunIfLoZcXpmpsczLGdjYOKiwGJWD7nCN/JoRMrbJrFcOT43SwinZwZ6PEM4665Gz6pUFtHBK/3Im66zeE9rB6WyOQA0Rc88nVpMO+wXe45nGM89aFEayLPCF3QOQbRIYUl73+BsAZpGDw4QRjyorW4lg0XgF0ObfJ4P6QJRXSDa1fT8+rauWQE0Rc+h7Cz7OklhJbHoEhOGjmOgg5KHAvR3TM6br622AzRFz+XP8InS5O00/qw8wBcdGTM+sGcYb2NgkivwsFkoIw/f50lcIKozRP2Dlvnmq60BQKboQQNcXhTBR/iZ2ygOypBXOB+psBwOHUwDOZGoJ2iZ9e3dtrTkDemZmOPn9411URRzNC8dnfbmOMaQV7hg063k7/OhL9i7ECDqav+oIxEpAza0wozowSbKgGA56JTbHQwe4uU5LRrcjPp/MR6w8VbSgi3U7/xgK/3IJ6npQyOj1m0gS/SgGIGpMyAeVlX8YV7mLpi7nY5OdFqC0eM9QjjfuYQW+O1W+pF94/lDUmsAWadnUhUhU2S8v8Lna+KP3k87kJ69C87ZTuODQJPojBbEs30x6hv0mT2C2d/NCXCBQ2P4eCt8I++wCyQyuSUNZBs9WBAMZKKxT2P0hbrYU+VJR++B2XR7EzkTtRsS89twbsNC5gmddLElQugRnL0Yx8wNi/nfS68hUeDCSsW4yixAs6RnAqOJKIJgJu9n+EJd7OnKxN8LU48IMg5mZe2J5+xg8raS+WAmLxr522AW1Y/iaWqCDjobH4lvD6aVhWdtuL6A3AL/PQ7mdmUCRPUIhIvefFRrtKYAzY2eyRoNwITMDJ/USZfr4b/exp6vjj9VnnS8OOVoXvohdta+ZM6uGGAzbSULQBwFEAJ8IqACunoIVrTzYWviIoj+Q6M1gH9DJm63lSzYweDtjuHuS2Ef5mT+dj/tj5Lkk2VJO2iwG+IOPDfhLvmzUF/pP2iZb7+2/Rv0mJCE8ARmBzez0LA3l+qR2cG1ceer488+TzhRmnysIPVXYcZhbtbBjOw98dydLN42CrCiQKiXoNw5bGD9nnABmPgcDSY+g7n0bGQufSESuPl5wvnq+At1sWDFiQbY+wvs2wy4/72YseEW8CTHjR4rnwHiFUS7mvGgXyI1Amj+useQHtP0VMwKsLoFun0D6z/4NrN8m5D5501ojOZo76/R3l+iLzfAF0Uxf4ti/nwT9+ebuPM18edfxZ99kWC0na+J/7MGHPDXu1gQx/kz7P0FXAGJtcDyQcD1bUYWmkDWmkBvPRkdBtS8F+oYWyg0AglHZ+YudQJEdQ2gJ5W8NKq/DOlZyBGcJlaQsFMMPBCt8jCfhWsdKyrHaNdaIuVoVJqoWWyofqbo8WlCjRhT/bHEckDYntNPmWidZSQj/KcVCazyJ4fwig27EKfoOSLMuPgBW4VqiRFj+DrMS5+i96bALv4za2wronTAXQSItu0WXNXQgtVfU/R4BufuZOWcLEu6VA+DGE2TK/wusZCoft+Yxx4ycXNnbvSv8if7Jgg6ByU6JBbMFD0gXjPS3D2QkX2yNAnoodYFvjSEoUaxNX25gekZScMVz9zocYVoa4mUB1XvUfUzjR60u8UrTLiVzN+Xyj5WmHqhLta3BdVDC9mmthUdophx7CHDxR9vZ8291nYiUg5GJA8jwxfm6EHDMYUJt5AFu+Ccg1lZJ0uTL32C/dtY2GpIi7Q682mM3hREcyHOXXZz/mSX0okrfCK5T2r0er0ZerAOX9B7C8ITC7bT+GAF8pzMk2XJl+phdAFApO/E1o9+QdDWzjxWwHT2wxXPfD8eZxJlT1CcYlxljZ5pGIULt0SCVRq303l7Ezm/F6ZeeBvr18pEF5FcFCa2bzPL6260C2nuskP7h9b4R63wiUQ3l3lEAbOijVxIVOwWK3winYgUKwdb34XG9VnhE2nf/vSffCIfVotsogfDaGIlFGSgEayAHCrcm8A5VpB2oS4O7ftHYEJt7QWmltqZx4oYzj5zRMeFRF3uE+lEov4amRLOfZhd+jLnSXXao+fEBP62WzHLfewT6IkA0f7rHeEK0Y5HpZH5xRklz7Mev2TllV6Eue7XWf/1iXAmUa2zYrR3pR/5LCMzveQ5897jLYHwL75kowPm/JMA0Q6FJ8+anmkkoUOSIWBwyitcsDuWeyg763gRWJH67/dgRMmnaWI4AixNDUYMpgYupgYNwLiYfVEzd5d2pnsofbbfHwGiOUNU5yuMsyx2wav3vRIzrlIare5je29cQcW+sCRnMGQ265iELhBgYv31aP9EYaXos9mZnTKF8m1jWzj34eZAeF0AHT3FStm7QNTN11mc8hrsatLRsevp+av97RYDbyWRMi96ppGEGEnIsDYYQgdj2kxQxx3iZP32AAxon3maeL4m7q93MX+L4Ev1yAqjDRMhwH2bwdqiBounmCv+iQUMLO7ya0VHzUBMcR8wZAZugYRvhv96F3OyLNaKrM3uciZRN1xhHIpKK3tbb8nBBeu212i1bb2D1LzSnXfjkArOViXhAlHdrjIuxOQ8ETUqbAhL0NwzdDUt3z0QdiJZrM4IEG21f1Qwr3jIwDdZq9O9a+7YF5wwWwVmVjiuyC3sRo8hSVgFhy1tATwxwoEBvo3C3wnn7E3kHECWMP5VmHE0L/1YQdrx4pQTpUmnypNOVSSeeZZw5lnC2ZdgO/cy4VxV/LlX07eX8edegnFTcOTThNMViafKkRWWi1N+e5B2NC/9iBCss3wgPXtPAgeJA89ff3129DiTKBuvMUO4RR0DwxgiMybGxlWPaj+dpGc5I9EqLMkdy3dBvGeoeWUd/bO4y6hCmffy3YHwZEscECCaG0TPLKtRTQ/J2zkwfCU1b7V/FPYA80m4QNR/ix4jmNCfmB+PIVWeIblTGxZknsLfTudtpyMLaTN5O1k5hhu6wPZ2OvDr2EoGQZwndd7kpZDVWCach4CVluN2hWW7pJxJVLcAehivuF8yMiMxpge8qm8+Rkmf0dQFlctNGC6oNNQQplczm6MYVz18/WF/WJKl4L0brjK5lbXYkAJ6kd5h6V1Oob3oIXxneswiZZSJEYatVYjlGCUMDzC6iNHPzbdTbZ9TjDasArMK2vqGzJacLZkvPjZtvhFt3cxygmhk4T/DM81bsHS7UYWSV/lmy+0Ys1XYd6DHFaJ9V91jVKjf7eeGG/G2Kx4nEuUEI1v0rdOW6XCWilaj0bLLq5f7Rlq6LwGiHadl9AwZ+1tZuqDZfIlMHpxTtOEq0xRTnJ4ZYqPYDp/tRo8zibrxGjOz9JWRxYAWnlKl+vitA37w5K+YnBP0TCj5Xu7TNwNS87WbXKE8Q89c6We+kfxf74iar+1mmdDr9TUNzSGch2ejOWdY7Ktp9wurRSNy8wErP3f2/0bLMlU/OD32occjhG17AB5nEvVUNLdr2AwQEpk8UvDICWnDYxplDZGy8UZ0ad0nsxx8aOv9j3c4djCWIEC0SzBHozWzZIlUPnaOmb2SSEGb1gRkVHKlf9RZRtZncY/W5BStThdTULH5GvB0w67vCtFweuxDz6bZGD3rr9CDuUWmKChV6ghe8XIfMzWRC0Rdd51VVC0yPUuv15u1fv7jHf5M9MX0+JExxf7QRLN3+cWXDNo45ppmn1o7PW/HGPUA4fTYhR6B7UHjXCCq+0244l2Dabk+qHr3P3PooJ+7E4myOzRR1NJheiL8oPzn6T28BIi2JRCWjo4ZHaxSqwOzCqw0iH7xJe8PSTDteVKq1GeYxjEVcXrsQA+IiRFoq8nsTKJuuRtnGo1WqVLvuguWnrCygRa+oMSohazX60vfNvzPBww+YJsTkXIR5hiho9fr33z5tj0o3lIXDnr6f7zDC6remZ5LE5bgNZcdcDEypd2Ds2yfJ+pMou4OSzb9uD+1dv7fy2bMFwwIV7DqEeWvOH6fyZyVxq5+I6X1s29kELvAlIDkR8/XX2EYVUCGt3CFaKv8oi7FcE3P5ZS+Wj19JBXXPXaAafPddLcAplEZWPrpTKLujUgxLZv8F2//gwxeWjoR0EOiHKdnNrR3G53eMShZ4TttfPtn30j4QbnRYWqNlpz7eF3AzCNxh8OTTduDBa/er8HpMdIc8/8JTGabF62xRE9B1Ttb6DkYnlzd0GyERWNX//Lp3hE/+0bGF1YYHaZUqcP4JciSgFN1nFlYD4UnjymNZ5UXvxatmT78juseO+ieWUVzQmqupDGTGf/vWmauuVwg6qZrzKyyaiPFkPLo+c/T+wxxeuxQrvPXK7ZcYbb0bLkb19LVb6QYFCr13uB4I7PUVDEQINr+0MSSunqlakI33H9eRzAxZXB6Fgc9nqFc23uZXSEaOmxZ/rbeiB69Xv/o9YefpjedzNIDDCCIdjgiGUoS7g9LWkOkmFrBS5MejzAwWG3LB71YjpktPa4QbV0A/S7noekI17hKTbv3eJV/FOKKOrPvjpU5zkuTnkOsAk9k0fLFAseMz+kRykGWepzBDjXUIs4k6nF69rdeM6Pr0tGx2IeV24LiN11nrb9Cd0NC8jqTqE4kivVOGsPru0K0pUnPiwYxxK3cE5W3KZQ/Y8EsigPcg7PcrtjaXEfL2AWirr/KTCx+btrro9fr1RpNS3c/u6w6iFt0PbMASsm7EMs7TE7zugW7gNWvLDr7GQK0NOnR6/X9UnlyueiPuCLPcMGmUP5ij7U7B3rQnpvfaZlvm9pNhyQxe0il1ihVarliXCKTi5rF/Mo3AWn5u4JBT7GpoWOIzpLVPZho3n3rTSx/fyGp2D2M7w6MocVhI5uqw7nRg5jPtIC0/JZuWxfQ0+p0Epm89F3D1fT8jddZ1pXQktU9GEAqtbqho4/38tN1zpMD9PsbQ/meYYvPoJ4zPYi7J/12doG4fxid7o9JxkpCq9V1DUrSS1/tDIq3ooGWPj2ojJQqddfQSF1Ld2q5yD+j1C2Yty6YZ/qJL9icOdODtt5dA+h+CcKWbuPuHysA6fV62ZiypPbT5kDYZXrnL1Z/OQo9qJi0Ot3YuGp4VNHQOcB+UnuY+cDpDsf5LndjyEI3jOZDDwrQugC6eyDMrwBztm3/U6nVRa8/rJw+8OSg9GBS0+p0KrVmVKnqlsgK6xqvcSr2UvPWBfNcgnI8QxdivTZPelyRaJgEiLqGSNl5Jy7/RZ3tHuxqjYZiwZvMsXQPRo9pQq4Yb+uXPn7fEnbvxYWkEvcI4YZQ/obQCVvbM1yAdCCBTsgfYnrPnx5MYRAg6v98IlYRKX9Q0ymCR7EFT1KKnz16/aGtb1CpUpm1jeSK8e13YkG8SAPnnqXf5jKlxJYcuXJ8SCZv6Bx4UPOFUVBzMa3015jCg6yC/Yz7Oyh5eyh52yNzPcIEppvhPJv5mFAG10HuEi5wD5ndSIVRMZv+BIswEik/+0ai20/eES4QNZhd2NjVr9ZoTKX0sFpkNMCO02MqJfM5I2OKzv6R903tRXVNmZUiSkENlPPUn/3kcmbZhZSSE/FFR+CC/Yz8w4wHhxj5e6IAYTvIuRhAXuHCzWF8Kxt2JJIQ7CTfQy9ymPHgAOPBr3Dh73D+1jsJVpo/pnygtZUzibqWSFlDjHIiUkyVh9FZq/yijkalvfjUrNEaR1NXjKvWXWMaTQucbc1l9DAL1EPDPAJ2zdVotXLF+OCIXNw//LGt7+XnjlJRS2FtY/7rr5znnzjPPyWVv2cW1zKK31ALaigF1SH5VcH3q27fe2m6heZXUQqqqYU1jOI3rEe10SW16dCr6cQAAA9oSURBVJUi9CIP6xrLRN9efel4+qH571ieFU9hIw5QdNwC6HtDErwTc/1S8n6jpDubVD1GZ6FDWsdpmU1dfabSCuE8XDEPDw0nEsX9JnwW5pDSH5yDORuvMQ+EJS1E/x7TN//+ORqtVqlSK8ZVowqlbAxsI2OK4VEzG7p3VKFUjKuUKrVKrTHtGpaOyu9wi1b5m59RZQTBBDoQ7TQzu/RdQ+egpE8y8r5ZbN1THb0ImFZxhQEXPjWVWHFtvalnqo3eYU4kys7g+OSSF02dvYMj8sbOXm7lm2NRaTg9pnK2f45ao6E/qLCdHtRDo+j1B0Mjpr1vcPvtGFPUjHKciJRLCULT1awaOvqMvOJtrLkIEG3zNRbjfplhQ29cpc6rEsnGlEbC+vG+hUYPtDR+pjyusn19WtS3UK4wLhuqsMTSlFCMISci5SSLbepZ1jEo+dnEr9kW3eNMou4JTqgUfTYqCLlSZQg3uhenx0hK9vlZWC3aGzSzWyAKgSW/5iKk6YSBYjbhRKKcYrKbOo1Nn85ByS++ZEO/RBt1jzOJui808VW9saO0Wbnkv3j7g73izT7WYs/88K3jDCvbqNVjtvhdIZoleqrrm22ZkXMW5nb0GzsGdQxKTGuuEHahqWDjHz41nFCMBmYXPq01PdI0h/3DZ+SYPtMSyOkalPgl31tDtCnekTOJujU4QTxgHNdCrhxfi7BlCTsCspL5nZxiU4lVfGw2oocA0c4xskyPfFXftCt42vDqWiLlNIv94VuH2d5I7Ao6nS48p8hoPsb3nlOBPc1SSqjUmvDcx04WBiyNaHCGqJsD4ZcfG00lkFz0bA3o+zHjpkhAHKL3hCS8MHdiUvEzozgsBIjmfiPaaOqFXq+XyseglDyjW7hA1HBBiZWVQcG4rGL8bDTH6EScHtNCnEuO4GntlkB4xk4/dFiUANGY98u0Jv1+EtmYb4IQrd2MmHMiUbbfjk0sfm4KhFqjPRyebNrhtMIn8m2jmaX2RM3iI1Fpa4hTgSmdiBTPQLigWjRuOaThp/YerztxRp2iOD1zYcX0nNefW/aFJln32MKAcIGo52Bu16DE6Do6ne5b70BQTvHuoHgnEgiPssY/ahWIP0r9nZrOqXg9atKK1uv1opYOs4GS1/hHBaTcM6VNr9e/qm/2ThRuuQmv8o9ajWz/84n0jhd0WgifqFJrWA+euAYwjD4PS/TcYReu8I1cgzy/2X+dSOZVLCYiw8RU7DAjeS2Zn/2SkT/hHKNP01AEhmkXiOoZCAuf15kOO+j1eolMXvaugfngydX0fP+k3Nvsh6n/VL1vFps2ofV6/bhK7ZsgWGvBT2MNifr68zezQu4elBTWfKA9eHIlPR9KzQsT/HPv5TvDXh/DswZH5KfhHNMiN0uPZHQsp7LWO57vn5RrdrsUxzsYluSC1MWGYrGUXvr0aDRaau7jjebCs5kKBQRoJlEvwNyv4h7DQsLSWq1WNqboHpKI+4cGpCNKyxVK/vM6o1a04e3W+FNOsdhjynHsyoYJnU43qlB2D0m7BiUSmdw0NAd2sEKlTntcteEa0xbdo9Fqh0bk7b2D4v4hs1trz0BdYztZ+M+GayxbvrelT49er39c+9Hjpk2mDzJeQXWBaJHCf/qGjRtfWJnNmBA1t7sHwlZm6oCguAEM+v2yGS814wEjcsXZaLYtVvOMl9Lr9aiPtne8AB26MSTeNO0Q9PQMSfeEJlpyFTUVigtEdQmgxxU9sxQt0HoxtHT1HY5Km7Ghh9aSvIrX1q9my97U4udGes5szWXLpdBj2GWvCCCgh7FzkqGspkXctf3Si/HIa2n33WwOpoHKaJUfObaw0lLlYkkIH1o6jlLSrWgdwwJwIlE2XWNxnxiH5bZ0cUv5901qyXnSU/a23g3U9dbomRbt29KTLY38uq+tK2e/ns0KX7IfspDiqEJpOj0Zk4xOp1NrNEMjo/dfvtt2N9aSpWzIDZZ2IlHW+Efdzi5oaO8eGzfvpojdSKlS9UtGjLp/VGp1ELtw1fQI8Kv8yVF5pVILkVaxC5pNqNQaivCfjVcYRrUh9sxowsUwXrPZCy2lzJ0hCTYOWRiKaaUf+RdfMiX3n9df2joGhqWjY+NqtVqjVWs0Kg2YEzgolTV29hW9/vgnzP3Fl2xj14DhLQhIULA9QfGJJVXvWzq6ByXS0TGlSq3WaNQa7bhaLRtT9g5LG8Q9WeXVB0MSSYnCtt5B5ADtiFzxuK7e/ZaxVUeAaLvuxBa8EklHFWqNVqO1aVNrtKNjygrRl93BM3jVgWCuJIOVBpYSKGbfRfC0Dl2/yLDkbEz/7EfefI3lHc+n3S9jV7y+X/U+r+q98PnbtLLqu9yi3ynpTiSqaa+gjRdHDyNAtJV+5B23Y0hJubT7ZdyKN/er3ue/EnGf1sIFldfS8w+GJv7iByKnukC0v2Bu5pM3eS/fRxdU7AtNNKsknIiUPUHxtPyKvCrRg2qbtryq93EPnx2OSDF7QcPXWetP2Rea6BBWMwrTkGwMcVM3M9pgKBdLaRcI8LHSP8qJRFl3hb7hKpghvwrJWWvbOJqlKxvlr/GPQh1CNlxlbrjKdEGoQsI3T1ghaLeCM0RdF0BfS7QWgwEJ9xy1/goDvdSM/64LoDuRKLaoz5+8IwTP6hyIHr1en/7oxS8WgrcbFeGP/WkYwMUw/WOfCrs7AaJ53IQlowrHomdIOrrtdsyMahkTE54wK4GffcmpJS+mrWpr1lZYeplZpa+M3NTNCgjPtCKBXXfj+pC1pxxL9+j1+u4h6T4bghBakZ2D7/qfTyS7vAYd2nM4elQaTX7Np5XI8LiDczDb10d6FshnmdmdAxM+CA5HD6it+4eIScJ5NrBnK/olcDzaWfCwtkGpmpg464j0qNSakrf1m29EzzjTbwkUub1eAczCJlFuZRcYrqbgiPTo9fqhkdGo3MeuNkT2t5f0F/t1nEjUQ+HJr79Oc4l0UHr0ev2ntq5TzGxbesYWe8HP//mdSWCybFzRs9Hpk90clx6VWpP38p3nLfOrws5f4kvsCt4JYHDNqAfHcenR6/UjcgVZUOJmshjAEiv4+bwOYu5QD0akVNU3m3oZODQ9aPvrHMydj3yX9rkuENXtKpNf+QZbfMNQ/Tg6PTqd7l1ju+u12QUFX9rEGL7dSr+ooOwCs9M/HHGkwvDTwdLFNaLliPODoeAcPI2Ozv5ByzAN+ILJzdF1DyYIdumrtRDVRo9SRwDLiUg5GJZkabV5VG44PRg/eub9MgLi4OIIcFh5RzQ848HIFFGzeEo65lI4PVNSkY0pmPnl664wHLwTaC2R8hs1o66xzeyUyCl56fU4PYbS0A+PyCMEJQ4LEOKLSDkYkfxE9MWSpWwoL5weQ2nodTpd95A0UviPm0NqoLVEyq+U9NK3DTbOQxKLxT09PQMDA8umSdGBf+h0un6pjHW/fNM1luMY0ajWOU7PfPGpyWzXjlkicHrMikU/qlCyy6vXX2c5wjg82jg/Rc8StZiP6GBeRojdg+seS8LRF1WLnMxFfLLSYFmMu37xI1+AuaYBXy3KZXJHR0cHTs+kMMz9X/e1dTUyIdf6tNzFCA0IeEWirvAjh3IKrXQJmpPKRB5OjxXhTOzqk4xcgLnrrzKXkhmEBljxvB17/3ndzCKwcERHR0dvb+/g4CBuNVuQEJItG1NmllbtCU10sjr7blFoINRLcP1VxuV4Qd10by9rIjC3r7OzE6fHnGBM8sZV6mcfm/xT8txvwqaxuhYLN+i6u0fIaQlFz7oGJdajsZrIwDgDpWdoaAjXPcaiMf2t1ep6hqScitcn6VlOSJTdRQEN+pAEiLraL2rzjeggTlHN52829uiYCsEwp6urq6+vD6fHUCYzpMeU45/FPdEFT7YEwjOuQLBw8FpNpHjH8R++qe+TSE1XhJnhnc3tBj2r3d39/f3Dw8O47jEnIct5wyOjb762heUUgTUDF/DceAJEW+4beSAkIafyTXvfkJVAi5bf1fwetVqNNtclEglOj3kZWcnV6nSyMcWntu6A5FwQhtdvKs7yD1c5BIi22j/qJ5/IPUHxvIrXfRJrATqtvKOVXXK5vLe3d2BgQCqV4vRYEdQMuzRabVvvYCj3oUsA/b/eEXOIMWVf2tYSKct9Ig+EJuY+rTWaBTHDm9i8W6fT9fb2okbPyMgITo/NkrNwoFqjbe8bSnv0/FBk6rprrPVXGM4kqjNE/VdDdqCDDC6IXxuI6wPR3W/FXE27X93QbLpUlIUHn0u2Wq3GjB6ZTIbTMxchmj1nTDleVd8Uznt0hJqxMyTB80Y02sXiRKK42AkmdHEMJxII/bTxKsMzEN4TluSTIORXvm7tGTD7VPbN7OvrQ3t6JBLJ6OjoMplMZt8b4Ff7/+GCquub4YInfsl5v9Eyt9+J3XiV6USiouvl2thphGqXCf6QtXbXEinrr9C334rZG5p4HuaG5BQLn9Y2tHV9N4HLZDJM8YyMjMjl8mVdXV1KpfGyeN/tgZbwjbRanWxsvLl7oLSuPrnkRTC/xDf53hlW9nFqxt6geI8b0U4kyip/sqUNiTlH23E75nB40h+0jEsJgluch3BBRcHLd68bWrqHpLa4cdlRvEqlsqurC1M8MplMoVAs6+np6ezsVCgUdrwTfikjCag1WqVK1Tss/SzuFjWLy981FFSL2JVvUkpfxRQ9iy6spD6ooORXUB5URBdWwg+fJj2uynzymves7p/aTzUNLR++dXQODI8qlFbWHjC6o31/KpXKzs5OtKE+PDyMKh6lUrmsv78fBWhkZMS+t8SvNqMEtMhi0GPjKpliHN3GxlWKcZVGY7zG+4yX+vcOkEqlKDr9/f1DQ0NSqXR0dFShUIyPjy8bHBzEAOru7h4fN78Ax7/3cPiVF6wExsfHu7u7MXQGBwclEolMJhsbG1MqlWq1eplEIsEA6urqEovFnZ2dIyMjarV6nmNpC1Yo+INZkQAIgK9Wy2Syzs5OsVjc1dXV09PT39+PoSOXy5VKpUql0mg0oM0lkUiGhob6+/t7e3tR1sRicVtbW2tra0tLS3NzcxPy19jY+HXy7wv+t8glMFmSXxsbG9HybW5ubmlpaW1tbWtrQ5VId3c32q08NDSEah25XK5QKFB0dDrdMrlcLpPJpFLp8PDwwMAA2qBHGero6BCLxe3t7ShJ35C/Fst/zfjfgpSA5RJrQcsUJaa9vV0sFnd0dHR2dqLc9PX1DQwMDA8PS6VSmUyGojM+DtZcQFfh/H9BnlxaitTgEwAAAABJRU5ErkJggg==;" vertex="1" parent="1">
          <mxGeometry x="274" y="-556" width="48.73" height="50" as="geometry" />
        </mxCell>
        <mxCell id="1Zp0o188tNxIGdORWYWi-3" value="" style="shape=image;verticalLabelPosition=bottom;labelBackgroundColor=default;verticalAlign=top;aspect=fixed;imageAspect=0;image=data:image/png,iVBORw0KGgoAAAANSUhEUgAAAQcAAAC7CAIAAADntsxKAAAgAElEQVR4Aey96XMcR5YnOH/X/gNrth9mdz7MmPV+2G2bsZ7urm51dZ2qUpeklqokShR18RAP8AZxJq4EEonEfQNEAsgzrrzviPA4/Y7eme6eNY8EQPAAi6RIiqJAe+YWjHR4+PV777n78/f+AwjUU3rJPcBVwAouaxikaLOawyoWL9pB0cCSgSUnKAKuAK4CXgC8CFgZsApgVUBrDq85rGyRok2LLi9ZTNNh3sR5J9BAoDxMp6P24j1g/UuR/U/33//93//XCf/+w0ueEKcYC9TujHeCuhc0bS7muoFVkyhtmG3DrBMU7aBg86LNyzav2Lxm87rNmw5vOKwKkGr4ku5JJpIdXgRUdZhmCwi9+CQ4HeLHe8AKCvR/uCeA4n+douIVzLZQVpi4gHjbREWblQ0kAyJbVHWo5nANUBlQBVAV0AIgJUDKgFQsQUWAZQurFlRNP+8L2GhIIOcUFS97mLgGWIn/T/+JwDhFxcvu7gNZobmkDHlNdyVAVBPlAZX8oAC55jApJNlhis1CnNCiQ0sOLQKsACx5TIOs5BIN8jKgsh+U3KDwOLc7ffO9eoCrHSjrWP2Xf6WPA+MUFa8CFYrFFRiU1MaaWl8pdtYLreWSvloz1ir6SllfrhmrVUP8t2qs1/SNqrFZM7ar+nbV2K6Z23WwY7oZGBR9XrSIwIkrliJaqJgdr+3RSuP4y9PnZ+0BHSotT9JR4V//7V8fAcYpKp61E5+DM3HF4hLA6aHJc4ubN1eTd1eTt7fS99Z3b64kezbTt9b3bqzt3QjTW+u7t9d2b6/v3lnb7d3JjWxlIgvbvbvSpENll6seK9TArsU0wLRwdV4AB3JDAYF8SK+gCT+B9aEbVAAutn3ZQs1TVLyGOaRYPNdxNs9f+4elzSvbqds7mVv7yt2d3PVktiet3U7mryXzPcnctWTuRjJ7fSd3Yyd7cydze1ce2tjvi8S+jC1eBSRrM9mjWg3siRUIK5yi4jkY07OgmmkWK5lEq5ipf/u3fzsOjFNZ8SpAolg8o3urtwd/3TBifrDm8UWHz3l8DgXzOJj3+ExICT+Y99isy+ccMmuTBYusGXBzdffuzMo1P1BsLltMFttQQoMqAl4SwHggKyQQSKG4UF7ydHmWKfXjz2NQRcdyB0ltmOf/A52i4lUg4XiZAhWGt3hn8OctYxwGC5AnXBbz+CQOpjGPeWzcZeOUx71gkvE5yOOUzyI+57BlA62t7t2ZWbniB5LNpQNUHECiJIDxKCq6wDj+9dPnZ+oBKyhY4ryoYFLVD9qnqHimXvseDFi2eQr4i71D77TNERzMQjbt0QmPjWE+4ZMR079nkwEbD9Ag6rEI4VGPjNhkwqJzBl5e3bs5s3LZD3I2zx+iogx4OZQVR6iQQ0FxJC5edYvewvLdoOwFVTeoOEHZ+//qp6h41WMcogIu9Q39Q9uM4CDh05hLxj06itgoYiMuHURBBAUjQTBFgjEajEMecemYTeMGXljdvz6zculJqKgckxWnqPi+g+gEJS+odoHh/kv1FBXft0P/jBjhis0yNlweGPqFYYxTPofotIcmPDSK6Bjh45iN+CRC+ZTt9zMes9x+n0aAHwE4FqKiZ2blgh9kbJ4Ve1lUdYSgKAN+ioqXOXBWoB2R/S/aKSpeZuc+ASFccVjGgWuDg78xjEnKFhFOuH7U9cchGSdsgvEoZROIjmE25uMIpCM+HnHxuE1nHkJFcAwVwlaqEmKjGH5RBkEeBLnDBfcrbtGPf239+DCZTD5Op6h4xXNIoCLnwa3hwd+bRpzRFQTnXHfKcaM+jGIyGdKE40UwjdpuhLIYZdOUz3tswcTzq/tXZ1bPC1nxBFRUxGaUmKNHqMiHz6+4RW8jKgwqdclkMuDKKSpe8RwSqMj7cGd48J9MI8HoKoLzrhtznKjnTwIwomk9mcyFRuPe2tqnljUmSZddd9J2YwAmTLGuuNbVoJwDVCgOL1sHsqKrRGkhEqRQXJyi4gVH80hQdE2YT1Hxgv34uBR+8psQFa6/Mzz4B9NIcL5O6WIufyWbuwTsUd2I7O1dmJ7+YGzsvUTik/7+X6ysnE2nr9YaEeDNmWh5ba+72s46PGtzCRBhPGuzksVCbIhTiyMDkO4J9+l5xQsNqLDnDymUhKeoeKFOfHYtQqy287a73Xfv3VZrkvEVHixt3T87v/TBburr7Z0vFxbPDA7+5sKFv9reuvL++/9xcfHc6uqX9ca4g1cBWl3fvZVYuQyDnEAFkywiObxgMwEMWwCjDFgXGMXwtPsVt+XZW/0jz3mKilc8kw5kxf17vb+u10cgTFA2VyrfSGW+2kl+MTf/YTT63vDQbxMzn68ufzsa+cPs7KfpdA8AMy5ZA3Btfff27MoVdICKvEXzLtcOUSGAEaKiC4yCsBr8kU/HN6T+p6h4Lajwtgb73223xj03BtGk40ZCGqnXe/f3LyZ3Lrab4/t711vNsd3kxWZj0PVmXLz8MCpyNstbRHoYFaVDWdG1jDpFxcsZzVNUvJx+PJHJCQ0qpxtL9+7+Su9MEJLw/HGExjAZJ3SSkGmM4wTPuW6c0jUEZymds+wRH057ZBnA9fXdO6GsyDs8H2pQsivWFV0NqmSzEmBd3SkUFKey4iWJylNUvA5UWPb6nVs/b9QjlM4SOslYFKKI7Q4iPEFZHKFpz5ty3UnOFxGO+nDE9kdtNBvKiqejQpjuhNcttFP16UTG9PxQOUXFK0eFw/KYJPvu/brZEKhgPMbYBKYjmI4xHuc8wfkcodMQRRmbhXiE8XHCJz06H8qK3tnlqyiQHS7bTLbIcVlRtA9MyruKU/fi0StuzvPPsJc4WV9bUaeoeMXTKNSgbGdjsP9dw5gMgiXGpx13wAS3gX3X84cojTI27cOxkEYAuEvokIeHbZz4c6go2MIzyNEiu7sz+4qbc4qK1wbNt/lD4R4UYanRkQ867QnPn8Zk0scRREYZjxImFhiITvpwwoWjjE+5cICycUhHbJIAcGM9eW92uQcFyqGsUI+tK7qoUMVG++ldvJcK11NZ8YqZK1dsmmt1loci7+tGDDhTLoxSFvPRqIsilMcon4F0ykeTiMc4nyE8yvkE53GfLres5Znlq5Mzl2hQRLwASK5ppSyiWrS72j5EhXAPdXpD9WWO4ykqXmZvPkHoCQ1KQiR7/eav1WLEgXOQzRKe8EjURqMumXTxNObzlK1CPmvYoy6dpHzK8sd8vGbD5OpOb3zxGgwUj6s+L9pU87jYerJZQZDwgqMcu1xxeuvo5YzmKSpeTj8+AQ9dmc7F5VISqLf63q83E4Tdt+Cs4UUBmnLZjEsTDpkjbMP05lv2lI+WCFu2cczFCQetta2NteTA0sY9EhRRUEK8bFMNQNk6gEQXFccvV5yi4uWM5ikqXk4/PgUV4g4dTJ+7+I+RqXMzS+ejC59Nr362cP/c0s7X8dWzkfjHkclPhib/NDJzJr701ezqV7HlM7Glz+fWLs2tXY9MfTO3ctunis+LHisI9YmolvAgWLC5ZgvTna5dYC60DjxFxcsZzVNUvJx+PBkVwtWfjdXZ9d715NDaXu9G6nZS6l3ZvTw88/HFOz//8to7g1NnewY++NPXf31z+MO1vTs72b6N9J3t7EAyN7a9P5LTZn2qWkQ2Yd6mmqADVKg2l4+hogsM+cSavNT16Nv9lVNUvAZUaAAX63bKprJNs21/M1UcmVz+enDmzOTqxaXkPbm5tK8kppZvjS9cndu+m5QmqmC97ScBTNko62HZp6ruZQDK+0woUSEqhMPZY6jIgiAbXjw6RcVLGNBTVLyETnwa4wz9zHZgoeFINXs/U5pbTN6NLHw1MHN2PnmraK6ZLGcQxaIVHWtJdS4ye3Vg+uL0+u1UMVEztoCfIUHRo4rhZx2mYV4HuKtBqQeoEA5v8iEkMqeoeNpAPI+ofBgVXc++P6n0YE3cdR7+zOmzd3GIiparZUrb8zujAzMX70S/mN/rLYBVwLNAXIxUAam0YKHmKYDXak5+ZW+yb/Li5NLNhc17O5mJtrXrEkUcU9CCz6uGrwCmWVwNqbvUPkQFzwGhUz1bK46a8Iz5f0rZHkYFKwi7mp8MmbzQJXFC/FirLVbokk0LD0jo9F03rwpgIvSEHRQs4ZdJM7liCFJDUoxA1ZlacVOp2vrs9tjVoa/vjl26L8+WrWSHZkGgmEw2mGKyYhOqbVg0Wc3iDYe3HN5oQ3UjPdU3/u29sa9nN/rTxcWmlTWw4vCKG1St8LKRyRRTYEAcVphCYkg2Vx1ecHixS2EAANEEQEMnnN0GHhyHHzTc7P73sbY/3hs/qTePoCK8Jt+9APm2pyarGPyATFbpUhhUpQJoGZCShQ/IQSUHlVxBRZcUXVZyeAkQzUCySTWXVlxWBbzUpkqTyG2mtrlWp3LJzaTqm1M7QxcGv/j6xicb2Vngl13W1GHBIAWbVwEt66QAwk8DKipwlAJWsVi17uTWsrFbY99eGToXXe3L1DeblgyCisPrJi+3idKmisEKJi+awqFgyaVVn1YhrfhMkMcrLivbwuO/BsSHhNm5yQ/I4KUumQehZH5CQ38wyifP8IdQ4fBmGFJEpG743E0dEWfkIXo8Q/cPj7I9VE5wUNpR+U/OdvjRo1+PHl7R56ygCUKygmaXbBF7pemypkPrDq17RJCPQ0J1H9Usv2j6mh/UEG/YrNRwczUr0/SlDtWaSG4RtcUKTaJJxu749uAfr/7Tud5PtgvLTU8FtGaRescv6X4JkBogtZajtRyt2yeinx/qpUYLak1cMHil5snL6env+s/98/l3hxK3DFhtIa2BNYOXO6zURJpBKg5vA1JrOFIHSMDWPFTxSc0nNY9UHVJxSNVhNSeo2yFZQb1LIHywg4YdPDq4D2r12gflTZhyD6ECBuB5CT3/nzzxEy+rnCcW/vjL7ue8ADxChzlNGJiQm4ib+IiYiZkOeRsGbRR0XN4ErOoFLRToftBp+ZpJK27QqllydG3o3I0/XYucT1W3naADggYKgMM6ANYd1sEBwIGFA4uI9KQON2BgAtrs4DJgDT8wbdLK1pOR2d6zVz7elpdbqGRxAWlRPm3UXbXhaB5ve6SOaJPwNmTNLqQRb5PAwIEOgw4MOn7Q8R4i3Q/Mw1afVJk/8/5ljd0zlvOM2f5so55SzkOooIFLA5cFLjmWdt90fzrK8MRsx/Mc/dVRaUdvHs/2sj73vOWQsKVPTHHgYO7Qx4hwO5zWAPIDsngL0JbF2zWgRabvnbv8SWS2v9iRAO44TPcDC3ILcuASkzCbctG9HjYdqEMCjvrkqJe6TaCBiwLH51ZIAOB2wy4B1rZQJ99IXbj51bc3zy3en2mCshsAwDoW7fjcQtwiHBwR5YBxi3KbBEdkhc/HU7vb/Jc1KCycQkeldf971Lqj9h5l6D4cZThq/tPLOcr2eDndTxxleKScZ/zcQ6jgAWYBfmLKw/dH6Z/NdlKG7vtnL6eb86TS/mw5T/nc0d8ePbCw+YcpYsEB0QAdEeKez20YOA63LGpg7iFuq7X8+MzwxevfROdGpFK6bpYNt+kSgJhtI9N0W5RDyiGhPmE+ZT7Ejo9sRFzG0RN7mwWIBMhjjsccFPg+93zqwsBD3G+7zVK7uJ3dGhjvu9Hfs7g53wINn7s2BrrT8ojlEeBTh3CPBZAFPgsgYS5h7tF/WeDzAPKDFPKwmUedcEJ9xKx4hF7FoBwv8wf83COo4Dx4PgqeM/9J5b+sck4q/5H3QfDIC37w77Hm0IAfEQkY4tjnvh9An0Mb2xk1M5mITsyML67PZ+R022zYHrA94GObMoEERFxMPB5QHjBCMMaIUEIZZYwyTjlnj9bjoAKMBtSjvgVtB7k+g5BBl3iQIZ8hxLENnVq7vpNKRqKRe0N9i+tLLbPlEx8zjDnGnBBOmPgoYQGhHDOOwzqQbhq2iRy2jJ1cjWeaDC9r7J6xnGfMdkLHPmjRU8p5CBUBF7PlJ0QsCB6hsPmcBywkMa0CQTgkFHCPEZdhC/lSuTA5F++PDC2sLctFtdFuesiDGCIExexHEEOfM8ooIdDvTnXGQiwwTgmjmDLKn9LVmBBIMKIEUQIphYRASihn3blMAg4xsVy3Uq/t7CanZxODkchkfLreaQHXRpxiziDFHoKQIPGlB5PhcLZ0W9hNf1KD/gyNfQgVD7jiEXt8qx8ezPfu3D/knkwwWEFHWpTQRUKdw/Dc3XwuMhntjQzPLC9mZKkNTMt1ERbTnFKKIcYeIhBTTDhlHFOKScACDCnyCSOcs4ASTnFXVBzy60f6mQUYM0IZE7ydEyZKIoxjwmjI/MVLIXE4odx2/FK5trmdjMZneocGl7c2m6aBBCqY5Xm260GEqRBL4lvBER02OXjk06f/pcHDqGCB6LufCNEgQAdSgEPOoNAyBF9gAaMBJtyHQiPxKfep0NA7jrsvq7OrayPTsdHp2MrWVrndchHCnPsII0yY4McBxTRUZFggZiHnWDwELCCI4i7XDmdn90NP6WpGA8Ye0eeEYiQQK9ID7k+peIkxcz1UrjVmlhanF+enF+Y3d5P1Ttv2/W7daKglcSJUKqFPISrg0QVGFwZhrZiAayhougziJzITHmvmQ6h4ikB/C39iISTCmcEQY5BRJBQbShljHCLqQeITARbDcdOKklhZGYvPjM3MrOxsNwQz5h4hwHGRyM4xERNP9NJxlazLmI/ePIPsfpZ+fiKWWCh7PEJyJXVmZSESm5iaje9mUsAGQmxRwhjllDISLjqE+GIEIk5ZqCyGanMI40NUcEaepuA9Sz1/vHkeQcVjqHniCLw1LxkTDFmo+6H6Ey6HMcY+8j0ECaeW7+ZUeXFzLRKLRqaiW6ndmtF2sI848Qlyse8hHwsthjKxbn6s9w7LfxH5K2br46sB8YYJUfEoUc4wJz5FNvFMaKXU7PR8PDoTXdla2c3sNjt1whClglj3gUDo2Rh5VHACQggmBFOCGRPikod98iLVfivmxkOo4BxxDk9IUfj+KH2ebMHxzEcldB+O/3T8+Xtke+bPEeYzLrYmMfUQdTHzMPN94hhOpw2aGSW9nlyLRIeGJoZ2cknDM13metRFzPew4yALMY9xhKmLqNsthwfogERPPmdnPlLtg21isYl0SDh8wIQhwmCYoqMUcwiZ5xDboTZApuHpDrbkci46Oz441je/mshrqUanjIhDmOdBALGFqeNBgMUumYuwA5GNsEOod9CWJzThdQzKsX77wT73ECoItwm3KXeIOP05SrtvxE/HMjwh21GGR7MF3dIeLedYtpf1ubCcEz4XtuihatvYgMzGgQe55VDTwgZAnZZVk6uZ1Z3Fy7fP99y9vK/sWMj0uO1x22cWZOJAwIYdDwPKXcpdD+nhs0MC58F5WdiN9CB9ttYdVLubuVuaQ7h7SB4RI+KRwEHMQcw+TO3w2YbM8ZnlU2DCJgwsGFjAbzq04zJdraVHpvpuDlxOrEalyn4blAFsQm56xMCihqJPWHi8KLqI2ZhZTDTteF89OnaPd+axN0+aKicMyiuYA2FVv9/nHkIF5DrkHcR1/+G0+z5MRYaHsxndzIfv9aNsD8oJHpR5crZHyul+5eBzj9QHhfU8/FD3iw8+4T/z5wxYt2jb4QagTQM3dL+uNjKJjejl3q8v3fpKbaUcogMi8njcsEnL9KsubvIA8AAwDig3EdMdWPdYB3MTctEEXxiAHFH3vx0/MLq1Omz+g9ad0EuGL0p7nEyfGx4zPKYfpnr4LFKHtgAsI657rO3xti8eOjZruMJKRS/ruanl4fO3z0YSd6tA1r1KycyJX1nLYy2fdRDTETdQtxW07dLmg7odDvphn7/aOeA/6XPH5sAjU+XlT7mHUOHyWpec8KGbHr18/OFZswUHxT5ewsv93EF9nu1zNq+5QbsBCzWktlAp30xGFnsv3vuiL9aTLm94vKWTUgVkTVzyWBOQqiEMZmuEt5mgFuYNSGuQCfJYze0SrzlBzQ5q1sPkBOL9Sc0/6IQww7E+b7j8+chjdcgagGhVkO5AGYTGi2Wwr0PV4hVT2J9XGrY0utL73rmf35q82HCUDtJsVhV3njy17SiGr9m04vCaQ6uAlF1eO1afJ9f/TZsDxzvzKR3+9Go/hAo7KFpB8Snp4z85T/qTx7M98uaR/1pB8cXK6db28dIeefPIf7ufA0GxExTaQWG3uXZ75rtzdz+6Hbu4U16swWzNzzRxvmqnXF6BQb1upVpuxqUl4MttK2PaedPOW54CaRnzGuQVixQAUm1atHjZCsrgUSpZz9lLDi85vOLw6vNQxURKSd/RYZYENRRUDCy5rASDGqBqm+ZNphlUK6NUO1CaUBlevfnbL//u6/4/pqrLurjVVPJFaN2yxTSTiut+TlB6vN/sJ02PFxu7xwt/xnKeMdsj5T/y36dPuYdQ8bIu+H3vco67/ToM3iNunwm/YIepuKLZvZLWfTj2k3AJY3Xvjj3kQezAlZgprunIeiDvN1f656981fdx//zV3fJSy5NNogFxcads8aLDSh2Ua7hpiyguKzhM81jRIxrwc8DLuVgjvIx4GcC8CSVHeGc67ghZE/eQBBVepDdE/buOPESxz0gOK/q05DHNRFlA8oDJBsk3/VQbZ1okU/P36jDV4VKHy3WSqcD9/dbydLL/2zsf3R3/JqkmdD/vBkWD5FswZZK8H5Se4HxN3LgSl64O+1z0c+iWSg2b2fV1e3z4jty3va4L5aI+R5PkwYR54svDufRotjcQFbIR5PQgrQcZI8ia4lKyuHUpZgktGr7isLLDShZRfVbyeNHjBZ8XbKqaULFJyaFlA8q6lwPCUbHmBhrgsskP4ovqQV4P8m2aSzZnvxs5czVydmz51m5poWZndKToWDGJ6gRln9dA2LOAqoAqBz41wlt4DlNDpwSyQxVXeMtULSpZIo8SThTFOggk1Z0f4VTgsvUiJAp8XnJC91MWkwRx2WKSyfImz5tcMljeZKIzTS4bXBJ8geXr/p7c2Yit917u++TO+Ff7xVkxxUmuhXY9cYU1awWSwcTFVycoWbzQwTIgBZsUTJh1mQxIDuCcRfM+L7qB6gaqJdiQuBhoPkYhxg553NH92Bd9sAKtjbImlQ0imVQu6Nu76qzDijrMA6x6vAKIBrCYM5DXbCyEucvKPq96vOKwksvKuifpngRZDfOmz2s2LVc6+/nShtbYeQNRIelBph3st4P9jgDGASpE0AZatmHJgkUbFW1StInwdiGYIsq5rODSqo3LNipapODRksM0i0qA5gyaNbigDktXUHKtMH55/MxXkQ+nU/3JQqJsJgHRLFowkGwgyWZFGFR9XrVCVHR5yTFWrYrZz4R78AfEZfthehwDj2R4nf99vDLH34gLrlzVjJ3d4tzC7nD/9LcD098ktckO3q3am66Y3xmT53SWq9n7LSiJW2y4BJAKWQFxDTLVYyrkBVdcjlVCVBx4bTODvBnkDMGGcvohQoDATFeqfO+UixvCh3dxC/dz0/ei35aN5J46t52abhjpz778rVLe3EhOSoX1Nsipla20vJQvrGWU5bqe2t6brnX2K63dzZ2pvLauW3K+sNkfuRyZuK5W3kRUyCEq0u0g3QmyRiCFI6fZtGSLu5d1w1UtVHSZYAY2LQAiA5x3WdkhVZ81IK3brOSxMhT3MwsGzjX8vRber/nJZDkWWbl8K35ueP3qkjQqWRsmlj2hwRcNLHVQDlDV42WXl4SIOPHyvhJ6DJDfllQxuQZooQ3zmrF1X52Kbdzsm/5yYuVyrjmr470W3u2QtMkkHckdrBqkCEjFFtd3FQBzDlUsInlcM0ne5looJ4WgOJQVeSOQjECkoeh4mbEEHF4EVGn72ZaXAURd3I58euFXi8nIreFz53s+2krG/vE3/+/Q6OXI+NWvLrzfH7k4Hrt54+65/sjFodHLZ7/63djUjZFoz9Wbnw2PXbl178uh0SvTc31fXfjwy/MfLKyOvIGyQtaDfCfIdgSPyRtCfdKAiO5TtlkF8qYJixYpO7wq1gA0VOWZarEiwEUYtJC4A1QAWHNCZ6wdlK3YyY38+GDiQl/8m8mt26v5sTxYbfFcm+Y6KGtiWUhhKplM7qrygCodnDuZpZ2kNB9XoH9EzwrgBR2rOlYMIrdQWu2sb2THYps3IgsX70a/2K8k2jjd9NM6lgEtmaTUhpoONUBUgBWHFUwqGSRvUNkW5eQN1vVfKFZuhySZgWIKKfHyBEWg+kHFYUUTyQaUbFpY2Bz+8Nw7sdW7Nwa+uDdyfmL61kef/vyjT39+u++rL8//4fzlj+4Nnb9687O7A99MJe6+9+HfbiVjX1/84L/9zX8aiFy6cOXj9z782eTM3fHYras3Px8avfIGokI5YjBGEHIyXgQhJGxWcVndZXWbVQEr6lRrYblDlQ6VGzCrY83hNZtV2ijUfVm5DPZW0xPRlVsjC9eiyzeX90dVsNWhQh9osWwLZ1soo4tVqVif2UEBMOUAIfQpS8O3DRUGVdtiTaV1sNyEGR3nLaaU7e35ZP/gzPmB+Pnoys2klqg5KUCLJil1UKGDQqchXccoXGuhnFiGBcUOkQx2fPYrZqCaoZJ2Mpd5UVWKqpZwGFewmGYxbT01can3j6upsfhqX3y5L7E88N5Hf/v1dx9cuPbxtTuf9w5/G5vvnZq7O7PUv70/feHax1pt+7sbn5z58jdXbp25dufznjtfDI1f7bl7rufOFxPx228gKtQuawk7VBPxpMPY0jarWLRioqIvLkxXDFo0WalFlCZRWlSuwUwbyx2sAFYwUKGo725lZmJrfZG566NzN+5LMy0/ZxJVYECskosmkzoo2wWDE+4L20HBZLIu2J701CF821BRczMGLgJabiOljSUrEAzC5JLOcnV/P7HZP5z4bmLl9txOJKktVKy0QYo6KbSY3GJyk1ycoLMAACAASURBVEgGL+hUM3lRZ2oY/Fs4ARLEH6FQKX1Zi4pABVTtsjAxXlRRW5vr6Qmts5WvriYziWJ9527km530zMxyf3ypby05kS2sZAsrmcKyUttcWI80QWY9GU3mZ6Nzt5c2R5TK1uLmaH/ku9h8XzI3/+ahQij03RA+hQeQoBWbClR0PNWiFYOKAykrqIGgUsdSFebCsVFqbrpoJjPFtan1/huj3wzEr2zmp2t2xiSFNpZ0IvyLASS2Wd2g4Io1otBNRbeGbp0AV3Wa12k+lPVdnvd4+iPSjp6lqkrDzemoaLOacMYjYtoLpdTkSptk2yhns1LdTc8nI31Tlwamr8wnR1PV1aK932SSQAWWayjrBDWdq23RjWGM4+Bo+MKH0IN6WOyLioUnYcmiWnfsTCaUN0DUNsyGfqmLYlspaJi+YrqKS8sAa20nB6Amnn2xVyl2okgFeJrhywCpHq1YuOjQCuQNAIsdW3oDURHKBy6cF1lCcSrbtOxQkdq0ZJGSjpUWlizhRqmks8JufXm9EG8hqWrt7ZXmRhZ7rgx9Phi/el+dq7rZmptrQqWFlBZUTFpoI6kKdk2Y80jRoopJ802UasB9k0pOULC4qjOhX4WoeJYp9RbkUWxWMXHJpGWbC2CYrGgyTadqzU3pVOkQuenndKKUrb3Z7eFbI18NzlxZzoxn2us1L1P3cmvKlEkLDZI1uNKh+VCDElJCLNLYQ3SwgfGkKf5U4fxkLLVhto2yHZzrMjWDSE0/bRDJJgWLFBxWMn2l3EqanmJ4csvOAqj6rApctQHSNi12nHy5lRTHr1AFSDN9xcKFru8sh5TeSFSwIqAl4aeMlGxacmjomEyspxWPljoo24QZi2k1mCqh3ZHNm99NfLaqjkfXb9wc/fzGyOf3tWmTFkIbhzLgNYvXQVATQh9KJtZ8XgFYajspT5yOqQbLCxhwxQ40oVYJr36yGxQf325/O99wpUMUi1VDL0x1i1eFxGClDlGFRkoEubwiHAeK7irV7dR8cvjmxJd3Zr6N7fYt5Ee+7vtAsbfKftJiagumQkmrAiYDcYwjh2c74RloeKQjgPGSUNHVeOvuftNP20x4TDSZ3EbZppcWu4hIRbyOuZAYFin4ocM4gBSANJ9VTSSggnnD8CWfiRMMyGuht1JZ9yWPV95IVNCiATXdVUxfFQIOqzSoIFZoWsmmk3SY5HJxggZ4VrFXL0f/+O43//Vi5P3eqc+LYNlkaRBIDZyuk2yLKU3hya9kBFWTVwAv27zs8KLLNZ9rogQmmTxv/JRJePXUDFY0aOmAWMlghS6ZTKs6KYeWmn7GILJO8x2abaKUBjaWskOXRz/+duAPv/3iL5PV6Q5JmUHWYBmLS16gmTDTdvcAzlooA2AWs5JLZFs4IH2Z21BPBlh4tn3siOlZLQOO/8mbiYqCJ1TDlgW1upk03H0YKCzQaKDQQMGBBGjS4ntNvLFZHDp7+51ffv5fxte+9YIUZKmqsybiZQVak2Q0Z7cMc02mtYNSRziQLJqsYFFxOO1SyaaSQXN6uCXVVZx+iqlYR8k6VXWq6aSgi5W0WEzrVOsQtYXyHZLvSuYWTDfgHhCqpmwFWcDSqdbUpaHf/+e//d/md28DlIKBjISYzcJAQoECxUhpLs0b7p5u79KgGMYVOEXFi8nK0LjD4yULyZu7Iz13Puq58/6lnt9+d+PXF3t+ce7CX1269c63PX97qfcfLg/84vLwrz65+l//8M1ffHXrZ9/c+NsLt/7+6xvvXLr37i8/+Yt0YyFc/NV0XumiQudFU2yMKA4TqHCETYQEuGQ+HwmLibeJQnW/uz4WzmqPk04Vj1faOOPyQt1J3hr/7IueX1y49+656++cvfbfL/b945c3/+5Xf/o/v+z52YU7P7/U+8uLt39xY+gPt4c/vNb7+/M9v/j68j98d+M3d4c+ikyec1naZuGB7IvNimf/qxeUFQ8Z17x5siJQXV5AvIJ5aS87OTl7UavGa505w1rSwWy1NQ6suZY1VbejZTBat6Zq1mTBHCmZo01rsmVNt605w167MviHkrGVbi2XvFQrKDSDQisotoOCLrbPJYvlbZa3WN7iL7BcfnxX6sf+Rg33UgsgKAJhEVg6sPnlhSbMAK404F6mPttyk+OLl6Y2L5fMhZa1WANTZTBW0kfbYLppTRfaYx0wB+zlBkg0wJxhrwBr3QTrTWNxXxoeHPvEZfs2z7+pGtRDkLC5+iaiwmKyy4UIvp+KxObPO3ibsCQLkpSveWQOsXkbTSE2D/m8x2e9YNbjcz6bw8EioitVY9xAS/3TZyJLFwaXv8t3tjpB8TgqQksNyeb5kBRLGLQ9L2lW8PaQHWghFUIr8ZItDMgrdhCuwVjR48W6l4xtXp9Y/q5v+rMdedhi2waa190pD8/WzYjpTdFgHdNVBy8AOAfgPIALFlp28JqF1iy8VmhEB8Y+JDwrUPFSj7dPWlecbK0Tnpk8gy3PG4gK2SAZQNI+z93fG5icPeeSdUjXEFmCeAbRaRGznYwTHsd82qUTDp1wyDhwI8AeY3wZwJhJ5q8M/Orv3v+PX/W/N7B4ObJ+O7JxN7Jxd2Tjztj6rYn1m5NrN2JrPSHdnFq/NbV++/lo7c7UW0SxtduHdCe2dje21htbuxdbuze12ju+cGN67c705s3++LnfnvmLz6/9zY420MaLDXfCElHDZz0YtdC4h6c9PA1pwqezHp2z8CxAXZqzyVKpPXZz4Jcu3bG5iNrx5Kn87ArSq8r50OHsm4gKwHKApiDPJlODsflzFlp00KwHYxBFXT8CyQhlUUzHMBvFbAKzSUyjPhpxvVHbG0d8FvO1b27+7L//7n+/Ff98JjOQyEdmpbHZ/Phcfmw+N7KUjaxkhtYyA6uZgZXM8FI28nyUGVl6i2g5M7KSjhyjkZX06Ep6bCU1vpIanU8OLu0PruWG4vd7fv/F//3xxb9czV9vkQQg0xBP+n4EkwnCpj00ZrkRRGPAHXPxtM9mHZqwScKh8y5brBsTd4Z/5bHtNxsVDwVofhNRYQd5QPdctr+T7pua/xz4CRtOu/44JhMIj0M8zPg4ZhHCI4hEXH/YQxHKJyib9OCYR+LAm7k+9Osbo+/fnTmbrM8U0X4RpUsoU0bpCtqvwd0GTLbgThPuVP2dip98bvJ2K28LVb3dmpeseTthmgzT3Zq3V3P3a+5+1dltuam2tzuxfOnW+D9fj/xuW7oN2ILHZyibhCgCUcTzRwidcPyIh8YdP+rhKcxmIE+4POGyWYvMNsyJeyO/ddnWKSq+z2GNbPEcoLs2291O352c/wzAhCNk9ISPRiEeQyTC+ATho5SPu2jYcHqBP4jYBKGTiEx5OG568TuR3+0WhmeTt3KdpTaXOoHWCTQ90IS5YSCDIG8FOSvIGTyr89xzUl5n0ttEBssbLPcwCdPXMDqZ5vCSy7W1/aH70nB08VxKvufzZZ/FeTBF6Diw+g3QVyxdrbfu6mBQBxEPTiE27fMpj8d9NmuT2Yoxenvo1y67b4u7X2+yBnVg7QuCN9DiI5CBOAzad4K97fTd2OJZG8+7ZAaxmOUNA3cA0VHKJ3EwQfiUg8cAGrHJhEuimMQQivs4gdjK9Xu/LHUSHbjTgns6lR6KfycWW917QtLBHQmBk2enN3ZcX5QTiQ45uEAXhmPNhxckZCBMYCpAGOQXbSp3nPszS+dTuXuYrSCaoDTW0e9uJ89I2pWp6d/NLX+UVS6vJz+rt/t8GvVZFPE44nMumy91Rm/0/cpje69ptf3iC48He4lvogYFWNbiaTdIbad7Y4vnbLzoklnI4sCLGPagT8Z9OuaRUY9OGP6I6Y1b/qThjPowxvmyDxMeWbzV95tSewbgPQOlTSKHRm/dnfiiLexzVHHRVFiViZtob+r673VVjIfBLwVf6AYpPrjNCwIRvM9mwi7Toaph7yQWL6Rz9whbgSThoymteCUy8k587oNo7L2eW3+VTJ0fmfzV1t4XTeOeiyYgjbs0buFEqTVxq/93Nt59TTuzL46KBx3+5qGCy0CcJ2Q9nrmf7p9e+MpByx5eQHQO2KOS8p3nT/loMp3/tlC7qVZv7uYvJXOXkqlv1cINypYgmkVs5c7Au1ojZpF9i+bCSKdH51OnqHgw9gfs4HlRQVc8NO3DSdseS6cvLi2fWVj4dGDol412ZG37i8W1j1PS+YbRB/wJB8U9vFRtT/cOfgBZ9jWd4r2VqBBuO6jkiAvy+Z3UUHz+Gxeu+mgJkwXDGLnb+1eF8nUIZ85f+C+DkXdmlz6+1fez81f+n55bf7Ww9BHEcUzmg2Crd+g9qTIByL4rbvcfGuGGds6nsuJR2ficqKB01YczEE5DGG+3IsCM7u9d2dm52G6PVRtD1daAYY3Y/oSDY4gtEbpVbcTu9f8zDdTXZPHx1qKCyA6VfS7tpIbjc+ddf92HKwQvmcbYvd6/WVr6SFV7Zuc+WF07k85d7R/6x55bf72z++3C0kc+mkZ4jvPN3qH35ErUIik/EP5jTjWoR5FwfOo8PyowmcM44TmT0E1UyoM2mIPeMkbrjpvw/DihC5jO2zAG3DiwF1VtvK/v4yAoOQfRwdWnVeZ4xX645zdOgxKygsgukSGTkvvDibnznr8OQ1QAc3wq+q7rxi0wtrf3TTZ3OT7zQTzx0fzymeGRX1arvYwtul7cp0t3Bt4ttWdcnnUDxTqVFU+fXs+PCseZAmAC+nNSruf2jZ8N9P76yqW/Ho28993Fv4xEfqkVb0I8bbnRDpg0wVypPBmJfH6Kiu/FDITXLSK5NA9ZLrk/mJj72vNXIVwkeN6xxoE+1Gn1YTzrOBMenPTgtAfjLopbThTCGGVzjjvt4oVbfb+p6/Muz9jC/q97c/J0tX3CuDw/KjCZ871Yu97Xqg1Ehn5x5k//Vz5z47Mz/2lj/dzCwseScoXxWc4XGV9hdKvdjkdGzvgk67we68Cns4Bn+/UNlBWyTfIuzUKeSab6E/NfenAJojlKEq4zSvEkwTEAIq47Smgc4WkXTnok7uNpyx4F9pjjTiO+cvPeb+r6gk1TtjCMPUXFCXjoTpHnRsUKIQlGE8CIrC19/KeP/4+hgZ8vzP5xoP+dSOTnsdhvZfU7yx2xnFGIZghZrVTG+gfe98m+w16LdeCzzfuna3FvIiocnnPpvs+S9/dux2bOON4sRDOMzTpuhLEJjEchjHgwEh7qTXg46pEpSGO+H4U47vkJGqxfv/urSmcW4L3QMPYUFS+MCuFxGaCixwotcys+/20m18/5OiEzwsjAH61Wbuztfq13xvO5K436oKpdrdavW94gomOYTGImjo8KpaGhyPsuSZ6i4qnD8FQ0i8tcPA95CvO9/Wzv3Mo5n8xBGqc8DlHEh0OERhgbpeIwe4qwScSiHplw8TgiMUwTmCzwYOve8D+1jGWf5R3hyvIUFU8djqfIiqAKg6ZLq4RXWsbW5MxXe+k7mCxCNAlxhNBRhMY8bywIFgwwTEgC4gkHDjl4ELERzCd8FnVQTCv3DQz93iXbp6h46jA8FRUgkCyWdvmux3aSmduJlbM2mnHwFKJRysZ9YQQ1BskwZqOER306Btk4ZJM+iRIa91EM4TlEV+8M/K7Wmfd4DpDs6Sne07WFrjfl8HT/oVM8k2ttX7Vw2aEVzMttc3sq8XUyfcvDsz6OEjZG+Rjn04ROQjTlwgnXn4B0wkFDNh6AbBTxqCsYVrxYH7w38FvIkqeneN8HFcLiw+EplyU3UzenFs4AGAcwaqMxH49BJsyffBKBfATxcZeOeSwKecxnUxDFLGfC9WYgXe6588tyO+HzvCUcQJ2ebT91OE6QFQIVUAW4aJGSz4sdcD+xeHEvc9tFsx6exHwcsTEWxAmPe2gKs1kXTSI67dExh0UQjyI+5bBJn82VWpHb/b/GQUoYfb65dlAPddEbt64AgWLSnEWzDk9v7N+NLnzh0GWHzLo4bjgRn024ZBTyqMcmXBp1ecxhMZvFXCaW3a436cMEDTav3vrHcnvGIRmBCnGJ/vRs+6FRf0h6nIyKThcVuGRjpWVuzS5d2s3cduGcR6Y9OuGScZ9MQprAfJHwFcIXMZ/3eczlURRM+2wa0CmbzKv1kRt97/pBdz/wx2FF9gaiQjWI1MFZk2VX9vvH5r60yYbP1yhbB96kx6YBHPdZ3KYxQKZslgAkYeK4y2YRTRA2Jyw+yNp319/RGjEDJgHKAnqKipMhEagnalBMa7gSQCUHV2ykNPXNmYULO3vXXTiP2bxHp10yDbyYg+dJsOmQZcTXHDrvsITD4y5P2DSho3jHm8tXxu6N/MkPRLiC13FD9c/o50/tisO/fRNR4QQVkxY6JL+0Nzw0/aXajFeNGR3MNUG0aozUzEjdHG2Asbo1UQXRMpgom+MNMA6sqAnGG83hciNy8drfydUoQLs+U4Xz6lNZcTjeD0mJ7ssTZUXBIEXIm5i3IC21ze3puW+X18/XW6Ntc7xhjjTBeF2faJjTdX2m1Jqs6bGqHq2DiSoYK5ujJXO0qI8rjeiONDw09ZWDQ1/upxrUEwbgKWPz4CfNDmodXKw6ubV0dHD6fGLj5szalcT6+eWd7+Y2vt7YvzI28/H4/KeTi2cjM5/EVr9e3r2ysPXV+va5tc2zaxtfzix+1nPnl1I5CtCeTSVL+D/tGn0IeJzaQT06Ll1UCEb+yGq7YNISoGWP14Cfr3fWo/EvR6IfL66dm1/7Yn7j3MrOxY3dnqWtK30jf4zEzt6NfDg689n81vmF+xdmNr6a3T6/tNszu3ltculq3/g3FWM3VGWfiVU/WsMHc+M1/fkrlhXCVPtkEuL74V+ZbHLV5KUOLQFWbfuK0tnKN5aT2uTq/r10aSJbnbifH7hw+5fnrv39lz3/cPby3/dNfb6jRjLlkX25d0++XWxOpNShXTli+XuIqwbKGkQCTBPe74QDvK6Px9CSXNyyOLUkP9CgwlAvwg9Ql0wBkgLgJeF+nGg+L+GgqFRmM9povjSSUgfSheF0aWS/ODa9evnspXeu9H7w4Rf/7bOLfze1enFHHdpRh/cr40pnPlufS1cX9ouLIjyfKLA74qp1IKaOJsDJfgZeOyRA8Kp9fIQBqZ4Y2keExuHikoOBMqZwDy4Dmu/4qTbMtInUwHmdFoDweapavNim2SZOmVCS2sufXvr5yMJ3BbDRZplkeebK8Cc9I2eKYMOA6bKzafB0h6Y6LNuA+22SMcTZtgaY8F9tCY/8qk0Vl2kwKHni/sDLdpT9Qwzh9+WsTLFol0TEMBCSyRWDycJlNVNaIgSUCP9lhXFbbC5ZPG/SdAlszCXvXej9YC7ZbyJxhSu6duPb3j+Mr14rgA2T5cLwZQWdS0bIfWxeBEQ2RQge4dkIBmVHhKqSAJFOCnT2Q91+eeWy4omQ6L4EJNfxUibKQl7EvGyHcdZcwdFVkxfqfrYK0y0mNUiuwxXV2jl36/0/fvfr/cZyDWcALzq8qjO17O8ndofP3Xp/aqsPsFIZpgAv61yxhN14QWciJkMLZgCVHRHURzb8LMCSFxQcYU57igr1EBKKJRiHLFzEComtmIKjFU3hdKyigWQLSW0m12lW51rTz6/kxi4N/enCwB+T1TlACi2aU8FWzU/tVuauRj67EjmzV1kQjs1pvht6s0UyDS/V8TMGygEiuawAgzISIeoEMH5yqDg5UpZkkFwLptowDZjkBUXIS5CXDJwzmGxwpSslACtI+ubo0o3Pr/5uJTuRba7qVJb1TR3JblCpWHsVe6/uZza0+N2Zi5cjZ8swVUMZwAtuUO1GUXB4STjfFU7OlTYUo+JwzQsKQEyCUw1KoMI+kBWK6JCQuqFYfNGHhYqzZ2BxR6XDlTrNbmjxKyNnv733zztqvOVkAVFVY1On4i57E6XLTrICdud3hi4PfjK6dL2B0i2cqbp7ocQW9ssW10wqd3Cug3KhchsOQZc9PTH9IcTvK5YVYs/hhCvRXIT31ElWJ9kOzug46/GiH5TaKGNQyRI+kisGUtZzkzdGz40sXt+rLKTryw2UaZO8iVWTqQI5VDWI0iK5Gkrn9I347tC52x+sSpMGVWpuSvwEswCrYSTpksnEYAAq2yIOqohQGqq5r2kB9331nFc3OY40qENIgFBQGFRuuGmHiwAJgGsNlK3A1Fxq5ObkNyPLN/YqcxU32URpg0kNlLK4prN8zd8zsKTjfM3eS6qJvunzl/r/uClNWiIqlRjWNsrqOG+zgivCMGjPEEPnhxmdHxgVBhVRawGT2ijd9tOASjZTgYjSW9wvLPbHLt2JfrOanSiAHcA0A4VhWbjWIZLOZJ3LHeFBWQFcM7jaolLDyyW1he+GP7s9/nXJSLaRCDLbgfk2zJnihFsRwb6YqsNsx8v4vPTmztRXh4HHS34EFSEkhAbFFEC0lp8VBxpBYa+6eGvym9uxb5ey49n2Wt3fN4U7frWJ01VvtwnTIhIXFVfA2zhb9/dr3p6sry+lIr1T39yd+FoDW4CJADodnBM2OOEoG2L4Xovz2cdb/dQ3PxgqDJozSV7o+kxqevs6yYpoqExu+emKtTu7PTQQ/2506cZaLlp2dnUmg0BzeaVDJIeXhVMWrpqBKmKIhJtLLZyrwXTNz7SIdF+eHVu+2TtxPqnN6kgCVOyiAKaKkJBE9sI1X8cXHoVPUSF6gAnF6Uh36gqKLipMqgCiVt396Y2+gcTlkeWbG+p02dlvwmzZTrZgRoSfDXu1JVZ6QvvSqQih1sG5NsmaXK55e5vy5NTGnesjZ+/L8aJ5H2DFFjEmhdzWSV5A6zW4738qBh6fBj8YKjoka+CcFxR1mi2BbcAVj5cKxtaWPDkyfy0y37OWnZA7my2Y1YlYMQOuGlgBVNORbDLFEIxHLAoNqhgi/qfSwjnhWV7gpyC11+NbfSPzPfM7w1JjXYRU5SWdSC0/4wUlT8QOlsPt8x+HAcLjw/Yy3xwpTmF8ie46u7sHVfdS+8WF0cUbkflrM/cHlPaWIWIuF3QiNWHKwJLNRSh4oxs6lctNlO6QcMGAxVUK4exdhCTO5ZrL8a3e3ui38c2+fG3VRIrNimEIr3Bn9jmn7Mts+wmf/sFQodOcEQZp1lmu42e9oJStLo0sXB1KXBpfurlbnKt7KYPKFi8Aqhki/q/SwXmbF9vd5TiTdSoZ3ZTIVlAMFwkioJsINomVNs6tpsdH5nuGZi5vZCY7fh4wrY1zFi94QdkSkY3eRC71Gob80U8cqUwPP9S9VGTu2tDM5bHFG/uVxZqdMokquJII7yKJeLNERNw0cF4nQg02aN7AecBkEWi4+8DzHZLtwGzD27eYur4fHZnr6Y9dXNkbq5i7JlFMEYRNsYUv9B9m/XDSd185KkwuGcInvoi1ZYrTU1mc4HDF4CJwTgdndZqrg72kFI/MXR6IX0jc7yuBZBNmGn7aJIpABddsXgydnYn9iiNmdvxBNI+rhogsIdi/E5RCBTe3V5ofme8ZmL60vDuqNrcMKlThlp8VpYUBtkWBTMTbBlyxhHfughVoJ3XWj/692GBQTCZ3mxzuamjdHha9d8hoGn56v7wwvXHv3uT5xPaAZmy3UBYwzWRKh+QFVxLdJbdxpglTTlAILWFlnebEVZZAuHkHTNZZzuD5NhF5rEB1g6JFC7vqXGT2Wt/Uhfhm3355oe6mABWDazDZEuWoVlAwBLdSxaZWOEaPnvMeP/Z9ZVh6tagwudzCaRGLkYtw5QIVYm2tiE1xLus4V7Z30rWFqfXbV4c+HVvqUY0N4yCE6UtjHg0/vbgbuRE5N5y4kiovtb1cSey+53Qmif14KoKp6YK3CYspR5iEvI3ACGPldLdHDSq2iToopyMhey0RQ7AQrrvkNsqp+tby/mjf1IXrkS+6U7Obiu3yEE4hMzphX/Gk/cbwfRvlLBGwM7eaGu+PXRyZ79mRZuogJWIEY7GyB+IEqagTySByB+Z1JB3skRxHwvHnHykqDCpV7STAss7yoV8mYSLWROkmTJlEqoHdLWlycObiQOzCtjTVwmkRtZF3Xdk9JyqOtlkf8wVocqUJMzvqzHDi6r3YhdXMRMPOiJDpITfScd4gkkU1l5UcEaVSEcSe8+uvbHhemnQKRYTY3AsK4twGiSC8Hi9bvCAYRBgVsuFls9XViZXbNyPnElsDJlUO8BBqqkLhFBQeaLxINByxX3Kk9Obqq/HN/sGZy/Gtvkx1ue3m6l4KBIU2znVoviF2IzVXVE/EpjqRXlm3v1pZAYTLM1Uztgwmtbr2F0zroJxqbiaLM2PL1y8PfjJ7f0BMyqDUhGnBNsKD1eeeDeIIVlB4H/WhE2vB5MTaWm362dXMxIW+P02s3y10kroIuZmzROztkoHFVjogShcb4nTplfX4D1KyUJmIYL3iHI1p3W2ibkxem5caKFcCe2vZqTtT3w7PXVU72zYrin2OkHF0RQRg4tDzYKvqxVDBVNHnYmmuAF5oo3yyNNcfv3Rl6LPF/ZGal3J4ueanWiTXERqaZlAhnU6ExKvcuXq1qNCZVHN33aBkcrnq7eo0X/f36/7+ambs27sf3ol+VbGTJpWL4H4Y2rRUdXfFUL3AjBQmVSGF2DhuP2MK648CoGoHS4AWMu2174Y/+/z6ewWw00VLN3imSeWmn26KxYzs8fKL1OEFqv26/kQsopgmwu+GW6LdpUUn3HtowEzJ3Y0sXb84+Ons7nCL5PSQj3TV/SPF6WgD1xaWaScfzp6sRLVg1hAnUSWbl9o4X7KT+fZ6ur48n4ycvfb79fxk2dlt03xVLM2LICiIU9qnCIofLypAoPpB2Q8qwgwGpZo4XbJ3IvNXrgx9upSK1Pw9IOKdCkHZptmav9dhOYcXX2S9+1RUCJEVFA2iVL39TqC0iLRRiH9y5bcbuUmls1l398XRUsiWTCo3vFQZJN8yVLhByQ1KAZfIAwAAIABJREFUOs7X3X3AVShMOdQS2DGYvC7Hvun7eHDhqqxvN2C2ZCcFqw7EKvwBJARnEdYAXdbzYqjwg2ob5yvuXpvkQ21KbonNK81E6qYc+6LnvS9vvi/rm2Vnt8NEBQyxJfM2ygogvIsWdJ4X1i9cHkxcOnvt3bHl61JnrSHM+FSh5gZKaLcs1J5ubNLnvt17OFpizI7rUSEnFgs4LLVQzhR1KAgLQj+lOslVafJC7x8jc9dy9RVDrPCkurtfd/ffSlkBuNJBuY6f83kFICVbXbYCYXBxZeDMuVvvJ9V5kxRaWOpg2eJFnQu7AZ2LraouiQ26EBVO6M7dEf997gV3zU8BJo5iPV61AmF3qDO5hXMNYeOjtOzczP2BP5z7+7Hlm1Jno+Lu1WG6Q/NPExevTNK+Wg3KYFLN2+vw/KY69VnPu/dmLqSqiyKkOVMaKFOHaZOrdZIue8l2kG/SbIOkheIrGJVYITw7HTrff6BEHSwwRNBUxWCKwVUj0DqB0uFKjWSbTDJJId9cG5m7dnXgTHzjXllPuqwEqGIQyQveNg1KnCJj2YRyQd9uOCndyU+v95679t7MVr/W3sl3tspeyhQ3FssgKOpcEZAIt3G7eBCQOMCD6nKti4rwSoa4d/osBALZYWWDq02S15lqBoUWkaow1cA5IPYnCyrYMZCWaqz0xi9e6P/TYnqs5Yc/PUWJemNQcbSX/4hm+cgh8cGvHZLLt1cHZi5eHvxkYW+4qN/XiaTTvLCxYQWdym2eb7N8m+bbQb7NxG5pKDcU4Vfzuag7Zt2lxeEC42B1wdUOzrewkBWAFxskbwjDnlIT5gDRqubu8u7IwPSlSOLqfTnegVlHWIIcb91h046W8g9+PWmr6vifH/HUw3Je8lge+5aYQNrDdFBDYYdHZLGGdv9/4t7zR5IjyRf8Z+774f6AwwH36Q447B2wD/tugQfcE3Nv9s0sZ3aGu7M7WpAcsiXZTXazu6uru1SXytKpKktrkVWptarUmeEhPFz714N7VGVXC3LYHB5fw+CIjoqINDezn7kyN89Ei2szwSdTwUd7SX+hd9qAyQZKXqDEhZvokKwpVb9fDXavRrrXWwlHFD1UfM0GgTf/5DUsasOGyLZ4pivyfdVBKip48JIpqyogVy285gAr5ftHoZOpF8EvfJEniYtt3Y9SAwy9HU1FheoYqlcmVLwFXF3xst7bNLDSr1LQX7j/Dm2FKWuAVTtEuV5ThVokLZlxlV/PmiKv+h4k38W5Jk71Rb5HM9n+9nr0xeMXH0T2Ro8SC23nvAMTPZJWIXpq8KDbUJHTp3LlezLbV6fB632S2v28Kdyvu8Nz6pSW6/TSh+UNFZmTUkuwvKAHnSW1jKhWUcomL7WdVLq5O789/OXsx6HTFzUYbfHkBY62RKIr0h2mwnUAzzui5Ai1UalPki3nDOg4rh5OApbxwtS9BUSNqMutnoZMA5nSlP0mDnXwjFrVkTlD0QBLajrfI0uPECxedNRxRDmDJvskbjC1h8QR9S4p9amiNs4BXrJlpQWTVeusrQYVyd2Yf3jufuBwLnZx3HDLDZivWfEuTfd5tsvU4MpWm7GKnsQG/Hyd5C8PjvKOj3p7eYkKke1q6slcT+Z7stBTx7KV+t4537xchym9X7LUsOO5xn744MVU+EHkfKbknPVEqcvLDZQDvHZhpTooa3MVYW1r12nQfAtmO24BsLotWmqb/l/ner45Koo9WmqjYocUAC/bogB4yhIJW6Q6brQNz3tuqgPT+e7xQT6wn1vey86PR27Pb35+HPP1QRTirEVSJs4YKmQy2yWZLs0aUkX4eXQ94Pyv1MFrr5s8a6oZmKxB0z2c7MJEx4n1cBKKki3Ljij3SaZNk7nufjg6+Sx0e3z909NmKJKaPO9GGuzMUEfM5B1RRLLsKk+Zt1jWIhmb5bpu3KZ5oDIUqrUn1QBeNiMKFYZMGzIJZEJT9jWuvv6/g177FSpU1KqmMpBlW1Z7atttwVJ9/azJUyZLOjzrqF77RQcXe7TYY8UuyZq81LRju4n502I4Vt2Y2xxe2B7bTgbzRqLs5A3e7ZBaB+cMmjFouk9SfZUSJas+y3MWe7uJfz3nX/VXD+R9hQeP8l1Z0OcVlvqyYsoLQ5S6NA9FrW0nAM6YOFtq7e+m5ic3H4yu3j8srcaa+ws7k003D3AF0FLPTZo0bbG0I/ImK/RwoU+qgLUAbXyPqFBxYPk2KgBeATTfhlGTxwCPQhE38TlACYBTBk4fpZbG/XefLd94sXZ76ejBeXUe8hhmKcJzFo4bMGaq+Pu0Cilj+b5yGJdkyKyhTqDSdLV7eLCN+K+5sETeVptd1A5YtR8SZw2U7pFk2461YdxkuTaKtUmsz5N1eHpUWvTtf/489PF936+D589K1i7gSYunTJI0UUJXM26ytMPzBk4BnO7YcUuq7a8qMtebLZDZvsz0ZEpToifjhkgAkXnXKhiX37l0q32ppgoMUda9/7Lac6t6OFlHFFxZACTRcaKApS1e6JOs3kyXAfrg90xrfSJ4+/HMH+c3H0ai47HaWh0l+rzUxqUeqxq8pmxIB5NbNG/RvM0K2uXlDNXjf7mT+6+/NkRGSybbldmuzHcUFTqyqNoKVq1aZ7asWrTQdeIWSUOq3GgbR4+qi1M79yfW7z1ZuHl//IM+zvdRBtB0D0VNFjPpGcBnPfe84yYBqziiA9iF6kR9T22FKHZJoYOLLSd9XloNHw6fZKePkmPnmZlY1neWmjuITR2cz75YuvWbW//5Zx/+3SdPf+zbvrmfeR7NTh6djcUzcwdnE/HSSsuK9km6p7Zl5/qqDb2kvu4wXLYYqh/1nZFeeMr1aLpLkgbNWKwARcXihbYdT1bDm9HxteORveT0TvLFVnxs43xkNPzhr+79h5998rcPZv91NfrkKDN1EJ/ci47tR8cPzyaP4rN7sZnj9EILnlm80LJjbb3EoSLneMFQY/p8X2Z7Chjpnkz2ZMIQKW1S71YjQ+b0d671NBQkKobeeasmcNSSc0ZDPZ2pr4UOnx6mZw8S04eJ6dOs7yg9fZicOEyOL27e/eTLH/70D//nzcc/Wt77fDs2vnE+vhOf3Yr6NmO+g/Ryw4mpviVVO1tsfWigAhXPdFSowbvx/PXPqxBaBXWvrSgM2oqeKHZI/sI8N0juAhxvRyej6YXjs5nDs8mD1MRObmR27/YfHvzgJ3/8d3/+4r1oZmkrOn6cmjpNT0bTk8eJ0f3z53vn40cpX765b/MLS1zoDSF/YeTw9bD5xj0o1dcsGaRU7UdXD0efz/5x4/jR2t69jYPPtw6/CO/ci+w8DG0+8AVufvr0vQ/u/8cvJn8yFvhV5PjT7eMH4Y27kd3PfcEbkeOhbGfdoKk+zbRpSqOi2Fc9y1L/stP8sjKmihV7hXT02Ct3XnvA++9rj6noTpbt00wPpzs42aNpW5ahLBs4Hdp79GLpQ1/oRnDv85Wdzxa3bvvWP3489/7d8R/dfv5fJ/y/De1/Fjn6PLj1aXD9bmTr/sbuo43Dp9PB22NLN2v2cZckuyhVs6MmL3VJtq+nVgxZNBQwcn2Z6ctUXyb16EIND97K7eDmaw8A9ZF8Xxau5FMxZAXIGpC1nijq7VZq2rSN4i03uh2buj/6b4H9B/6tO6GdO2uHn63u313Z+mR588+z4d8PTf/00+Ef3B/70djSr1a2bq/s3J3buOVbve3ffvjF+K9SjfUOSfZU3yln8GyXpjo02WOpDk15mTgGHL714jW23/qM9x3dvczrDnNRjbYv9V7uqh1jGYsXq9bxeWnl+ewfQ9sP/KufBSJ3g3u3V05ujq/96tbwDz4b+fHowu8CO5+Gd+7tHD/cPri/uf9pZPd2ePd2cOvu8vq9vfMZoPtg3ysqTF5xeK1rJY9Tvq3TYUccEnEE2Q5iuxbZxuyE8qgBt7vuehdHLuzFhrts8w0Tb1B51LHWSl1/YP/z9fPnhd52jyY7PN2RubbM6WZUeY6eopzXaOiBpjfcfKW8GoO+cvP6w94D1x9T07u8qAbZsmwp7KlInrp9tp/2jfh+l73wmWQX0B0DbwK6DfhWA/kL/dk28ltyE8k9m28DtGHjbcwPiDix2Wm0tOhb/zxa8p+WAlXrVE2pqfCEYk94Vch3Za4rM12Z7spkRya6MtlX/cOv5Hnwp+ts91Q3I6s/ddn/7spST1Z6stJm+baaxysYNF/qH2Wam6HDZ8/mP+y4uxbbNGnI5quOWAM00ENLBlkBNNgwffn2RMtcRHwb4DXANiy2Y9ODx9O/2I69KPYO2jCpd33l+zyj9gyRVIekrvMzYPLNi7/42PUHdLfZaygGZb4nsl2UPEj7wgePd6LDPWcHs1PEDm2+2aZLJXOqCnw9GjL5ZtcJOnST8h0udqnYRGId8o2GETiOj+5Fx02SctX88kvf+vVtwlf99R3aCsBKJi1d9E92o+M7p0NQ7FGx27NXAPS7bBPSLYtsGnC1B4MGCZo8YIuQSQNVY8aSa4gfFHuLDyd//sGD/9e3c++8FU72ttPgMA2O0uA4A06y4DgLjnPgKAcO8+Cw8N1Rrn+Q7uxmu3tlcFIF0VL/JNvd3zifvfv8F3ce/TCaeWq5GwBF6mChZS/1WaCDF20RNnkQygiUayYJWziMmNKEy3YA2Y+WFoYXPnrs+9OQ789F4zDT3c30DlLd/axxlFO1OMqCQ00HWbCXAbtZsJsDB+9Uozw4zIHDDDjIqK8dZ5V8TrMgmtOU7Z+q3+ofJZpbkejkRODO7Wf/8mT6D0glcl+3yaJNFl0RcIXfpAuAzkO+YtEliy4jHgZkuQ6mXbHWR/6Ws/R09v27z34+HfniILucaG7muwcVI1rTVAfn78Tz1z1sHBZe0nHeOM4ZJ5cEjvPGYaG/f1YJ3Bv5xd2hnwS37xrmpoW3+m7IpkGLLwO+ZNFgw/FZPOTytT5cdOgKFiGHLrs8gMV6G/j3o08iO4/68MxWGwS+R1Q4ooZFvWWcHp5PnCSe23Sdio0OmLWxn7JNl0QwW2diG9KISZZd4Xe5v09nAV+CcrVLAunmi5/+4X/7pw//5sHsL8dXbw8Hbj1auvVo6fajxTuPF+8+Wbx9RbeGFm8NLXxn9KXv4wczHw0t3BoNfPZ08fbD2T8PL91+PHfjt3d+8Df/9/8Q3vmobsyaOEDEOhYRiy+bbNEWixZbRCKARUjLPczFphDbhG06fC/TDNx+/v7f//h/vTvyy6G5T8aC9x75bk6EHwyvfOpV4bGq161HSzcfLd14vHTjydKNocWb71yjxVuP1RduP1pUInq0ePfx4qdPFj5TNHfn+cq9Ef+9sdC9Z0u3f3v3H/7hl//Xk5k/OPzYJCuQ+hzig2wO8Xmb+gCaNvEs5As2WwDYB/C8SZegCHG5aeCl39z4mx/+6/9+8+kvxkP3R/yfPvJ98mT+5uO5G0/mb46H7r8zz1+tteH5W1d0++nC7acLd4fm7w4t3BlauD20cPPp3CfD8x/dH/vF3/6n/3Fm5fellg/gMBJrVIQBmm3BCUcsW3y5B+csskxlmKgs9MsWnod0GYvVruk/iT3fOxmhokB4+XtEhSwAVgA4X2nvH0bHY5lxB0eYWO+DGcaDpjWHaYDyMFQHTQQR9ffdaZPOIrEE+JwlVqjYOisN/ehX/8sfPv8PweijaCNwVPXvlQJ7pdBeaXWvtHpQCmkKHJQCB8XA4XdH0WrkpBLez68cFPwHef9RKZhobx8U/MPzH/zo/f/58OyOS4NYhGy6BJDPIfOEL5l42kIziKtrlyy6ZJnQIKVBSEIm3UzUF28O/fS93/+7THfjuLi8Fp85LAaiFxtH5cta7JeCe+XAXtl/SSX/u1bnoBg4KPn3SwMRaSkVVw+KawfFtcNCRP1cKXxSDZ/XI49mP/inP/39hP+Trrtu4UUhloUS+KIiuUjUxTKXQaGNCTE/F2suX+Fio2f7/nDzb/7lo7+bXL1/Vl+PNTdPq6vR2tpRKbiTWTyphN+V7a9//qQQOCkEjgvB40LouBA+KqweFsKHxeBRMXBaDpwWFzejw//+B//TbPC3fTtI5AYTaw5bdNicyxb7eNYRK5D7gTPPRZhwv0sWIJ4jzI9ZpAsC0fjYYfQFYnnDTX2vqDB5CfJKG5wex8ZO40OQRTAPYLbIxCJ05yhboSzAeBCzFUjmEVvEdLFlPTfYdAdPYREpg+nV6J0n8//iP/2y7Bx2ZKatxhWFtiy1VSyG18sczGd/ZxeGLPRErsVTHZ4xZdkU5QqMbibnxv03x3zvp0qPHbLSBdN9e5rKgIsWDHNMiEVMfY477bjTCM9zsSbllmMv2c4y5nuZytLs2qerp88fTP2uYh/V0ZklymXrrEWzV7XwhhbZjsy2NV1N0n/TSunhhPdu7uqbpcG4osVyZee8z/ItnDgp+DdjU7Nr98YXP6YySkUYEZ/rzhK6KERQyhAh6rwbISNcRhiPuKrvEUQi6AqVTP/5zHuzqzdDp+MnlXDVOQMqeVzVkpW+yNdJ/F3Z/vrnr2beLwfchixpUpMTXZZINVfvPHlv++xx5OBW215wZcjEc4D6APX13VkbLzO+aWM/IgFMA0KsI7xE2DJmAcLW+yB8eja2d/QC84rDympXxvc0MysLplrDKrXByVFs7CTxBLIwFiuYzTOxgLEPGJPQXdDACHOxBtFipz+mTugSi1AsAL6Uqj8Ln9zezTwtgY0mjl6QWEdBotiRpc4lKnLdl6s839SAvl4TPTXGVaho0EQNnTdIwosxucCxsrmztP5BtvrUsH0u8TMeRGTBcX2YLJjWGMazlPow9nHut0wfdBYoXbUcf88JxSq+wNGjEtiKlpdtldBNxT62WUaPtj1451XAlZqPV8DoqInad6uOhwr97ltQAUSlgVREHRCFuh2tWIeb5xPjS3826Y5pL0Dow2gRgOlOe7yQ/zKR+KxWe16vj7Xak5gEbbgMsR/AJZcFqYiMzf7srOgr28c1dN7m6a7IdkSmK1X53aJCT6JcrkepjfWyeB0Vhsj08NlZ0RcvTW0c3W6Zc1iEmAhTEerbs/XeRKUxvrN/o1obr1RHe71Z216A7iKhfkKDhG30QeT0bHLvaBrzmkP1XqX/DqiIj75EhTp8aN5xpjD2ExJA7jLCK4QpQCO8YqFZV8wxGbSFP9sYXdn9ON9ccXgS6PCnrsJDuatIGZOezcz21ZS2mtX+rsiQl9HIKksaT6toKxWiUnJEJrh9s1AfsckyEWEu1zgPEaoQztg8YysmGCfunGB+SvwE+wHw2XYQ0p3z0kxg/2EHHQMSt/XW5C5NqSSqQjm/vopiUJNRfQWMnJ5HUqh4p+r0rl705qD017z560pfVmx50aNqc7MjS2o9m+ePk3Nj8x8CtE3ZJobz2Fk8O711cnTTN/uTqckfb2584PO9Hwr9DqE1Srct239Rf4HpqhC7T8ffy1+EVCJNvZmhyzNtluor+ahNcO/E89c+rFYq9Ax1Wi/UDlBRNtSavYoHBSLpkPhpamzj8E7fVsNoJPxYhk7O7076frIc+PXde38fiz9cWvy3s+hnrhtAaJnQACEhwjZ6YO3kfHL3eAbxus2+X1QAFSxZaoKTg/joceKJzcNIrLjcR8U8JvOch4VYd6HfMhdse9G0FoA5h9mKiWeRWEYiXOnOLK1/VGwELZE0VeqASl+W+5dlUU9jK8Fpymgh/uWpzDdnCd+80+Mq6ZBeo6iosHaeaeJ4BycNer4Q+Sh3MQbcJcxWbbjSN2Zs24fhHLRmoDlLSYC6S5Yxy2gY46BpLpp2AJKdZNE3v3a7amyYPNaGJy101iFxKFTfzAOGdoQFvWrhrTlcQuJN3r7qjrawgXco9FVcjO5vqCW8is7cqnMh85wt8q4sHMd943Mf2GTXtgOchV1roZwfCqz828TYfxsZ/uHJ0aer4T9OvvhpNPogk3nuuquuGyF0DeLVp+PvpWvLXRLvsbQXxm9oSEAVhVH8Kvbe/b4XuJAGKgRGnQOmRVQ2ZNUQVaBSDJe6KEZlbuv48ebhZ6azCkmgZ80CuJgpDq9vfxw9f7ixdePF5D/FY1/ubH20Gv5NtztJmB+xEOYbXbB2rFHh8rrFat9rD0rn2ig1wMl+fPQw+cTiYahQMUfFom/uv+ULj2x7+Sx6b2X5l6Hgb8Ph323tfNQHPsJWAPIhHi63plbWPy41Q4DEDJVwV4nDEFVDlg21jJDTXiSlBed5lEG0qYKHN+f9Wnk9euq1P3mvAKlyT/RUhsK8pXOL9Fi6TRJqnZvFfMEPMtVxA/pPzj5bXP7FweGN2Pmn66u/piQMDN/czHvZ5Bdh/7+urf4+4P91MPjbbGHEJbvpom9+9VYdbNoiZpAzwJIWz1p6s5sO2Cxdhm3qPG66t5D3zGjA4Tdh2wuB0S8WdEyo99mKySuWKKvleVHU6dwTFksdnE9N+D4g7MiBAUqCjEb6nZnz6Gfbmx/5V36dSj45P3t0fPRFtxswjADCa8DyW1B52bGZn6dqSy183mMpneWkoHhT+c5y3av1im/O9kDm1yuob3p9p+QVKtQebr1OXzNEzeBVgxYMnGKyeJyY2Dv90oIRxFYBXDScpXrHlytPxFPDochH0eiD2sVUOvWoUhm17DnCVhAPuHytY4aPYuM7x5NQ1ExW/R5X8ZRJFU1RroOTvcTYQeqJqVEB+TwRiyvBnx2f3IjFPl9f/3B66mfDQ/8wNvqPW1ufVGvjQkQgWaJis3gxFVi/VW1GLJJUid3VCRU1RTpuWYdnZkyZ1PQ6Kq5L+V2v+zyj8hSqI9BVkhFDNR0qUsgW6amlP2aqkw7ZPIl+/mLqJ2vrf9zf+3hi5Ifd1myl8GzJ97Od9Q821/746OF/fDHxkxeT/3Ry9qWFtpOF6eX1O314AEXCEQmTp1xRADRjsoLJdb4M8RIYeth3Ldj7qzdwvlEvz5Jy6gsqiL2kPs4rFq/YouyKiiOKgKQsknZ59vh8ZmL2T4QfujhgWz4pN6C9BPpz7dZcqTjW6Sx1Oyud9hLGO5TuMLZruxETBjCLTPjezzcCKt5WZC01dMwr+ejsZiri4x24fenC3vaWqounXKDiiNVWO7WXQ0Vn1Pus2kV5QHMOyyby84dnQwCGidhwadghYctdM8zVi+ZcJjfa6Syalt80/bazCNEc5osuX4Yi3DYDh/GR7ZNxRwVBf5+reGr4UjJl+QKc7HqoEGE1WSYWsFiKxm5lsl+mU0+2t27Nz/16Yuzn42M/29y8ZRjLjK1ysSrEfuXCF4zcrjTWIMtZtGSyqskvTF4zedXkJR1rmbZEwpIJS6Z1dPo32s4yiHb+qgvAM0AlpFJnuCiSulQhg+mZlY8y1Wkbb58lhnwL/7a9/cnp8aeLvn/uNWablYno4Z3DnVvrkQ9HR/5xbu7fZn2/jCVGbLQXy00GNu4A9xDyc5udAxxzWNaiGRVXx0uWsl1F6kL5EWVqX8Xb197PmtKLP1e7ryz9QYtVHFZxVZb1EhRFh+Uwz3NZOovNvZj9k0t2XXfFhYuErDC6Gj29U6lMnJ7ci8ceJ5NPT6Ofl8svoLtmOau2GzbhMmaRcd/Pys2wpSYMcpZa9c+qozqVyygAdfTHd6MCpU2FCqVcL67+GioaBrvo4mIfZw2cPMv4DqJDwIkQsQVx2KVr7d5S9PzJ6dmXseTQ7u6tQvF5OPK7bOEL4Ey6fA6KeSj8bWv5MDG8dTriqB0mBe2J/qry1bXt6/lj3nJdeqWtEKuO8EOxiMVysfIYmIsQhoqFsWj0y7Po46PDL2LnQ5RsUhIUIkLI5kV9IRy5W66vuTwPedVWkFCosHjV4mWNioytQtMTlkh/VUDyt7gPaAaohLYqGtxROUdUVLmlEnjm5gI3ksVJ4G4UKtPHp5/n8yP1i5lM8glFYepGyrnhRnXi5PBu/PxR9PTBafTLi/qSjfbiuUn/+p2etYd5wmUJiyRMnLRZ1mFFm5U8YFwascrv5sV7f4uo7KwldPy53kRlc/Vlm5UhK2NRhbzoiqIr8ojnKM9HY74p34eI7Ko5D7rsOLMuWpmZ/ceDg0+mp3/y4sV7Cwu/mJv/l72D2xYMGtaSBf0WWmJibWzmp6VmSPUARd6WBUtlXM4oVHDV+n0LaX/lKzJrqcOF46bacOK1FRWvrQD8AtBqH2Udmj06f7F3/Nh0Ngjfst2gg1brLd/61iejE++NjP9jKPz7p8/+8+TMD0Nr/9wBz1zug2IOipW2tXiYGNo+feYInXDMA8ZbDNjri/7l8jVUqER9V91i77ymwR3l+WxR1KPt8cPEkMXXbOZ32KLLFzFfYjxIqJ+SAGMRSiMEhymJIOgnaJnToGMHahe+1Y1Pa811xPMOL1te9+myuahYvGjxnCPStobEN9+b+hefNNT5Omo3ghqEqdihHFBZHEtYFuYCH6cK4xZaR2zDJWFMw1ysCxFhVE3UYrRAldMNUrbqojAm6xaMALiRKs741+92wC4RKcTTDksDhYq8rsJlQ6FPBlK9KU3vsNX2qjpqX9clXW4w9M4uKzqs6Iqyw/NQ5B2WtWna5ZnTmG/S9yFi+5gGEfYBMGHa01s7v4tGby4s/uzZyH/x+X66EvjX3f0/2+4KZiFMwogFEPOPTL5XaATV/hM9lWLxImB5TbkeVhkfvyvSCE9oYFwOuLWZqbElEDU1f8BymOWOYy/2Dh+aVoSQdQgDthPo9hb2Dm4/ePT/PH76n6LRuzdu/R+x5J3g6s9bxnNI5xy2CFmgDZZP4s/2T0eQCq1Xm2mvRmIDYy5qwx78d2DV3pmJg/uXj72GCm+D31tKU5QsXoA83wHHJ/EXR+dPXb5tYb/LliGdc+ksojOYeOTDeI7gOYIWKFrA7gInIYRCFxezka1PL1rrWOZMVjBoCYia8hMKHlVL9ZjVgWCKFMq9rvl3UfJ3S08NAAAgAElEQVQi8Ojqm2otT+3dySwE/5wtjFkwYLpLNlpAbIHyeSEXuJhHbFIRnUHU59IFlyy52A9xGLLtVGl2ef1uy9q1eAzQc0ASptqOV7LU9wcHe6vJIk2eML9dRS6VZA7aHJ73tkDZSlBZk6RsmkYifxqbm5j90KF7Nl7m3N/pPcdsIVu4n8l/vrnz2+XAz1eC74fXfnmeuAPxEuVBy5lnIuzilefjP87XAzrn0rfj8Ju+pXuwSY2KhB5a6PGSmpZV+6i09DIAR8/TkwdHD0wzSPCq66xAJ1AsjS4s/mJ0/B+C4V+ub/1ufes361u/Tuc+s6HPxcsQB1wc6faD57GJaHSSsixW7tXj6jUz9o7SvX5TnYalVeaVgwfKb6Li5d/0C5f/VaggOYdkuuA4Gp+Oxke5OER8jfEw5UuI+RCdwnQSk0lMpgiZoWSWYh9TM7ZqJZLz9WZrbn3n04v2OhJZoHJqFBQqPLpEhQKeztOhNlh/Z8TLOpv/yw+aatqxYsvc/MqHmdxzy1mx3SUHz6tasBkqZ5iYdvm4Ijbp0hn3EhgrkIRsthkrTi+t323bh0h6LZvq50DdLGieNRhU1LfSt6JvUxdPrwMP53XD8l7/RLvDjMnSgCRtliaieJZYml64QfgJJAEmQpD6hDL6BRWMY8/2wGQXTLa6430wzUSIi7BLVnSruDHy4if5ekh71m/H5zd+SxYsmbRVJyqlJ2ezOrC8oAYYsqBrlATkNJ6dPD59aNurnG9yusroqotCPWO+3Z0xnXnTmXPJYt+cNKxpQkOUrzK+wfgeABuJ+FT0dJLiNCI51eJ9G5m/rMtrqPhK6KtEYzhrual27/D4bPL4bASxfRMFbbRkolmi1vLmuPBxVc5zsSCECsjhbNmFC5QEoROq1GbCG7crzQgUabVZlOS0K9VtqBpwl02FctW11UtIXqP2lfy8Q2PylW1Fbs7/UaYw5uCwy0KY+alYxmKOCN81midigYgVIgJEhLBYd8VOvDS9vPlp1znCImOLFOBpg6TULj+lDM3wAA9K5Z5lv2tFvLe8IaNKKamnCnK6H5J11fpdzmRpA8cBiaseVHxucu5jlx0azqJDF0zk4yKE2AoTIcRVmKbLApD6XebHPERFBNIA4kEm1h8++6+Z6vfQVqgAfkt6bcUbqPD22bIEIKdnqYmdg3uGsYLcMHT8lrXsuCEqNohYwzxkugtUBB2yaLpzlrsA4JLlBiHa7PZWz84njo/HXZS0kdqQ+A7mcdWDuP7KO6DCcNPAjjc7ByfnU9H4uJCnRG4xuUFl0OULiPuwR2yOsHlCFwhdJnRFyjUpd7jYarQX1rY/rbYiDk/2UaKHMld9DJXiAShfW/B8oW7QryzsbUxfr8Bfvv5KVGRmFv6UyDw3naCNg5D6IVu2iM8iUxaZcoXvkviCy5dc5ndZENJVh23FClMLa7eb1q4j4oDFAUsAmlI7/i6HZN4Ga7VkC7y4g2/TIbw+haKS816NYrOWzBJZRjJv87SBYwY6t1ny4Gx6dOYDlx1zucXlqgp5kqsqtlSGsAJzyMYrNvITESEiwsWmS1dtFBRiZ3j8J7mL0P//PSi1HmXKtAZGxlvevhSOLKptYSQNaNKiZ/HczMHRQ9uOCLEj5Tblm0TRBmYRwiMAzjtk0SHLXES4XCMqqHaLiX0ANmKxyaOjcduJARj/zlHxlcNzNeoiWQtn2sbxcWzm6HwciWMTb9hszaFBJELam/qJitb0MxFgIshEmIkwpiEuNlyyXmvNRbY/vWituSINaMqgmSuDLmt7KoCr1B5aSV/JiW7u3+mvXsJgPWen5yVUvilZtGVm3v9JtjQFyRbim5ivY7EK+bLNFhw+h8WSJhXHj0UYizUsNpDYdsVevDi9sHa7YW1bIgZ43BQpKIpYVC/zRr+cGbxaplD7PN+JYf2wQtTVIoBChTclpVDhygKUWVuJMW6xOBaZaNw3Of8xFlEkNl0RxDJs4SXIgjYJODQIWchEfhuHkNp9EXZoxEQhU6Fif2L2XwuNVb2z9N05fIdKKVFoVKQstbatu0/qda9JzJtqoiULRTKZ9+0ePOyBECIbhK5jugHJmoXDDo5wsYNECHJ/35lzmN/lIYeEHbIO6U7XiJzFJo5PxxFJQJq5Gm1/+xq92lZ8dUyVKVR6LCyKXRA9js0cRMdsdgTQls02bbZms5Cj5qMuCTI/pEFIw5CGXRqhYgvSjWprYW33fqO9SWTOUSvBeneIagq8JORqbdvUule7nFWyjOv+8q+4VnPYmq4+6KHCktn5wK10acZC2xbZsMmaTVcBXgF4EZBFh6mAfoet2Czg0FWbRmyybpNNlx3mq8urBw/66AiJlCkSgCdNkVFzvlff15xfQWJg2e9coytIqMVmDQk1uanIpEmTJW2hCIssl4VYatG3fJvJmCu2oYhguWYqMEQssuqwiKY1zLeo2ENiG4kdJvapOGBi//nkP+caYYWKV5j/K6T99u94qMhcg4SHB0/7RVsl+SwSmU0VF7cPH3WMMMRbmG1DrReLRGwcwWLL5REiNoC73HMWIPOUsmHh7WYvHI1NnERfMJHBauvlX1ud11BxTRMv1alumnq+H8lSG0T3o9M7J6MmPTHxARZHVBxDsenwtVdp3eEbUGlil4kjV+zXOitru1/U25tYZi2VbuNy4k/5UWUxXsSHt6CrDn/5zkjNYWu6+qapTh7JWzK3sv55sb7i0mOH7Ttsx+FbFos4POKIiCNWbbHq8DVbrDt80+bb6gG2Z7PDeMG3snmvB4+IzDgiDViii2JdlS7yujLy2iN+V9W5xIOHCkDigCZskXRkCskMlbnTc9/I9B9NfITkIZLbWO5oeGw7YsthWzbbMtw1A0YctoPEgUV3INtH8qjvrD8Z/+dsfVWz+t0J/ErOb2hwII2r3qYaTJZNtTaiGkAq85nSyvbRUBtsQHZAxTHiB5DvOWzbous23wAojMW2pZxXiIpdJHYdtgPQTq0TOjobO4iOE4UKnc/lK3n4RtV8B1S4ooJFrd49CW0N+1buxnLzR/Hx0+TYaXL0NDV8mnr6Kg2fpoZPkk8Pzx5HkyPn2Ynd0ydTCx9mKwGHpyye0Utpl9Ph/71Q8eXIr8LbD84z09HUxGlqJJp+dpp+epYdPs8PR9OPT9OPo6mh0/TTaOrZqaKR0+RoNDO5vPHp0+nfljrrrky5ao0852VMAyof1MDLeqjIXAU4fCNlvGFGV2+91lbwtMVTjkhbPGnSGHDPIjtDt794L17wHcWfnqaGTpNPz3OjZ5nn5/nRs8xoNDN6HH96GBuK5SdSpZmD86f70aFoeuIkMXL7ix+lquHvCxU5rWivK6snQ9V0vD5WRp2RkLdwcj86OTn/0e7Js+PY2ElsNJoaPc+OnWVHznIjyfJ4NP30PDd8kngczQ2fpZ+dJIZOEsPR1Pjh2Whw4/ON/WEsslQNUK/k9m2x8RoqvM7G2/Kd8LzFigbMNoxoshiJ7I3sn02v7j3ZiY7sno0cxUc3Tx6t7t+/9/Qfb3z+X+ZXPzlJj52kx7ajT7aPH8fy04exke3T4bP0XNs8hiJrs6wOHLp2eqdy5xlDZAzppU56Gw+qg/6tKX+pEtUuKbJEbvN4Yjc6EU3NHMVfnCRfHMZHd6ND0czY7tmje0P/8OuP/3Yp8vF29PFxYuQoOXIQe36UGDtJT21HRzZPnld724DGocwjWYIqLr0M1LB+cEBZzoudNmTKuEwG9a05Vy96id5MFbqSsdVEcM6VeUdkLJroOdF4fnl158l51rcbHdo8fbB18vAgPnwQG96JPnk09v4n934wufin/bNnB7GRo/j49unwzunw5snTw/Ox4PbDmnGoe1Cvy0d3O/8qnl9Tlo7J9fJhlgArA1Y2WdliZZtVXF4BJAtQotLeXT98fpKYOYlPHZyN7kefHSdGTtOjmycPJpd+94ebf/di+Td7Z4/3YkNHieHj1MhedHjvbOTg/MXh+WSyFDDguVrZVBHZqkP7Gn3zGr2KCm/8pJLA6vN+Li8u/2uxkomLwM33nGSptVdq7xab243eYaG1UTd2U9WVaf+NoenfPJ769cTSn6N5X6GzWuqtVXobLfug2F5L10I9J+rwLJJFm+aAOg8qr0j9iif9S1RcOyjM++nrpToJ92tJH8upj3O+fOztg0K1f8BwU9X+wUV/vw72K93tcmuj3tspNVYX1u48GHl/YvGDz5/97Cj1otReLbRDxfZq3diug91Kb6sO9ntu1GQpFUjCizYrmqQIWEkfHucBI6fTH+kMggoVuoJfz7mKVB3UzrOel6U+UcXDhoeKvCuLrsxDngU40bGi9f5+rbtV72+WuuFKN1w11sqd1ZWt+yO+Pzyf/f3Uyid75+OV7kaxvVZsrTf7+5X2Vr4eaYETFRHjhQ+9KaiX/PwlmX991XRyWJWURBQNfRK0B4krVJQhV/nR2nbM5tkOiJba27X+7oWxW+6uFzvhYie4e/7s4dj7I77f3X/+0/3YaKW9Vuuv183ten/7orfbMA67ZhS4CYCTDi9YCg9FUx9xeK3UsRqv8DmQ9uu1ew0VevSj+C7ola9BWQS8BMUFlg2HVwHOGViH/fACQBkDpzrwfPd82he+f5xdSF5EVraH5jcelMG+qcLOMl0SM0jSgMkujAOSUXyTvIlzNitYKs5UkZ6lySl3Iq8mi5TrHdCAkwFvgz8NLq7+pCLbrq4HawhqWO+RN+WlStX6kUwfp/o42XPjACf7Tuw4MTfs+yCaW6hbB0sbX/hWPyt2NjrwtI+jDk+5akU5adG0o6ZNVIpoQAt9nO/CnFqt52Wd4a+oUwV7zYV3GqCuoOJqwO3g4orVV9gu6Sq8LHXEoScr5UrUCjcvQFFwRd7lOZtmTJw0SdIVmT6LWiJmithJxvdi+cZper7c3V47HlnefJRrbhg0bpCEK/JYltp2FPKSPizhzXlwLaWXYiy8jXNlFa+ayqBSg4vBAyUtmYrKPalyv1dMTRarqFBRUrRosWMnLJ7HotKBcaCSfCZ79KzlHp8VF5Y3P9+KjpZ7W+HDJ89nP0hXwwDHWs5Jzz13eA6KgqWyQqZNlgNkkILaG8oPyuvCH3DlmcqA28uLV1Chs0MP4hS8ZYTK1XptFYq6w2qAqObPpGUsGl2U7cI0oIWts7mZ0IPD9EoZnLRRKlbZGPff2zzzddSiRLFN0n2SReLCQFkVQ64gkbdJ0fFi6V7GSug1LzlYfh9wMuBBp5JXixuDO94zg/8OHniFeW8x21QHCleulWWDKSn0iTqbsI/VivtZIfzcd2tld9gU2aZ71nbPRhZuRo7GauBY5atVgbE5V5R0yGrJUbGxZUBLBi71UQmwmg53qwK1sO0lddTdEuWJvXXT63x+fe28AKHL0lT7ctS2Co9MWjRp3lIhugUoikiUsCxjWXJFwaSZLo0ZLF7o7YzMfRzYHW6CqMkzqfrG8tbTlZ1nNXWsVNHmJUAK+iMq4lOHwHjCeSkfzfMrYryyhNdqMZD54P5blXIZ8uRFM+io0JrNag6r2qRswCwgBYsU1ew2KVjqmLJSl6S7NJFubfginy+ufwmocr4NGB1fvD2+fKfWO6qbZxcgCnDO4eUeTrdgwmSlHs4brKhJ6Vel9rsioILMB0y+yfYgWufViA9T1jRdvK28sGUd4EoX5k1WdXjDIhdtmIeyeV7eeThxY+10rgzOm2624WYu3PR+NvzYd3snHWzhgsFrFZAApGoxJQiLlC1UdEjZ5VXIK46o2lfGCtTBEVVtuNUrZmqmfCs/HqvXy8Fj1VdfGTwzeODym5a8ALwKlMFd9HAxUdv1RYZHF+6VlSUpmXZJNlpafTp7Y/Pc13LiXZTqoJTaR0ELyjRJEVBdKd6wedMULVM0gKgDdZKQOghCL+SpxMlXNbrOwJtcXWf7wpR1U7wkW9RtcaGpatKySVVuLouVbFaCrIx4Bakw5GIHJ/o806NJ39qXL1Y+q/ROVIJxdcpjIVbemA49XD2cBqQMeb0BUxar9UgecA8JA368i+usXr8ePHb95pvXbz52ocVyoVWj8l7a/AKyC5ddOKQC3LzDqkjUDVpow3QfF9s422PFMoj6D8amgl/kmvuWyvldaaJEy01/OflJ6HCqBuItJ9N18xarAVbpoLxJa6aoXcGgYrCywbyybLCyruk3qt0rbYUlG5asf1XpyKbD64CUDVQ2yUXLKVi8UWknn0x/trwzk2lG27hi8GYbVepu8QLmt5LhR777p+UDU/arZr7llm3eckXH5U2HVB1SRfzCFRdQXDiypn+3pkxB0xUbX8eP5rNxVX4l21fVef0BU9YNVrVEU218obVc62w69GwqONyE+RYu9kgFilYb59skt3E6/yLwQB2+ClMGLfZR3kBFgEoAVQC5MGnDYi2bty3RsWTblC1TNnUtaldtVEVX53UGrhh7ax0blmy9JNFyRMuRDU11m10o50JrFq1YpGxrskhJ9eVYtoHip8XQ07lbhf6x2uPGCqpJZJUeKRznI8/n7x/n1gxS6fNKh5TauAi4J3yPjTeZfPPOWxm+/thbldIw5SVZsmHLhiMaLq8jXnfZBaRVpDaXVtpu1uS1ipm4gJkKSPn3pn3rw+nmEWC1ljL6iz6rGqKWbpw8mf5sPbrcsPJtt9RFFYs3W6jQhDlDhZyqeFPVdF+WNXWtW/KvlblXBVW711DRtGTTlm379bJly5YtGxa/MFnNwJWmne/ASteuPpy483zucbGXAbzXF50mqXVoo8+abVar2IXA8fLQ/FDJKvd5F/COKTomazqs6bIGYg3MG0g0oFa2+riSWtOUHg9N/Yve77be4MfjcPDXwcVrzKv7lv7gVelZmypN2ajb+T696JJavpvwRcZHF59kGmdAtAze6NO6xVs9Vq2ApEGqS5vjo8ufx0o7gFQBqVi0ZtO6TRsWbQHSArhpuA2Td23Zs2TXkh39c3VLXnik+R/wNuB2cDH400DybVt2bNkdEJRdKNuamjZrOrwBRQPyOmR1SGo2rgC32EO5ppuKltf+dP/9Ejjr8+KFk+zjUgcVmijbJoWand48W/n0+Z+jpZ0OqXSpIsA9a1Biv0YtbbsDfl5Th8f5m2y//TFLtj0ylddoW7LpyCaUTVc0sGgQ0SC80Yc5gMs9XDJ5vQgSTbe0vD/7dPGL7USwp1Lw1y+cXNMpQdHv84Yp2pvR8NDsw8Pkdt0qddGFJToGr/eo2tznNdpXZdMUDVM0TdG0hMfeX2b7VVSItiXaShOibQtdKsV4GurYsqlsAtdM0uo4ZYt0DlNbNx78qWaWHAG6pNVjHVMafdbpsKYhex3RzoPi47nhyfDsBaxbHADWA6RtkxZhXSZ6mLeQaEKhZGRrlVxJrX3tRzvaPjweNG+X/LRt0XlJg5uXDL9k29KVuipb+qJliY4pWg27BGi7bpXWo0FfZDKaO4ACOMKwRd/h/aZb6vM6EM0LOwNIbcr/ZDo8VOqe2bwORRvLHpYGEsDhfYA7BmyarGfLvqWA0dFuvqmbiIsr87rOvFepQTn4k8e2Bwb1tUsSfSh6UHQ1tW3acpToOkR2qewS0UG8YZNa3y2km4e3hn6bah61SaEvyrZodnG5S8tqe7TaDtpoWHn/vu/R5GcAty7sgs27VwJRqr+iSylpTA54G3B7dTEwkktT6XyN1rSz6A7064gWFE0klGckoolZs2NloagDXmvjUgMXk+3ToYUvlvd9LbcMRQ+Q5oVZcJR2QJ+3geg5EvhWpycDYye5/bpTNnjTlj1HGqbyHX3tRLyyB+UlOYrPjrJt5XEG9XppKvq+qt0rqIACQAFcabrCdAVQJAdkIAmg7APeArRpsU6ukfjlh+8XWmmbGQbp2tx0peNK6EoIJbSlYzBQd1sdZPz5y5s7yYO6U7cEwNLGwqTCZAIQYRBhYGG48pIcaTjSgFf/Hdx/40Jz5XGoWYUSOK+TCaXpStOrlC4NKAwo+q4mKPqm7LXc2lnpZCowsRvbMqUBeNdgHcC7jgSuMHX71nMlsGUX8NbwzIPhqS9M0oSsS6VJpUWlTSVE0nG4CYX6OUcR0BXpO7LnXpInRvO6PF+t1EDOWv6ac6UIRUoR6BqZqO3QHhGASYtLS6gSENHPVE5v3v/DefEQyr4rgSW7BmvavOfIvkGbHVQDrA0l6MBG8GD5ycxDgHs93DR511Go84TzSnmN2+vsXV1fyl/x5l5T4ptvedqxlRgvlYu5QXmf8R7lPcy7kLWJ4rnfpTUgOj3Zuj9xNxINWRJYAgDesziwKagZ5R5q20q8JpIOktbims8Xnsp30qbyIAAoy7GQ0ovzJmFhIc+wlSW/YjDwpZ2r2r2CCsoZ54wLTgimhAjBhFTEBYbEcpht4H4btlxhZyvJG599mC6eMw4JtQhzKHcpw5RhzAni1BUMCuYI4ghUMS8++fLWxulWDxpIYhObNjaZwFwQLgjjyHYM6BgYW4zZXEAmoa4SpJcXDhUOe0kuE4gJxDnmnHLGGKNEYCRdqAhBSZBkSDIsOBaCCM4ExwRD18LUQdgUwhHCcVAPCXgBLkbnxw7ihxazbG6bDEDhIOES6RKBiUBIQJc5kNgQmcDsRrZCc8vTiJkW6rocYCV9l0pMOCTc1YQIx4Qj779U3cRUMCwEViXBEmPpYgmxdK6RiyXCkuhnOBWMckI5UlJVpD8uINHEBDLtHqIOYhBzl0lMBaq1yqG1QPT81DD7XDIqCaS2hYDLIJHIFS4U0CRW2+q4ArXMzrPZkcBu2HCB6QLEbCVPgSmHmDlMV5wqVtElV5Io3hR7lAjKBFYq4C7nLhO65A4TLhNQk7pJFSFNRH+KuKrKLpfoShKuIFAwpU1L2F3Wb7IeELBi1b6YfLB6FK71yyYxoaAuZy6nmFHMEGGeTKCDAOUOsDsr64u+8GyhlbOVL3ZdSaigruMIzoUQrg0ppkLZNGNYWQtnlHGMJULKVDybcZFSiqqdR6+gQnBxSUwhQgjBCIMQIowII1AgkzuAWfFyfHT2+UlsH2GTENuxeoy4ghHBmFCYUvwwLqgQWHJXkB4H2+d7X4x+ma+XXElcDRsq1dOMU8oI44QzomzYM2NBhBwQFlJblPBKouxcfVv9kCLmXXIiKbrEgyBSEdWwVrIR6hlCsAsdxlwE+4KanNtts/10ang3ut+yOh3YAwgggbBCgksloZIo8xKEMoIJwQgjF+WLuZXwwu7Rpkst4PYcYjGJuSSEQeahVHkW9U9JQZPWzkvRcsm4pFy9dZ3Ub3F5+ZjiV73LBKeCUwV+TrlQxATFFGGGLddyqUsEdanb7rf3jvd9C/PlUs22XK/GSvmUUE6YAgmzsWM4wCaw64C+Cyq9xtjc1G70oG/1LQgQcYRUHyfK8jD3dCk5VyRekha5LqjgRLNH9IWnl0GpZe/pxhO/0ojCqhBU4QsTiamCM6WUUygo4LAAm4ZAEyGfb22x3Co5xHI51n5NmZOyrEuRUuXliMOV63EuOuWF1Tlf2NeEXUsgW7jKLqgyD8klR9wFLoFEWYPHlDYILjmVjCiDIUhSIjm7Ej4X4hVUSKH+wqn6nDYjglxElGQpYsjhLuB2BVxsnGzMBX2m22PcwRhQ4giOJddf1qwIIYWQXEgqhStwB3d7rhE5XBubn0jXso5QTpFIwrSauZIdZQx5kND2TKSkUpKvJEGvaUr9mFASp0RXz3uN6k8wqdjwUMoYc13HdQElFgB1A9Tn/LPB7UC1W+vCruH2LQJsArD2x1xBggipBMl1e8Qoo4Q4rnWeivqWJ+PZKGKWyx0qEVa+HHEFV41RZQdSavJEoQTrkbqtBKNhj4VEmvQPqfv6vcuHFeI1tD19qlIBQ1LGiYNtl7o2tvt2v2f1DqIHzyae58tFy3SgjQjRLk39EmeCUkFsbJsQOMQByDSp7TBkMieai436xk8Tp8DuO9iCxMYcIeY62MYcM8GZshWFiqvaeHWSUtkH9TzPpb48R/SKypTsNXm150ggIrCCqutwjCSlUiGCIOoa2DIFaTM7eLo1ND8Wr6UsAhCHmBOlRy0yLR1loN5PY2wz7iJmmdhIVhIzId/c+qIlXJsh03Ekl4wIx3IZZooQ40TIK46U09FVo5JibTZUu6RBNV9Bhfp1wRlTNicEJxRjptojKpnDXZPbdauxdrI2E5gpt4qYO8Bqc+4I7kqBpMCaXSo9y9BuhkrmCmQyq4f7FVD17wRWtvy5eh5y11VVgkxippo8BJHJhCsE4VI1Dm/DA5YSyTf/pNSjjMzz7krSyg2IASo8m8KMQgIxhYTaiACE+0uB6enFiUI924VtgPuQmS63EHewcFxmXRmrwqd2Mp7PJoS7Pbu9F92amB8pN3JE9fGQQ02sOn6q0dAWT3XP07MJz89egkRbCdO1w1K6mpCul+cIuHrOU47SoQL4tWZTAZVpQszFAlnY7Nm9/ej+1OL0QfTAJS5jFLvYdZHGpYIf5Zhy5BIbKltHDrVd4WJBXIEAAmsHG9PL08lSwsTAIqZDbcRdm1oOtZmkHnHtWK4sU7s9xZunjgHznmpeU9ClEoRkTBKAgct1n4o4nCLJMcXQddVvmcwxKIxeZB74hk9LsR7umxg4xMQca22qJku5avW7nrtEnEFETEiBRUEf9aPZ6MTyi53zfYe7PQcgihgXEELGmBSCYsLIS0+qPJ2qnbIZokn3CzytqSHDa6hQvRTmdWcFJhwjgZRr4a4jUBt2NqLrL5bGYoUzi4C+1XIxkBJSqnrqSsECCeE5P9U3YLqZdIXbsluAAouZ1X5laWMptBuqdasWtQDqQ2bpHryLmEOFyySiXtfz0ol6XxuUUBurKy7tCUp5SUJ17l2qXscaGMyTJpWc6N68Q6GNLcwdlwEbdeO542dTX6aLZ21QM3EXcRNSA1KghjTCwcwU0r1y5Nf7b1iNKJRB/ooAACAASURBVGi/CarB3eUx33DbqkNpQW6ZqId0u6FxrqDOdGvjtTlXXtNTqmdPrpSOJq8KrrYzqhWv1C/U68gjJtGAiERE9Z4hkq7D7ZPk8cLqwkHswIAGU11NwgjCCKp2RlLKXEwcyiHjyMWWjVRL6HIbUpNIF3KrBRqBrZUZ/3T+Iutwy+Ym5I7LIeQOUfL0upH0CuqXFxquaCB8qZTliWsgtIHKvPbQZdK1mAnVgE0NSIRAlDqO07eg4XJoMjvRyN4Z/2I3c9wnBpS2y0zMHCIQuepsaaejBKL1AoWEEBuImi63Ae7XQe0weTAVmo4WzixqG65hYxsx6CDbcU1MHMYQ59p3a7er7RNpg1EmR6XicECvoIJJm3ITEYMIiwgHctviFqAW4HYH9Q+S+77Q1E50wyQ9gDrAaUPcR6RPKWDc5MLiwmKaqLCosIi0XGEC0u/ApitsKC3AeslKfC40u7obaBhVkxgWNSxmQGnhy5kcgNSL18fW166lxaTNVKnmXrgEA2J6RohIm0iHSKiQpkaK2OvAIgEdbkFmQW723Ea+Hh9ffLobWzPcuolaFm7bpOOQLiR9iPsQ9ZiwuSKH6yG+bg+h4JCrZsQAtGPyXqGdmvGP+7fmAe2o6ULUchhA0sLCviKHCJsKNVXA1dQC5mpEqz6iP25xYWpSctPk6L+63pNMQKpet4iwsEd6dgWp0jaZ4QgzU03OhX3rx5GW3YDcsglQg12mSOjRMMImwiZj6suImg42XGYibtqkZ+Me4krauUbKtzoT2vOXOwVHWB5BYSJp6ykBqIfRSDM/KCGXtlaBpwhPKYPS1moalEpfRFpQWrZUZoCFRbiFKYDYcClwGMg2s8+XRue3lgr9IuDKHhA3ibCJtFV9ryRAtF1pGzMJA4gCzE0sLYv2Ddypm9WN6PpkcLLUKQJi1EEVMtMhwMY9zExMgIv7WvJKucrUlbUowpo9cq18BRVYdCFtGU6VSoAF6KFGn3dsYbdJ56R0Ors6tXEc7Nq1nnMBUJMK00Yd021iZmDaR7SniHVd1nV51+UdyNs26xi4pWYDrTpgHYO2TN49Tu+Ozj2OHKwA3LJFr08aXVy3xP9H2Hs1SZZkZ2L/gy98oRnf1mhG4wvJXaPRDNgFCZIgFsRgAVvMAliMwHRNz0yLaVW6qkt2l+jSmZVVqTPjhtYitc5IFVprce/1q1x7vNI8snp2Cju9a3YsLCstK65wP+7Hz/nO96kGHw5w2+CqIwDiAL9v4yHUkdCR0JBQkRgiMUCif25YDDHXENfln/FxTllmmcdpWQ5sLtNwBlMHsFUeZuaCr4NbLlkboi0Ld0zUMlHbIX1IVcPpaqDJhInkE+l4bIQBygBjgMpppAHSHeKmQXvl3tm0++XO2UrHKOukbXJZ5LG5NIcNHaY68m1oiGqEgfdNJ1wbm0q4Kn9g+u/9gRxyTHXIhg5/Z+dfa/OhJR8cANordk+9yaXgulLsnwHWl68XdyHRiFykTPpuHuiIAMLkFxIOqNwSNUhVE3eA00RsYPEB4L1852Qh/Da64+/ZTTkQUp+3D+ULlIna84H4vduTQzMeAnU8Ftp4UM6H5t0n5to7E6ocGjF0RkNDqBofgPGXA9qz2ZCMgE3VSj+jJBbf+l73cacBqj2nqcKuTVXIdJupFpc3+e6t8vHsYipkqoX7DlWhAOO/UW2uA9Iv9TPL8fmF2KzOem2zClgPCc3ifZv1HNR1UJfw4djU89uTCeV3pkIx/J295xXOOVQLlqHoWLzTR+UBb/Vx67R3rKwvR/d8TTUHYKsNCgZpI64ifn5/PQv3LNy1SMeU1hqDERombZi0ZdKew7WmXhxCWaFUcX2Aqytp37Tv6X4+pZE6YK2GmRuwus7bHVgdkqbBug7tObT/zsjApgPrdybhFR2Lty3esiRlTsPiDVuiBrqQnP+vni1fes9ifXMsSz6EDQ21NNLMdg8Cm4uv3I96TPLuWKJpoqrEnrAupF0bdyzYMewOIqqFehbq26jv4AEkA0SHmA0RHzisp6F6H1Ys0TVoK11enXI/3jgODWFFcluNkQUSjSPhGOP3QFo2bkMiv2RsfUj6kPQg7UEqL/ruZ/nL98whHevdm5Tf9juTlyCttpEPrC34Vuczrb0Brg6JLFHrpAXsJiR9TFV552iIqU44gFS1cd8hAyIn69CETeDUDFQ3Uc1kDV2qbrfWTsLz0YmV42DXLhuiq7OmJbomlzYei568z+/Npj2LdUzeMZkstFus/87Ox4j1bTl8XYd2HNZyWNNhTVOyLLcGrAV4R6WNPqoC2rJ5tzY8CW8tTfueldWThpW3xKBv13pm1cA9mwwM2gasAVjDoK2xtQ3SMUjXID2T9C06MGlfRy0dtwDtaKjZMgsnzd0X7keJk0DLKfRpWZNAmBogFYc1iIQCNMb30x7fXtem8kvGN98dTyeJzrJ46z2vACgDcHbMwFUcklxZ26saxwf11cD+sm97MdvZldS/tAFwBeDa0CoB0qQjHcAWQC1AmmOrA1KTuFoqIdaAVDRYM1jHEl0VVXVa7drZnpPtOmfJw+Vp/4Ojeqrv5A6riaGErzb7tNzDJfkYqGqiuk1aNmkZqGXgtkW7BmmbEnTUtljbYA2dlDValArqogxIGTglJP9eTnQTVQ1SM2kd0JpGymfNzZPqekM/jh+4Xin3T7obA1Hs0ZwlqpDXoFwL6hZpGKhhwCZiQ91qmqhrwq78RG0LdyDrIt5zeFsiZGnZEDVNqrXXh7gY31+c9j7M1jarw8OWcTyEOYkLpmWTVgAuAlSQOEjaNnHTxi0D1m3ctEnbJi2HtB3Slr9EDTj+jY1bDm1bqGGiBoAVE0t8NSAlHRVUmAe0rMJ8uhhvgKPkgcudep1tbQKJLS0OScngjSEuq04J0o5F2rpVs3AXcxXS4fgpujbpQ9ZzWMdAVQNVACwAmLdYZYBzPZrv4Gwsvfw28Gi/EG+Ds3xnR1ITkYrJ6haR/mPj+u/MwFWNVDRa1WjdYA3pIawDSNsgbQO3DdIySMPCdUgbDq0YKG9I3fjCkJY1CVltnsP+6vpRZbgfP1icDTw6LMc0VhrgvEYqJm/bvAtwE2DpEmMcV1lOCWl1ncppptO2xftQDAFuqrDat4tdM6fhsskbKikftlIPFm/ET5cLYOewHumZx3JKs7xJcgBlTVK0SNlEVYc2TdQYT6q2XMXGSHBAqgapvucVqrmv2vsGO7F5doDSkd3XyfTCQvLJ2+ijk/a6SvMaObNZkYwaJqk01SMdVyHrqk5VPgNtgPEsBBKLVgKsKI0UB1ZhjPRs2qIJaFGnWZ1lh+TkrBV3rzxdij3crwSnA/ftUU2luQHNqbRo8apuZw1YhFzOVx1WAK5D0ZO3LqGjHTjqGqI+GOtnj9nFyxrMDMEJF23E6oaTB07eJJJcEZDsEJ4kD+aX40+iezMzwW9y/fU2Ph6Osk3ZAlUGJGfRskS/4qpJGhZtG7ilWnWHDwzSkQODJfAJ8g4Z9Wy5NZUNUVRZRpNKLiWDFAfwxJ14thx97E482cu6m9qOBk8smoe8CNCZbh/jUZlLuHHFoc2BmTdwzeZNmzUha0PWMUldc8pYdE3WMHENi64BqwYsa9aZjfOIlwDJDJ2jnnlosFwL7N16/OF+3j/p+vqoHJEdBbwoGxjP2/3k45QgawFcHZhFk7ZN1tacOoAtyAZIRncdg9QAlp1SAOcNktPwaQ8eaSw7pGdVsBvdn16MPoruTk977/edYw1lbVExcRHAnEPLNinbuGSTso4KPZgZkMKQloCQMEqTd1RcB3LK1o3xummSKhVNSIu6c6w7aR2ddO0TwEtDlhuyzFEjljia96w/n4t8Ez+YHqBjUxQAyfWtE4NWkOgAXO/bxSEZN9zzouxY4rJjSeN1ubmxlkabOm0MUVkllZ6V6RunUNQc2ReU77KTjbLniXJ5JbPwJvh1rhm1RxlA0wNrd2gemDhj4Cxw8kg0gF0xSctiLUAl2bvJazou6bj0nleY1r5p72nmZlNPDI2d+P7L+5MffjPzcTT9pqpt1dX1urqq2WndPlEl8U4B0FLPyMgNTpwjhJum5OSrWqOyNSpZo6ItKoi3AKl0zRPVPAP2WdfY65t7A3uvBlKbmZlp//Un85/NhW83zc2hddSxDob2sW6dAOvYcM6Ak1HtMw3mx9OxafOuwVv6u14F2Uw3VocpDMhRz0lDWgL2qWVnLTtj2qfATqvWbktf7xs7K3tvHr75aMJ1ee1kpmPtDu10x94fWkcD51C1j9r6HoB5IlqItwGsD8ySjhq26I3Xv5ZO67KfRFLAV3SWV/FZxziog/Whfdiz9zOtsGan8+3Id28/uXL/75XY/XovBew0sA4N69CwD4F1AKxDTaLQMzarafC8kaMEmMTeDiVEtG6LpiNaOikOYc5mVcjqBiwMzUPdOgD2wdDeHVp7A3NbtfbyrfDVb/7h9pN/iuy8bA03WmCzY+yodrpn7bfNHc05MUixbR33Uc4RHRVXe3bJpG08Gkh/YE2D1XVU0JyMbNORM+Oka20PrP2+tTewDrrWbrrimQve/mbiV2+Ua5qVBvaxah+2ta2BuQ+sI8M61cw0cM5MVtSk8kFZEyWVl3ReG+LKAJWBjLtaDm+ZpGqRsk0LQ/MAWGlgHWj2vmalh9ZR1zroWYe7ReWJ8sWtyQ98W4+LaqxnbxtO2rSPdTut2add48ggNVu0ZBQgHV42M+pSjamqiZrOGzqX7LRD2f9Yk1uonVGtk751WNfWS8NU29w7HgRnYrceL3z0Uvk8XVkaWhuquaGam6YckcMe2BsY6aF5TEQHiZ7mVACu2LyBRMvmdRXm3/OKBeWrZf9Xc8qnk/Mfzrg/nVz66I//7X974dL/eefVz58tfTrju7zgv7rgvbrovznnveWKPDRkG1RD4qt5ddxqc04jKYmMjFHBGuUMntNQBou6O/701cLlxdCdhdDNucDlhdDlN57ffjP5jx9f/9Mf/eR/uPbt37xY+GhK+Wpi6YsZ7/Wp5a/eLl/0Ru+HVp7sHC/JtkNW7dvZBjjp2rk+LmqiMuT5Hj0b8AwYFc1RQaNH2Xpw1nVNCd5d8n6tBG7Ne64s+C4vBC7PBy5+8+qnH3z+Rxc+/9cPpz54tfTpW9+Vt74rr91fKbH7C8E77vjDQmfF4IUWSNcHaci7gLcM0TZFdwxi60HZNVFqOumyvrl6PDupXJpUvpjxXYlsP1YSd9+4Lz56/cGNB3/77/7xf/zkyv/z1vXZov/i1NLHb5Y+nvd8Mef+fEb58rVybfVksarvGKyk84Im2QnqgFZ7KCcjMV5XaUFqL4hyy0oXBuuelacznuvLgeuuwLXlwFVX6PqC59K899Lkwif/4YP/+Ref/tHD1x+8dn0247341vPVa/cX0/5Ls4Ers6EbJ61QlxyNOYRk7+R4U22db7CmaAFaUWEOieoAptePZpYj9+YC16aUL94qn0+7v5hY/OTh5Ae/vf7nf3fhf/3i67+cWv5izntlOXjDFfxaCd+Zc1+bVa69Wb4U33pRBxvq6GwgMh12OmDSAx0JNK71cRGwatc8HVinNi+09a3UzqvXC5/Pur9yha5PLX45p1x5q1ycUD6/P/Xzv//sf/urX/5Plx//9dP5C4vBS57IjUX35SXvzWX/vbfK7dNGCvCSJfmWSrYoy04p2XTVBHJcpPVJ0ZBtfaV0JTTju/1q8ct5//WJpd9OKp99N/+bl+5PLz74q7/4yb/49dU/efD6J29cH00rH0+7Pln0fjXvvjzruhpMPnWHvtNRnogewOeNgTWHt8io19Oz73lFR/WrRsDEsQ5QOoanY3izjZmK6i70lYrmqwzdDdU7tBM6Ws83/S8XvlLZqcpzuqSueUej+z1hXsEY5a1Rzh7lsag19O0p1/W6vlJVoyeNxeP6dFl1NYCnAZS24T6tTXXNoE5Wmlqoa8QbaqgNopWet9j2xra+c8fv9+39oXOCRg1D1Nv2WQdlh7zYZZkGTLdoWpWiUjkgjiv9iCtwo9Ty1vuBLoi2tGBL89WHSkNzdwx/U/fUhkp14C713eWBB/DN8sBf1SJ9sjOlXNk6WTRHBXtUVWGprKbbVl4XDZXXu6jQJYWhKPbYWR3tN9Du2tnb4Oa3XTuRaS5nW0tdO15oL6cLU9WBO1ubrXRdPSPUAf7GQGkMXI2BqzlU2kZoKz//0nutCfYb9kGLHPV4pkPP+iynj6TMZMM+MkW9TU8GImOOSpsFl3fru8PibFP1d0GgB4JdEKh0lqs9ZWBFjkpTGk4UO0un1ekG8JUGSrrypth3VXVfIv1sp7SkjTLaKFsCOz2WGY7KLSfbgXmd14ek3IMZneeH+Fh3jhYit0/qSq7jKXWVoR1tqd5ye6ncWS53litdpTH01fqeSs9d6XnKXU9LD9eHwaYW3jp6mdj9rtSLWpKlqthmxxVrvyvVw6oDWuyi7JDkLV6Fowpgp4f55deLv22ooWrf1zej9bZ3COJDK1kHgRYKF4GS1ZZKwHVUmyz3FptDpdpytYfRUjvoiT/MdVN9etKnx0N2MmQnA5bps2yP5Xus2GPlHisaojkgOcDysd2p6O7zlpHs2vG+E0tX3+YGSo8mqsCdrr2uakoTKHXV1TV8fTPQ1nwtLZive07L3ufTFxva3tDJt8GpCss6rli0iUe9SvvgPa+AdBWSOBcpwmMWCwLiRzRpsljH8hoogdkaYWvAjrV1f0uL+Fa/zXZjifRcEx4NeGkgygNRHoqSKgqayGkio4uzjrW3djjbMrbeKFfy3YBK1iy6ocIIwGHMU5gnCU8aJGTQMJMa7+uYb2p2bGBHhjBqko3d49cLwWunNV+uHRvH8RWT13VRVkVpKIpDURiKfJefFIy1dNOze/bGG72B6A5kW4hvELaB2arNEiaLativo4BJowCHLZrUYBSJTZOttc14j2y8cn25cvQ2201k2imdl2UDCW9qoqGKuvp9N2xXnGXAynZN8W8/WD38zmbrAxjpmP6+FSJ0C5MN1QkZOAZwRIMBHfptGnZoBCCf7ngBi5fN6Ev/FWXryekw3sD7PX6mi5ImSj2R7UvRmXfRoCayO1VPOD2ROJmoaX6bJRFPUb6G2SpAYYCjjG9BsmLSuE2TkK7qKAJw3KJJgyX6dminOBlOv1ivLNfpnsYLPZ5p0zOZxhCNASkNcdESdZ3lKvr6ZmZhNnyjaSc1uu6wNcrXII47KO7guIkiBooOzYBBEiZLmWxFw3GdJDSStNhWprYQ33+wmpk4GYS74liyNPCSKgddRlNjZcDSkGTq2nZdW0uXll3haybZbAOfSVO2k3ScJKZrNl+xxKrO40MWBjxi0AhkccKSFopRtm/QHXfym/jRm82iUtI2gMgZMoKS3fzjCKqqibom6j2WO+okTzox9+rDjfSkaq80dA/i6w5dA2wFiKTJkw5NWSyqY5+OfQ6LIUl1l3DYho7W2/rqw4lPulbalseJhoarKqnK+JzUj0pr73kFYgkkJ2iYi7CNFSqJewNUJEwacngEON6h4QIwYNFkY+h74/nipeticGeihY4Gojj2CjlZx16R10VWF5kePNg+W5j2XPt28oPmIGaKjbbp7Tluh4fpSAoT28xrEi8VUSpiQqwjkkAsaXFJT2bQ5Mrhw28nfrYcvX1QdjeMHSAKKst3cKaJT+r4uIaOajhddLYP+8HI4bMZ7+dK6CIWm4DEho7f4XEiuVbjkAcBVkzixVJhOgxZlPKUg2JMbGl0FfC9J3Mf33l1IbL/Oj9cr9tHA17u0FIDZmsw02K5vih1Rtky3ttsumdSt2ailw6KL4dOQIchzFcBjRg4zMW6QcKQR88pHx0eGAtkBiH3O9xnikiLJO4t/PrrNxcOOsEq2qni/Q4/bbOzMjyso2OVFQvmVn901h0dLaw/eBm6Gko/qQOvgaX2imRKltyYAQP7TRQYGkpXX9SRD/JYF7iAHaCjFYOGaup87PD+/bkL7sOnebjWF2c9ke2ITJvnWiRbMdMt+xTwcgun82piOnzzzsRPCqpf56t0tMFZgrMk50nOY1zEEI0A22uSkAYDUKRskVRxsGP7dJI4rb9dTnw1Ffrcn36aAcn+6HQ4yg1G+d4o36GZDjrtopO2nW4aO6vpN/ee//Th5E91nMSSyyzMUJLjlODrbLQKWGjAvH2maNSNR2EiwogEDcuP6KrFt5TknanANdfG45NubCD3irMBy/RYtsvzbWnFNi90RfaoE5sO37478fPI7jc6TpgopkKvzWNErA5RAIoEHMUcHjKZF/EQomET+8f8oimA17rGyjcvPhzA47G/yUbWIapqsr2pmWns/TOviGEWxNRjWguU+Qx7nvIgoh7CQ8BRgOMC0GVAD+LJbGPm5pO//dnn/+bZ8qWny9eeKbeeK3efK/deKHdfKncmlFsTyteTyo1J5drL5Yuf3Pj/vrr3o6PKrE6TOg0D5je512SKQZYAnLexpJXnIgRREDpSMcxmIcACXdsd2rzx5Z0/u/rg38+Hb7313nq5fPOt/5sp/7dToQcTwW+e++6+CN55Gb71xHPp6tO/+9WlP55c/ACQmMkjgPiJiCPJJR5wqOJQN+MhNoog5rVsN+dRy/IhltJYCoid2y9/9uGNf3tv6jevvLcm/fdfBx9OhZ+8Dj955Lr9SLn1ULn5ULn6LHzzvvLZP339f3/16C8Pcs8QSzosBkXM5CGDBEzst6ifiggbRYkIIe51iMsmy5KRWngA81dh+F/9zX/3yaN/f3fh4+fBG8+DXz92X3sRvDO98vhl8O7dmS9ehW7fmv7oVfjGnflf/8Wv/pcn7o9rmgJZCFEf4ZK6l/IQ5kGbejVnGeKQ7igW8xrEC1mIjuKIR3pgeTb6yb/+h//+6vQvXiVuPnJfehG6PRn55pnv3jPvvVeBb58rd54rX7+N3Hsw/+mXD//2X/7Zf3PYnB+SGOZxhvychgjyYccteJhLduAQgG6ThRwRs0ZRg4dNFrN5aj//5PLjP/v5lf/9/uKHE7Gbr6N3HitXnig3Jvz3Jnz3X8mhvz3lvT0XvPNk+uNffvV/fHL9TxvAo8Ew5WvUDAma5JIVM6JRZcBcQ+Hq0wUNLyLhQcSDcBCROCCp2cDFX93880tPf/JMuTzhvjmp3Hrlvv3SfeeF594zz31p3rsTgXsT/ptfPvjxP335x0uxi0CqNEZtFrCE3+ZhQPwWDQDstpkHcilSZ1OPgTw2DVk0ZpDVobn63dTHGj6RmomSbrA1RDUVN0zeb+vF972ChhDxIqwgLAXYHbxEqBdSBVGPg91Yip4EHRq0WKTQmXvw+qcXLv7pUuKb1eOl9axvPRvYyAQ3M8GtTGA749vOeLcz7q2zpfj+xGdf/+XFez8qNF0qCpssAkchR3ggdyPmtvGiQ1yE+sUopumLBEcQDkIatHkQkODq4f2r3/7o3oufrh/PHBYC22e+nUJoPetfzwc2ioHNQmCnGNos+SIn00+WPv3oyp8o0S8lp+ooCpAb8YAOFy3qwtxDuY9xP6Y+RLwYBxDyQeizSRjwlCn27r782Ue3fjQdurOV927kAqkz70YxslWMhY+VRMadyCiRs/nVouJNT1x8/g9XvvvrvcxjLF0uBoWknYY8qDsKYgEqQpB6HaIgpuCxUeHGwq0TbxPH/urX//KLp3/v3X6xkl9O5JaSGdd6wb9eCSQySuLYtVJUfOnXm0XleeDKP3z1J9Oxyw1dsbEXUTdiHkeOhUK4n4jAWFEgZBLFZm4sgogHEA+wUUQ1lKXEZ3/723/1rfJZND+zmpXfuVJUUjlPMutdLwTXc/7UmWs9r0QPXt95/cGf/cd/kR0oGo06JECgmzgKgR4CPcjxYOQnNGhRnxypUdgZhU0eNHjY4JHj2ot7k3/z+bd/ruw8WC0tbpbc8cxc4mxxPe9dz3lXTlxrJ8rGmWv9ZH4pfPurOz+6cv8vVRTRcZCKJLWDgics021jr8m9Q7KsU5fJ3QZbZsJLuZfxsI3DFlv1r939+NZfPFz8LHk8u511b2e9WznfZs63ngus5YJrOf9azrdZ8K6czd+dvPDrq/9XYPWmI5KOCEHudYRcLAhP6LYLQMWAilwKkWIjDyQBm/htFoV8HVjrL+d/q+H0EJ8Zkr+noVNZZQaso6Pme16BqQ8SxbAWCPVR6uciQljAIV6HehzqpTzEWMSEAd0J1AbKrOeLucD16M5Ex05rUkW3pksFk3POpXOJxEIfprdO5r2pb+8+/Y+dQQhIrwhA4beZ4hCFsIBcApnfwV4mYjpYRjRkIa9qLBvYh0bJw8zLqeVPo5vPjsvBIcqMpY0lRd+AFwY8J/W/R40ezqWb8cDGU3f4RjB2jYp1E8tpinnAxC7I3EwE5HNhL2UhysKUhS3HTYgfswjAMcj3JuZ/+2Lhi43T5To4HJBiDxd7tAR4rWqluyzTJqdddtrGR7uVoHvtyXL0xt7JI0dyYkccFiJCsuFbyEt4kIkwlC/QTbmPjwJ8FKQ8YGOXwyKAb9199cvF5DenzVjD3u/RsyEv9GiuYqUr4FDWXkRW5bkuTEcOXk/5rsf2njSGLkiCNnQb9pKDFUQ8NlKAuYiIn3A/gMuI+hENQOpD0luCQ2M5uX/v2fLnnu2XZ4OUwYt9flqHBx12Ks9gTKZQVV5s2emTWti39ujO039sGREdR23sh1BxbJdtuSEM2JYfADcmYWC5NUuxmR+JkM0DJg/aPJqrvfYlry5FbySOZ8qGJB0cimyXnagiL08yODOk+QHOlAcbW8fzM8rllzMfypgWB4F0tgDnMQAUYCldfaEPluUcJT6LKIi4IXEjFkA0RsV2ZP2bSeUrJfUo31t7RzAnRewLvydDXtBGudN2LLz94tXCp2t7Dw0cAVCxiYK5x8ZeyuPAUhqdt4YV0IALAJcDfRAHs+1lyAAAIABJREFUIA06LIL4CrBSL2Z/o+EDnWUkHZl0jLqUI5N5rcb7XsG8mHltx23ZCmURIVaYSGAWNbEfOG5Ew5TGTCdgOtH2wOcO3cjWfTunywN4MuY4+x3ZjlTQM6VWVVFFJyeVUNfYeTnzUV+NIJZEUkvBYyEFUT8mQYwjDgpCGZonbCRnqsMCmuWycJCItXRmKpT6ttpdzdZTA5TTaEnDkmBP4/k+OdNZwRYNnVSKvZ3jYqhQ9ni9VyjdAKbPIX4uzypBTH2UhTANQxRCOEpolLAIpkHK/ZhHDBTDfM/lvZncmiy11xpqWrJ3iYbOqrZodNCxxnNddAx4XiW5k+rKUTGyfzJ7dPYS07iDIzYKYRblo6SD/ISFMAlhGoLYT8ayevI3NORICaWEzQ6mlq6dVsPF7mrLOJT1TVEZ0ELLOW1bZ7ZoajRvjyp9eHRaj26lF9b2Jlp9DyJRG3oN21VvvVpZ+7LWfLm5cyVbeJg+uVuoPLEcL6ZBwoNj0ZmgCpSdo6exjVeHxWhF3YG8qrFMF6VVljFlRqiijUvyKszmW6lcPbzgudYDMclnTMOE+oba/OnZo7Ozp6XSm+3t+7t79zc2v2523trYR8cyDDYOQBzNFiYPjl6eld1HlXjPzjmjJhDFHjnV5CJVGpCclLBilZaeLjRTGwdv5pWvqNixSdiGARN6h2B59/Du4fG369u3MrkXJ6ffbe/eRjSMpHt4Tey1cBTz7UDi3vbx/Ekl2tIPTV6RvImSpv6ctPdcFCZvjIqZRqLYTsQ3nu6kX0jtAeglcl91lWsv0kf3S5UJn//T3d1vt7fuVatvbCfgoACWB8uww2KaGX325oKG902RlxyTsjByTpMuP/+ZV/gw81u234FhRKKOlJlZ5aM1m0QsFERSNzFGaJyytd4w6I3c6psbTW3bZiWphPQuXVM3ZF5ZqhZZvGTxoi2J7rJPJ3/VHoYckoRypOX9MR7DOGKYPojihCYhjiMWYyIFeRjzKBMpzNcOz6bi688APBtYpxavD3Gh42SGVC6rPXzax2eAli3eNFldt84KRb/HfRXjDdMKyTSaTBtEEQmYtg/hGGWrDow7MMr4CmXSYSzsx2yViH3Ff/vwWDFh3sRVi7dM3rRHLVPyxhYsUdFYVgp8jepDq9DoHxxlXKdnkxgnCV3FOOWgCGMphKVMh2nLV2fDIKEJKTCJg4RGCIsgmgJwd959u9nfHlpHKsqMpSvH9GRcqsrbvKkieRWbl4b2STrjWd+d7PQDiEQh8WMaPMs+fPHq361tXF7buLyw9NNA+Dcb21czuUc6UMYKIUGIAxrw7B+/2jxY7BkZA5eIxFbkgMhIOZiRZObUWcUY00YZOKcZaSV4uzsMWzjBeHwkw1fX2vr1RPLa/v53s7MfzsxemHrz0+TK5UptwoFBJmIODNp2JJN5nU5PdYcbJqnAUdeW6Kb8kGbHcubl8UZRkHSApAJg5iTvXXRfwmKLiISUACfhga64PL+OJq94fJ8lk9e93k/n5n7RHyzL5Rx6bBI05TTYC6Ue5msxm5YdXh9r0pZNqU2cG6sSjxPxMulf7hlpzU6v7UzspV9hvs5EQoiQg5R86dn8wi9y+VdzcxdmZy7MTl9IJW9Wq9PA8GIeleo8PK6ZsedvfqnhQ4sXjDFZnnSM78mz3/cKGnCwr9udazTmHRjt9ZVqfa7eWizVplvdBWD5IA5TlhBis9cPKsEbBj1wRAG+Lwn3vleUHFl9zD18/st6LwBg3EThvuoqVyertdfV6ttK5S1Cq6rq397/FpjBUv1Npf3GhmE+WsVs7fD0dXLjOWQFg5agaKqkqBJZBdNFQWNy/R5KxFHV5k0LlQqFoNd9k5I9hFMIJyu1yVZnpjdYaLVnh6rPshKtluvk9GWzuZTNPzMsjwUDlG9Avqv4vj7N+MWohUXHYBLfYYuWxuVksqV+l5TrRqKBR90BODs8WTxMvzDNyGAQyOff5vKTheJUr+d2YNwwA7XG2053qdVeqlbfNlrT1dobObPRytDYXPLdU8GRM5bDlBI5o6o9aqJRF0pmJImFMXgBixoaVY5z/s39N51BENE4oVHGE832bCD4SWr18snpo9m5n6aPvt3Zu7OydrXefEto1IEhyw7owH+Umd5JK3jUoaM2khSMOVuWCyXjrRxyVgWkQkSLjuq2c6YEbjV7AUhXuVihLEZZ7OT0yebm/YOD57Ozv/F4vpyduzA987OdvbsaUAiNYhxDKHV29mZ3d6Ld20SiJZGFVKrWGxLKMGbmFOUBLpi0hkQDiUqhEln2XsFii4okH61glsQ0FUte2z14FApfjkSurKx8nYhfyeWelyqvBsBFRkk62mbiKJh4lK3EJLukhH7WxlKJ/9wrLFEypTZkcX17cvvwBRVbQqwyFkLYqwPF4/203XYdHHwXDl2bm/m1x/3F4cHjwUDBLA5ZzGEpzUw+n/q1htOWzMWPlRN/2CvCEAeKxVczMz8fqr5ma0nxfKZ4fjv59mee4GeV+hsbBiGOMrbe6QUW3Zc0ZwePygaTur1/aK8om6wEUMkWpVnX9UY/DKnUdDo+fby4/IuZ2Z/Ozf4iFPyq3Va2t7+9cev/Xd++u+j+tTv4cbs3j3kc8dX02VRs7QlAp6qTteTiXT0vMwNRtEXVGdUNXtVIWSNlAxdqtWQoeF+IU0K2hqp7yXXB6//N+uaNg/SDYvFtqTQbjd549PjHbs+nDx7+ZbE8QWiS8HWbbC25rx+deZloQEl1VVVh2RCNIclJlIEMDAqaFA6uENHrqsdb+zMH6ZemGd3ZefDw0V/PzV94+uw/BENfDQb+wdCzsXknmbqquD968/Yn84sfLC1faHeWNBDraeuLnrsqOEKjij2qmKOKVN8UDWfUtkXLFHUkpZKKtighUUmfeXbTc91B2EEJiGKUrg4G3s2tu43mXDD0eb4w0e0u1eoz9cacDnwQRTGJU7ZqWsmjs9mN3QVJJCOa4xx/1pK0s9khy8iSCK2puGTxCuQlwzqeV642On7C1hlftZ2gA8O1+vzBwbP19Qdez+WVlXuJxM3jk6edzqINwwhHHBgjZD2fm9vfn2r1NkxW6Tm5npMxR2U0ajqj2phwtjzERUCrFqvYrFiohF3eq0RsIx6DLAycIHDCB+mn6ZNXa+vfHB4+LxZnSsW3uubt9BcMJ8RGG1jsQH6ohO6nM0HNkdvO915RNGQElQXnRdtR3pDaSGUyKqU2Xm3sPSNig/EkRG7DdLU783t7D3K5t7Waq1SY31x/mD540WkrlhXFLAVp0qGrmrn6fOojTeqn1QxWl+eKH/aKiOX4T0+fzkz/otlcbjSWIvGbiZXbLu9v3f7fFiuvIQ47MIzJaqcXWlAutrSULfIaOgMSmP2OpvP39oqyzStEdGxWef76s+4gZcAVACP19kxy5fLExN89e/bjcOhSNvtmZfWu2/fFnft/sZt+qPg/KtUnbRKGbCV99ia88lh3jodOBrCyOarbo5bKcirP2aKKRmPEodyLKiYuVCoxr+e2EGdCpDXdP7fwT4r7w739+zu799PpJ9XqQjr9IhS6srV1/9nzHx+dPAZWENE1h+4sua8fnio2LRq4omNJGjtGFkhFsiE5s0RZwxkN5xzeavXTm7vT6aPXnG83m8rS0kebm/efPfv7hcVfp9NPavW5nd37ivJRKPzV2+mfP3j4o/2Db8KRy4wf9LT1WeVWXz+05dSvWKNz9vJ3nMc6K0ukGssbLO+I0v6JspOebfdCiKxadtQ0w0JsErqual5V8+rAT0iq01227AQhq5SuULZC2RoA8YOjt6nNGVvUJc07k8Uvc5RX6ZnG8jIgZBI+bEogc1YzDxfc15rdAGJrEEcdFHRgBOE1y1rT1JiuxdVhxHZSmuZDKMH5GqFJhJKMbRULC/sHU83uGqClPswPUd4Z1eCooYt8H2eGJC+9gpUBLVq0kK+Elzxyr5AFTdtjwLBDU4hsDrXoUI3regKABAAxwwgxviJGG6PRDhI7Djv0hB8c56MAli0JyK1JIXNJvv+eV5wvIo4oJDdebu49p6NNRKOGuexADyEr/b4XoY1eL2iClONsAT1pmSuMbWG2AmnKoWuaufZ86hMNnViSBLrxX/aKEOWx4dA9P/fBYOiJRq99efHfeINfBaKXFpVfZQsvGE9gEsNktdcPL3uv1gdxk2d/2CtKFi/botYzjt8uXqn3wg5dt0hsbevm9OxP5uZ/Pj39M0X5ZG/v8ebmt9Pzv5xf/nDR/SuX7zfN7qw8n9HkwenryMpjk2RNVjZF1RzVzVFD43mN502JkKmDMc+uxRuUN9qddZ/nNmeHjG0OVY8/+KnX/9H27q3d/fvHJ8+KpZmzs9fp9PN0+kko/OVh+pvuYFlW68W+4vv68FQxScEgFYM1JIvuqG1LgElJ5zlHVCU/NilYrNEcple3Xu/uPSdkq1yeU5RPBwOfP/DF/MKFvf0H/YFyevY8tXIjGPp82fXLZdeHsfilUvk1Zht9fX16+WZH2wU0a/LSuVeotKgxmf2QyFBaUNGZwaQ+6uGpe2t/ujdMcL5DyArCKUrXBkP3YfpRoTgZjV0uld+kVm4Uiq8BCBCyAlHCtML9oXcv/Xplc9agFcDktmOPSvaooPOcKXFEY6ppVoWibvOC4RwrgVudQcgmKdMOYhrmIqWDYKUyf3o6tbnxMJW8t7//3dr6rXJlCqKoEGtCrAuxncvObm69qDVXHFHXaEVnZVvGThVV4qBzUqhAXr1qj9mgi+XIvHIR8nXEYxYOULaK2Gq5Npc+fpFI3k6l7q6v30/Er6fTj6DULlrhYpNIXbKTYOLJaTGmO0WTNixW/z2vyH2vkiPhORaXCh6prYmdg0k22sY0ZjuKAz39gSsWu3Z8POHxXEynX6UPX+5sPa6U5xFM/N5esfJ86mPpFbz6X9srWJDyEEKBXn9RjNbFaMdGCd0MdVVFNTwOlj5DaAKhVG8QUQLXm2rSGRUAzf1ABCVjJyqaQ+f45dvfDtSUQ1eRTJl5uoNZHSgYRyGMjkabjK8NgU83/a3BAoA+KmI2DtkkeXAyGV55bLM8lKLxNXvUtEfN8ZFIKobpvPhucaIVm5TK5bCyfJXRHcbXKI/31YW+Ou8g/zg8iGIiDxuYJA0zCEyvjXxcKnBuYHna/voo40G8Yo+XjXOvMKVSfdGQ0MMSkGutjHFbajp9tlwozYnRFsLrvb7C+ZaqeQHw6cBL6Qow/bYTsp2gBhTLCdgw6MAQFzsDsD6rfN3V9wyptlqUSSGJix7jx0RVZUUVZTScsUUJjsrHOf/2wUy95TXtCCYpITaGqpJMXZ2d+6fTs6frG1+/ePnjicm/3z/4ZqgqDoxAFJWXBrHd9OTa7pykZB5VHBmnFSypy1iQimdC5qAArWJ5mKmcnytavaCFk0yk2CjGR8liacrn/3J+/jdv316Ym/vV3PyFRPJyofTCQQEhkjLgpKu57Nu9/clWb90WNY1WZA+GfEvneNCqM2oaksq6DkcNMqoVSuHZ5S8cufQkbBLo6S7C1kLRS/GVG/XG4ubm/devfzY/90EicRmYHhP5bRLWYQTADSV076QQMknF4S2LNUxe/X6veM8rDFaweWF1e2rnUHoF40lMfAh7Dctfq89eufKnqdSdly9+9ujBj99M/WJ/74Fphr4/VyQ1M/H8ze/OFWNFhB+MoJiXCr8Q8oQHccSwfDaOQhazaQjx89xREJO47cS7/YDLf62trcBREZDsD3mFyQsmzwN6PKdcKrVdfeBBJGbaHtN2jXWHI0yCL8IacA+BItENPMREkvAocHw2TqZPp0LJhwCeAloEtOzIQ3B5DNDPajLBMs59cdnhpDunpbLf77suxD5EURv5qCzS+xiPYBKyYQCTBOcbmMQdFCIsJETEoUFIUybeWHRfOz7zUdGwWV1DlSGUxPpDktNHMv2nkoyKMw6XgMq2mj44nk8fPXdglItVIg+pcURChEUtx2c5PkLjCIdNxwNxANOQDb2UJXUzOADrC+47Q12K2kgtQ4nqqRiiboi6zisSPsTOpezLliicFoMHJws9NURYAuKgg4KUR7v9uZm5nxydPHjw6M8LpefJlUte/29KlVeURQmNYBIFZvjgeHJ9d97iNUcuIkWVngIhMzZDltVZUacVFRctXrFFEdjyXFFv+yBboSLqYI+DfQ4KnZw+i8aupNPfzS9cuHT5j0KRT0+z3+rGEiIBRMKUJXO5qd39581eSmbnaFlmO2R2qGyMyjov9nEWsKop6gYrO6yUK4Vmlj53+DoWcWC7GV/RLc9p/ulJ9unO3v10+rtCYWJl5bLbfaHVnQKOwkSciDUi9rzRe0d5j+acmqwy3ivGXvEuOXsuwSp3Vw1lLJZPbUys7zxHdFOIVUIDlq0MtIUHj/7i6Pi7eOLam6mfzUz/Ynbmg/29+w4MYhaRmVke1czoc5mZPbBE4Xv5lB/IQVlo3iGLTHiZ8BNZXwsiHkYidG5Y/iaCSMxBiXpHWfZdbWopQM/UHzxXlCwpV5UxRPrp1AfF1jyiyXEtVjGcOcNeoNxPeYjwMJZq1qExdsiHRn6Jj6IhCyf2jydia08cnrd5xRENIKpSLGecVJF5FQnbrMjzDK8CdFaueiLh6zIEZ1HEPCZctNCig5dleYgGMA1jGsE0JOsk3IO5ApnPRnHM9mYXLx0eKQ4pA1QyedPiLSBqupy4RZVmgRSmKcpcM6u3tfTO4duD9CPKo0LmAROEhxzshcRnI7dEZwg/ET7CvfJTmocIv0MjA7C66Lnb0XZNljMlb770Z0s+UU2TOdMylOtr1ZBHi1w649lNz8h6BQszEeIiQllABXPpk7urG18uKz87Pru/d3gzW3gIzCUmQhB7LagMwfLe0fONvfmx8kEFyEaiEyAyGs+eFxPGhaqaLaoWL/TB7rLvZr3ts2mSiTAVHkhkca3TmytVJvOFl+mjb9e3rsWSn/a1t1Sq2QcJk8n0QmHiMP28o6aknA0fn7DPB2JUGPc/lEzRsEdNR9SIqBbKkUXlEuHbBpT1OyxCNvNpltJVF2rNqWL5ZTb/JH107yx736EugBYNpJgshMWGN3bzqLAM8IkldaTqMtUryuOSxbne5Fj2jhdlfM6LG3vT2wcTppOyYNiBbtNeqjVfLCz95CB9L5t/li+8ymSebm7ezOef2NBjOAqACkCelr78euGXGt6GMlM3buf8Pi0LRuX3MrOUK5S7MV1GY5QHol5nbDbz2MxDJEImyfkq51udnt/lu9pUk1L1meV/aK+wRB6KLGD7T6f+qdydozxhEQXSZcJciC5jKku2iPog9TnS3DZTbKZY1OMwedo+PH0dW3ti0zwSMhfRtTO6kHrmY/tPXmHIzrKTYkUJBC7K3QD7MHc7dBEzF+EKoopD3A72yuVQfrodsuzQRYsowA5Bur3suXF85oNSj6Iq2wZ5yx61gZRcKqo0I1V9R++8oqOld9NvDtIPMAtg6h+DxHxjiIfHkc8lr4XY78yFmAtSxSYh4Gy9Xbre6G/avCifRbzT3ZH9ZVJfouyMajLm4QVAs/snym56pjP0YB5kI78YhbgIEeq3bUUDc/3hW9NSVDBnOS7KgnwUQtQDiRtY7qPs5Mb+vD1qWLJslz3fKzQuhflkXVVKw0ihLSQqmnXoi95vdPwAhgn3s5HCuIcyPyYhiMKOI1O9hunuDF4T6hXCD4nLRgqmwVz++X76SWuQMOWqMdZD+k/DIcUyh7iooqLJKkiUMyX/vOsrIrYtHHKIHwoflEgfnyMLAAEH+mzbY1mK7ShYKA5XIHc7IkTFRiB567i0pMJDg5W+94qKIX4nSztWnWTy1Apwdn13+vB4GrNtxtYYi1IWsqGSLz0GhmI6XgiDjhPWNMU0PYxHKQsQ5ic8MjDdb5Y/7DspR5zJQp4UmPxPYp/veYVD5qlQGFeYBKX4GR+XTnkQ8wDhfsyCEIdkFMvWWz3fovtyS02h0VhE9HzNlpWj96p4tigQUbDE4dTiryr9ecTDqjULnGnMl8YX8jIeYDz4/YV8WHiw8NrEY9OgTZL7x5PR1ScOzZORVLrQaOkPe4WoAHxcKC/7A19gGoXER4UXsiVIF0w0C8ky5T7K5ZGJ8sD4ZzflEh9F6Arh+4rv1uGJYspEe1WmI3DNlrIsf9gr9o+m06ePMPND4pHAJO6VICsRYBJq5f3ePIz/zryYxwy0Mzl3uT3cwaKCZCatBphM7auyw7Mm4etjKMB5S+1OemnvaHagB6gIE+6FRLEljEeBRMHMQ4QXEo/hLI7/6cVMLvOYek3L+75X5FQmI6gxeLmgSwnCmix3wjzk5T7YUwK3emoE0RVIPA5ZgHQJUw9hISZhs3ExSggRRUyx0ZLpzBrOnIWWCAsUSy8Oj562hj/oFWNdr5rDa0hUTore6cXPbLoGWcRAboAWAV6UCC7qQxJecL4TBhn32njRoks2c5nMi8VKaOVWtqYAcmzx8tgr5NHin3sFLTm8DlBudfvNfvoNZluEpSDyUxZwsAKsJSGiEPshCjCWkHGmhBf5IVUs7CKjUN9yvV78oGsnkMiYXEYEP+gVkCww4ZY7BnNLl2ISeYZ4AHI/4j7CI5jGMIkxvt7u+5e9Vzr6Kh6VdSyLtX8oM1uyeN5iZ3B0NO36tKG6kAjbck11MSEnDWVyfSLSfc8v5IPcDWV4E3Ro+Py0HV976tCCgUsmqw5x4Q97hYygTvKl5WDwIucpJsObEOXu8b6nYOrG1IdlEBUcf3rH0D0JkSI8xUV6Sbmxm14yUA7gMiA1FZUNKeH1h71iN/1mP/0NJF4oIWgBzHyYeqVXCB/lXsI9Y3MT/jvzIBbV7c3X81f62iEeVQ3JwFD+nVeYoiGbkkke0BwUFUCz2+nFsVcEiYiMFyOf3A2oF1EPYj7CfZDIzWE8g0NMenuQ8bBh+dOZiY39eWfUlHsFP/eKrC5yuiiotKATyQmgwZzFZAQ1p1wZgjjmq4QFCZMjfh7QUh4lcg5F5fcLv42XbLKIqXRIJsLF0su9w8e1buSH9gpz1AC0CkhxfK4Ijk/b60ykCIs48ik8kPkhC6IxHIbQIKE+Qr1k/FyIeywJwl8NJL8+qyomPbN59Q95xVhXjZYRbyFW3didOUhPE7aDSBxhP+NheRXiG6NvghLpgyIYhzDxE+bHzCthV6OAankmF36hw00i8v8Vr0BU4cI3nkZeRAOIhhwacljQZgGH+SmPMZ4gLMHFO69oaSvOSKYUJX3BH6hXlAyW09ARoOmJ2Y9aqmwJoBJx6CNM4lgx8WEiryIvxEIOC9jMa3MvYiFLImdX0idTsdWnkBVVJwtoqQGOftgrzkplbzh8Q4gNyuKEBqDsD/FL92DB8WExhEgYkRCSrVQeGVYxr24GCD1YWL56cOSySQkg6RWAyfzvD3nFzuHb/cOHEjPCEkwkKY+PZ0+UiwhmAcR8Y/Mi5nln1OeQKIA7bxavdbV9mxd1ktNZQecluVHI7EpDZUUN5869wmT5nfTSTnqm2fWYjt+RsJSQxKiLKOVhLCFD8o1RGc2eL4ERyqKMxwwrlD6b2txfcGSmrgp4TmNnhsiOcR/jMiurjsvbRYPmgJmedV0e6DHdlo0NlHvHy1MIU1kTHE+vGCIRIaISKC38TAQlKpFGc7lX65vfFmqBH/IKlZRUXNRQzibFYjmyoFzEYkvid+QxNwhZALIQpBFIIkjio2XCE5MAl/uSRAraIoZHm+7IzcPssuYcW1LirCF5Ht7tFefBszwWG7zmiAYW9Y2dmX3pFbs2jGISkhhQeQAOWU4A0zilSdsK23YQwqAEqvGQw/w2DQIz8uzNzw18CEVBBq7/hQgK0fHbkR4cltsCjUNpMYdJ9IicVTgsr8TXmj3Povvyeb3CoIVxN9l/XsUrmbxg4LyG0s+mPuoOo5ivMZFykM/BHsrDROLSopjGf+9CYYcHEQs7JELYxuHRVDjxCEuei6LF623z9Ie8wkDZSjUUjdwTYo+yVUzDFvQgGqAsTNj5JRKYpDBJyoFn54mEkGFFKTtcWL6aPnYjSVRTNlnTER3ZEPxDe8Xh7GH6uRitjUabQmxxsUZYnLEkZQn5zfJAH5Ene3mJsdEwJEkT779ZvF7trAGSkfV+XtJZST8vffLakBTkXsHytig7onR46t7Ym6q3vJYThVjePOVJypOEJRCJQyxTsYTGGU+NX12CUGnADKfPpjf3l+CoZY+qhgSxnhkiNwbVFQ0x1jtlNalwSXKmfbLgvjbQ44YdhySEmB/T0DgQSGKySsgaIauEpmTymke49MkYJlFK1/L56Y3N7wq1sPkuOvj9Y56MywdorPtIyzYr5svhReUSHe0wsQJZyKYh2aJIog5JyCy5tAQhcUJiRLZV+SwcRGKNjg68kXsHZ8rAPJEnPdb8A14hKzANQMoWLa1sTO0evCV010ExQsIQ+ZiIM550YIyyNc42oJ2ETgKjOEIRRCOYxW0aA2by0aufa86hjjLyXCqPANLZzu39cwUK2NAv/zOKQZSEKOWgFRulbJy0Scyw/Yblc1DEhrFKc9nlu9ZUk4CeOTI/MM4F/efnCl7Goqnj7NT8lVY37uANJMtGAQeFGEsgFEPyKitQXmXFxkmLxCw5paKIxiBZ3T18FYw/gLwgcQpSBVAKNv+h03bNQIVyKRr034fOjuOsEpKEKIJIxIEhiGIYr2C8htG6/MSpcSEyCmmMsi3L2VpwXUufuh1SMsj/396Vd7WRY/vvPJ+gZ955SZoYAskkPXnZgARMcFi8lheWhKYJYbVrNWYPAdtVrpJUUsn/zrkq29i4nNjunjc954zPPfcIlay7Sa4q6aJfUcBqXQCGYvCs2P28E97de+3SdYRWMF5FOGc7sFRtWgnHkRBOC5IQgQEtSKqh3Pm33NvIfe0kWyV5zGFbqgJzA/acnxB0AAANkElEQVS2y8y4wjIkU3LdZArhRwdKLLv+vHS6jN2PhKxisoJxk8gKcVcdlMV4hbhrhKxS9hGTVasmXV4tf96Z2vj8HtXPnHrJ5ErFy7dmRdUzwCi3CMkgVC6bX+aX751eLiOyLm4OCeKmwTNkneBPBG9g/BHjNYSzhKbFwIV9dNf9VS7Mbm29Or5Ys0D54Ldtk8J7hcWUghGdX/qrhVawm6mRqE0lm2YcknPIGsbrGK8TvEbAtIyNEjZJOm7GJuvY3Yllnhxo0o2twrlSDBKuxL3CgKDAyz3kt9a8kzJS4b1iY+rXrdc1Z91GEiFxq7aASMp1VwlZx2gdOx+x84mgjxitOHYa4YzL1iySvbyRfnn9l6vazlfzsIIBEhomRuCsyMsvVe2Nqk6q6rSizihqWFbDBTWc12YK2nRBfaloL2T1xX7+xW87v0Si/3ttb1bdgxpvrpCCm0oiwwcyySFnlhk1emyx4tzC6K87b/fkd4fqpKJP6sUp3ZhWlWlVmVHUWUWdldWZgvYur03l9dfK0atD/fmh9kZaG5VWn9pUgf0KV4dzMe7OCqPKAd7XJIamZ6enfirk5798eVmQpzR9ulh6p2iTijqt6WFNm9O098D1WU2f1owpxZjSjsLbe6/DH/7nUIs5VLfcIwgAO4UN2ruzwrBY6aK8u/F5ZnXt70Zxfmf31d7+64L8TtPDqjaztw9CFfWtAq6bUrRbyqtvVzdeLCQnzm+2ap6K68dVCiffmLx0I44Gu3TyqH7s1IsVknd5SSlKiezTzc+vFHVOUcOKMgukhhUVrNCN90YxounvFWVWVmaNYkRRw3v7b7a2X0q5pxvbEX9WWLBUejsrTA9Q866Rirxjx9NvqtuJ3MSnrWf7yhtVn9SMSU2fVrUZVZ1TlHlZnpfl97I8W5CnVW1aVidldVLR3mra+1z28aeN11/L2xYkDvm5Q21LgnX92tUqLsCoW66inaQWkw928i/3lV/2lWdycUo23sl6WNbmFPW9orxX5LAiz8iFqXzhtXEc1o7CXw4nlWJ0bnE0r69WEYCSts0K8VPVnBWWVzIBnLq4+WUulXu8l58So/e5rDwvKG/yhSlVnSsUZuX8nKZEVJA1q2kzujGjFmcOlLebu28mwz+VnXzZKVYwHG7Uc1YsJR6kco9iyVAsMRpNjkUT49HE+HJyfCn1aCkViqUfJrMjcel+NPVAWp9Irv7dpHuWBynQ8ProFX0yISHegB1cTzOpVkaaxUrp9clY5tmSNLYkjSSyoZj081LsXiz5MJYIRZOjgkJLqdBS6uFS6ufl9L0Pyb/Fsg+Tq493DiOEF02mX9l5BMhuehUyQFukVblhwrb00dnXz/OR0dzai/kPDxZjI3HpoZQbS2RCsVQolhqLJR/FkuNAqTGokUZi0kg8O7YkjWY+PT//tkk4wKFXiG6yI7E3optcK8N+BeyviTWi4ldz/9P2XGQ5lFl5Glm8H1l6EJceZVefpVeeLCdCUbAlgJZSo/Hss83dSNUpOPCMVKxSFbCJmQF781i+cg4RnDVWLOM89oqlrxsfP79LZJ4mpIlEeiIhTcQl0Hw5MboUG12MhZLpJ9HEaGRxJLL4czQxFk+Nx6XxVOZpMvt8V0k6/NiGLUK1yguQgA2k2RxOlbxGBZPqhJccV97XFhMrEwvJ+8vJB9HUg2hyBOIOXpqIJSfiqYlY6lE0EUqkQ7HUSCz1MC6NprKPF5ZDv32ZK9sH8NQBD1Hd4ShWqG5SSHO8qnxe23oVy4Ui8Z8iib8upX4WIR6NNmMRT44nUmPRROjD8v30ykQyNzG/PJJefzW//Fg53jAFajNsVrCSP6KacYfbLLxU1M/c+smBmoxlnkSl0HLyXjTxt7h0L5EOLUQfxFLgmUTqcVJ6AoKkR1J2PJkejadC0fRYNPM4nv2HSXUHMFBPG3lQYA5QxxMU8gybgT2CSpgDOQ0qOly1ed7mhzYv1IBkC9by/UED46aNIC9aECS3Qn4rjAbD4ZrIPFcw90nFXGuRuKo4XLF5QQgq2FCGIwBrjROBiqanVgU1+4etYjFkDQcyT4+ayhutbjEkohqCYBG9SSDX8mSY1cAb/TRNaOnvW9GwBZbPPQPddtLqrWcBCcMtTxEi2nvzDdGE/h31pkgIcG7VblfeN6GdN0QjXrS5YTI/Cn6HismVpqNaAQLThD6w9mJ5eYfLbeFo+UpvOvBOsHQEsYCl5HbN24LiC9JMMFm4FzYEDix+IOKrO9x3oD/GOvzm/2Q4MFrg5Dibn8INQSxbt8vyx1UN7D1yeFF8S0dcxWBIQXClqbzWjL5vjkq4xurgPZurxCtZHPLrIJ0R/HYb9I5ZYfNzyzsVh8wFcIv75wIWa/W7JHo3ArmwyhiQ6+JMzrtcRCJYChx06R0Bwe9Kk4NPxfPVbcH/ExLCTO9IJO736BD8FUDiTigE+X32Ja4Y2NX3K+8K6kvccIIGjQ60/77ygVebFv0gKI0INkLW06IBRxToXGWaJdKTbcj4VM+ru2KRQ/N5u84dswKOTxan2wpU6dM73PJO7PqJDZtQd6kmsve6eXMiwvL8H0IWP+qWAqfKecewTA5UCuLdldAeDpPmkHfYL0GGj99VL0F+/V1xNX7yrxF0V1wNfrn6Nke0HCIuplccTApgHIt9jI4A3fWSOKe4w7EmK/WyaAi1y0StEDjt0vSK10j+tLt4ZcMCVAWOIeywqGNWlNFp1T232NcgurT5hS0Q4wU/78FbbUQDuPnA/3x28cDKHzcTOrSLFuL4hc0vhIizgTj0xu/01v5nV5lf1BoW/U5Bfs8XImU9iA8lqMbPu/zTEuTHpcui+nmNt2LRKnQHor3mrMbPekS/h7hhA9Tbona1fd1+qPxZxS1VcQnzrzV+dm3r4eXn32wNRg47ERa1lD/vmBUWvbLZdTdIR7OmjOrXgm6a/JvAk77G9TKu33SRD78SyAMrfZSQdh7UrB4kDnBehqBrDL3d0dy3pSwutXizzTBSbkRXQWqD6B7ifq+gvsU1UHLKTbicIJ+DMq16UWg4reWfPsQNb1HT+eArX9B1mz4tcJl2JbvLZRuANa5cgHEBMIYXbyeq6NTlVeIr1jYMOmaFAP4CZKRAcgGnyxyIXADmCu5tuHrSQwchyBTI8APwgWzxG/+HCBogUkMEomsk9CVu0OjQuukGjzcQN4zagCRmuoBFX61al7+8Gq+RG4BoAxywDhM6ZkUTPK+FotdREDiFOJB//4uDXyVNzMWOgkCC7FCprWckIOt94Pr+uQ8w2avPwPrhBAV29f3K/q1ob/n9Pv+9V9v17LM8RIB+YCPxkEOtsnX9j1dPHWK5HFHug4zefrFjVmAPI+YQDzcJNQuYeMTlbhOeFFDNO6mBzewjNLc45Yx47qDkcuoKUPtuTpsg0C0RogBY8cRDgxLllAHobbDyQfXM5WRQKcRDAqK3fykeA7RoPLAgjgcX5BGPDhwgjwY55/sG0oHN8RDgc/cI0DBqi3GFKLZQ7bp6839vXtjEQRS7MAw6lO+YFchFFrIAYJsLmO0Ozij3BxBgo3dTE1y6gTzu/wn48p43MAF2OqB2B1KQIM64J3R2B+KMA8R6UIcdVrQ14IzDDByQqFfnLvNcBnb5vQlAeTCQelCJXepg4l8FwGeA+B5SUJu2vazoqB84Op5HwW8dnfzoT4Ed3xhXA3iPATB2cICGUNtljFBGKK056PLq28zcnGU7hFLqcSbQvFtWdM4KjBzs8Dpvktcs8BZs/Z+4wNuR0vsoD23UQIIaUlzKEKbM8zxeFxjonDLPpZ5LGXEpcamDADideXCVCdR14XxAX++PhjanAXv//xLZYVz3RynGPPA2Zbxq2vsHhb39w3LFZJ6HCaXMa5fSMSvKlbKNHIRxDyII/YkJEzQoDWHOoCKgPbZtRAi1bWLVHIwpZRxj10GEUs91PdsmnMMkqdUQJgxjWqsh20EDm4P/xNFBg0fHd/UQMerxFdtB1Wrt6qpcKGgfP25izEzLodQTgWCtWwHn9Y5ZIYuP3uujGbp21EWlrpruNv3U/O5+9KI+KAWY80NVB5aiaYaqGEdHp0XjpJDXSkdnlxdXF+dfqxWzzuuMepbpXH8rG3pJLuhnp5e6VirkNUXRBzen2IzF73bmYJ7pU9zArtO1lkXtcelTXPtXoFzIa7s7h1+2dzc+bWlq0a4RRhmj4qG2/U5xZ1Zsbm4uLCyken6kVCoNlMx8l/fToM9++mwm9PF1G4I3zEmnkn2IG6L/VHp1dV2SMpHIQiqZTku5aDTx68bW5eUVRtiuOaXSSS67Njk5nUxAy0hkQUplMplcw9tDSAwIUB/W9WN+so9+YIQENRvCkNZXAixqH4R9Dbl4PJlISNvbOzULMcYYrTsO9jwOT7XwrlBvUce9wnVdxlj9v58/1AOcc9eFFwrP83wPV6vVnZ2dlZXVg4ODvb2DXC53eXlVr9cxdv1mWDzq/qFa/LezOuccIVSpVBEilmVxzhmDuBBC7gz7jllBCDzg/sd+blcJ2p8Rv1seztZBBTWkYIzhF4pS27Yty5Rl+cOHD/F4vFwut/RgjPnNRM2Qglq9/fkK/06LCCEIIc49WHbygHPOLcuilN7eJsT9on1W/BMVkpRqyHIiwwAAAABJRU5ErkJggg==;" vertex="1" parent="1">
          <mxGeometry x="369.41999999999996" y="-551" width="63" height="44.8" as="geometry" />
        </mxCell>
        <mxCell id="1Zp0o188tNxIGdORWYWi-4" value="" style="shape=image;verticalLabelPosition=bottom;labelBackgroundColor=default;verticalAlign=top;aspect=fixed;imageAspect=0;image=data:image/png,iVBORw0KGgoAAAANSUhEUgAAAQcAAABkCAIAAAAE3mKwAAATrklEQVR4Ae1dv4+bPBj2H2AJCZWqElIkNhaGtkO2LFmYMjDSbrlu0WWIdHdTpBsjZWdhzBYp/0CktkumTMyMiJGZ9bvm1We5tgFjIHfXGN0AObDNYz9+f/h9DSr1oRHQCPyNAPr7Ul9pBDQCpWaFHgQaARYBzQoWEX2tEdCs0GNAI8AioFnBIqKvNQKaFXoMaARYBDQrWET0tUZAs0KPAY0Ai4BmBYuIvtYIaFboMaARYBF4Q6woqg+21fpaIzAkAq/GiqIosiw7Ho/b7XaxWMxmM9d1kehwXXc2my3vl9vt9ng85nk+JCC6bI3A1SM+8jz//fPX08PjdDqlKYAxNgzj4weL/zMMA2NM3+z7/nq9Pp1ORVHoPtQI9I7A9WTF+XxerVZEIGCMeQJI/kJI4nne08Pj+XzuHRdd4C0jcA1WHA4H3/dhsq8SCJJ8YG4zDAOK9X3/eDzeckfqd+8RgWFZcTwev37+ghDCGH8SaUfMKFe7/PTBAukxHo9///zVIzq6qNtEYChWJEkC8qGLptSWJMCNIAjSNL3N7tRv3QsCg7Biu92CfGg7rHu5H3SqKIp6AUgXcoMI9MyKJEnAudTL+FYu5NMHCyHk+74WGjc4pru/cp+sOBwOpmkihJRHc78PIoRM09RWePdRcmsl9MYK0Jr6dTF1Jwk4qeI4vrV+1e/bBYF+WPH08Ph2RATDJRBfm82mC0z62ZtCoAdWLBaLN0sJwhCE0Hq9vqmu1S+rjEBXVizvl2+fEsANhNDz87MyUvrB20GgEyvAliDz8ds/QQhpG+N2Brfym6qzYr/f10sJwzBM07wyVYzLUVMpQkh7pZSHy408qMiKJEkgytWyBFGuHz9YhmF8/fzFcRxYUxt6hRtqQQi5rvv185caVxgY33od40bGt9prqrCiKIr6pTrQ4IuiyPM8TdPdbheGIQzcmllc4V+wWocQ+h5+2+12aZpC5hJYO1WRV7DAp4aXfuoWEFBhxWazqdedEEJ8dHeapuDArXrWNE1IpYBwJnw5amZ9oNnTwyM/8f/++QshVMWKj5eV7+12ewsdrN9RAYHWrEiSpGpYw2QPKkpVU9I0/R5+gygpkiZB9B/P83zfD4Lge/gtCILpdOp5HvkvnABbEEI/7u54PkC9eZ7btl0vfBBCVY9XNV7t96IoTqfT4XCIomiz2Txfju12G0XR4XA4Ho/XaYZa42/zqdas8H2/3kjAGPu+X4/m8Xh0XXc6nW6328Ph0DgsiqJIkuRwOGw2m/F47Hne6XSqr2IymdTIGRAXYRjWF9Llv3me73Y7OuUQLDHzcvAJhrPZLI7jV8m/BXgT7pBJdezybBd4syzj2vvnhy5lkmfbseJwONRrJjDanh4eSQWvdQISqVFcDOGPKopiu91CsIlt247cYds2CMOqrs2y7HA47Pf7qhuUoY6iiBHIcCkTELBer4XPDu0BJ3AxtfOquwIs7VjheZ5hGDX6OrBCBk2FtrZ6RGZ5UUastaq0LMskScbjMUJoNBrJ0eGvu140Q6G4YAZuGIbC29q2Fu6Poghj/Fc7HMcwDJl+XK/Xpmkyz2KMh2aF67o8whjja7MCBMXHD1YjK97CErIMK4DDPYqL0+lkWZa8fGAG02g0cl2XH9lACXoQGIbRqKby5VT9olnBINNCVnz9/KXeogB1BSG0vF8y1Vz/UkaD+nhJbQ2CoJfmpWnahRKO45imySuf4DmgKQFcQggdDodeWq5ZwcAoy4rz+VzveiIaPMb46+cvTDXXv6xfyyOthRWPRnNfpv2+71uWxUz//OVoNLIvx+hy0DcIB/rpdEII0bfBuZBCWZaFoqM+MlKzgulfWVZIKiREXMi4L5im9HiZpqnk/gnAChkFur55cRwLxy6M4NFoRLYjcV13cjnG4zFtMoJHO8sypqIaVvBjHV4cRBZwz7Zt0zSn0ylTLH2pWUGjUZbSu6RBXhuZYmtOoHd795Mw7a6/hJFUb//AK3y6BKfYtl1fYP1/i6LwPI9Xcsik7jhOFEVVmKRpejwenx4eZ7MZX1FRFLxUgVAa3iICLY5piW3b9UaIZgUDu5SsOB6PMuoTjEKhGsDUeoXL3W4n02Yi3Lr4LiBQkldyHMfBGC/vlx0lJwgiMtZHoxHGWGgOaVZ06UcyLKVYIZlqB9rIYrEgpb/uCQRf1Yg18i+EUBclKgxDod8JY8xbz2qYxHFMtl20bXu1WgmZpllxPVaMx+P6dWJ6ePGasdo46P5UmqaS4gJjPB6P1WrMssxxHDKRE4lh2/ZkMhGOXbWK8jw/XY4a34BmxZVYkaapaZoyOvobTHaTz55FSEps8gMaIhEJGcjJq2iSmhWEFXmen8/n4/G4vxyn06nKruP7tHkoNMaf0oKiZhrj677CL8Sh3MhqYZyvTAshuIOQAU5Go5HneX0tP0dRFIbh/O8jDEMG7TRN4zgW6nKe59FPh2G43+/J2w1tbZ9Op8Visbxf0n+LxaJqvQU+3kDfvLxfPj080oJXuLZtmiYwIQxD13WZ8FPTNCeTSRzHdDkEBPqkmRWwsNo4qjDG9e4/utZrnluWJSPrEEL0QJFv4WKx4JcpLMvq0b6aTqeGYRBPK5yQpMI0TWEQGJeD1+VAwaPdtQgh2uCpYoVMsP3z83NjxAdkMlt/H1WrvUVRjMdjjDF9O58rJmSF4zhABtu2hTiAK3w8Htfr+c2sqM/goQUFDbT8qBr6TlCiGlmtrP4FQcBPzxjjHrf09H2fr4KwAiJxhIOAkWDk0jRNeq1DyIrRaDSdTpf3y0X1sbxfTiYTvm1MHJSwfMuyVqsV3/tFUQjLNAyDHspVrJDBwbL+5IrWSIxmVgRBIBnoMXRAGI+gzC+Ssg4hpBBYDhMb3xMIIeHu6EVRpBIHo3rJsIKMeJkTGVY4jmPbNj1hC895SoA/mh4M12SFzOtDcE1Ndzez4iULQpIV/KKSzKgd+h5YTGiUFRjjyWTStjF5ngsnLYSQ0LZbrVZM5LPwkmnJa7FCcoTxt72irCCNgaVPfsIiNyCEqrJ0GlgBc6GMW7amjrZDrd/7ZXJCYPsFYbxqfWOqQvcwxowpDOUs75e8EUL6CU5s22YsNBlWEKuDKY1ckhtAt6bVXeFcTh5UOHlFVti2DUa253kQU8MHycMbWZZVFcbawIo8zyGngtgPVSfvnRWmaVqWVc8B/r95nvO2pnNJTrgaK87ns39J6w2CYDabCWdH13UD6pjNZrvdjrzOP8MKmFDiOE7TNM9z2E+jKkQN/IRC66KZFa7rSsqKd61Bffzwx1VFBorkSZ7nhmHws+k1ZQXd1B7XK/iXkv/ltWSFZVm0RU6QqSKGaZpCRbdPVqh5NknTBzoBRBrtCmVWWJbFT89VWyUMoUHRuFWxglHJ6EfKsqySFaCN4NrjTVnblmUxjgp406IohPEHxI/HANLACogGlZQVMu5tpvorXMI+PY2sMAxjNBq1bU+NtU0WWekyF4sFxpio+DydwPPDDOJ6u4Iuv0dW2LYNi3276mO/3wtjwF5RVghZUZblarXiLTqmnQTJZlZIBkEhhITuZ1LTa538uLtr3IEBrG3P89o2ssYzK5SccRzPZrPg/0M43Nta23Sbe2TFyy4kMtOczCqeUBYNsV5RJStAHvK6btU7NrCiLMvZbCaTwYMxFqYH0H32Kudg+1Y5CcjvyjsbCCdL0zRlktchIIXR198OK2TiiGV2M3gLrIjjmHdGmaYpfMdmVkA8dqMGAjnQVfLrVfhQlmWWZZJhswghtRgNoWi2bVtmjhDm2WlWKK9t18iK3W7Hs6JqH5NmVsCGPzKsqLJdXosSZVnK5x4hhNRiNISTEOTKCf0bNBqaFTQacN4l4qOGFcJuUtegJNeGYRcZtemWh6avXxp3OiQalHLgN2wxymhBVRt2MO+lWcEAUpblQKyIooi3KxSt7bIsQfeVkRWQiyd0GPMvf4Vf5LOOgNLCdbfGdoLBzTsoR6NRY3S6ZgUP70Cs2Gw2/Hpr1VTYrEHleS5psMLYokMJ+He+5i/z+VzSqICWK7ft+fmZn4fAQW4YRo0edTVWvO5uBkJr2zRNodNyIFYEQSD0zApDoZpZQdxQRNmoOgF5UhUYpzzm1B6EZKmqpjK/wxcw1CqCXTRN0xQuPoDEiKJI6IcQ5vF1t7YZdQ4aVvN2wlFbZYky5Sj7oGA9hCmtiwYFG20Jcc6yjDe14X6hgiDFCgjGZkZS1SXG2HVdYXgJD8FAv8DimsziI7wFQoiOC1Jo1Wq1EooLkBiwG3kQBE8Pj5eN+p+fHh7n8/l4POa51IUVWZbxuhyEdtcsPgzNCqH/ZzQaWZbFpOO97Ge13W4ZVsOlTH7Fy2L8drtldPiiKObzOS8obNuuStaXYkXjNysYhiCEhPuyKIw2hUeKopjNZpK6E5FvDJRt663a04DuYNiwzLwckKvAU6Lj2nZZllU7U0GyJKR6/ri7ox1uQ7NCKBJJhuB8Pl+v108Pj7Dyw0/q8qwAVd+yrCAIVqvV08Pj8n759fMX3qIAd4hQhWuxS5pk5CyhBxBDKM7aDrhW92dZ5vu+JCVgJ2nl9TumYbBrFk0DtfMusqIsyzAM+XkRWkKyiOCbOKT9Q7MiyzLhRm/QKkghhgRa4TQBt8nICgI4vCnEQVeVWRPlLSUrYMFcfqgRtcTzPGFKGumPfk8OhwMsFBByNp6A36yj+kTeArzYVd1A+qz+pCMrZMjJpJUPzYqX5VShDlOPA/PfVqxgnuUveZBJJ7aQFXmeC1nBpJIxnxKG/I+aT3XRTelyniRJEAQIIXlbAggD27/2aAX9/vkLYywU2Xzf8L/AvoCMvisMl6pZM/V9v74B12cF+Pfl5wsIoKTxaWRFlcODLgTOwQVS4xuUlRVlWUKYHT37IoRIUnySJM/Pz/DBO/oecHrCZ0v3+32P4++lSfCVLfiKikwaLdMwaJtMwFIrxuZ5vlqtwMKu2myC6Srwh0DI9tPDI6N5TqdTKIdkXUK/ViW0wBIKxrhqFApZQRcO5BTGCDFQPD08Qrgx/ThCiM7bhkdAkAqdAQQNMMFB/QYzgxTLpKyAAUb/N4oi+IpifRWWZdVMKNDUFqzgbW4w4GCg53m+Xq+TJKn66DDZnMf3/c1mA1+yYrqfQZy5hNSq8/m82+3W6/VkMgFJpcYHYEhVIgRTtcIluFNgQMNkAWouqLxE8QUmOI5T8128H3d38MEXlzpg76OqhhVFsdlsYBNOkF1kLwLoCNrQjOPYsiyq7D+ntm3TFnlVRZvNxrZt5lnLsoRK6fl8ns1mIJ8BDdIq+NFxnPl8Dlr3brcjEs913Zd/0R6RyWQC+9xA1aZpwjiM43gymZimSd6ahtowjCAIaqQEvGYLVoB2yOhR8OF3Mmmdz+ffP3/VbIDw6fIhFaJ31a8uMT0ByR7kWYjk/dT07SVePpBfmG2RmOr6uoQtx6MoehECP+7uwv+PH3d3Tw+PcRz//vmL7m9hvRl3yEwoRVH8/vkLql5cDqjxdDoxQpsr/s8PwpYwP774Pds+myQJzGsEjcVisdlsjscjU2mapqRw5n2Zepn/0lXA9nBPD4+73a6RD/B27VjBiwvITCASEybyoihkdvb/9EGcT8jgTl+2CuIgo194YlwO4SIOXaM+v0EE2rGiLEswHvhxRoeUxHHcGKz6olTUrCvV9ITkBul8C5lflBtQ0zb9r38DgdasqFo2NgyD5JKHYZgkSf3wVVbohfKKGfGNl/CZMkaL+Dd6VL9FdwRas6Isy6qPvDBq+ul0AmKA3QMjFVy3CKGvn78oD0rGtmnkAH9DzQpOd0x1Ce8dARVWlGUplAN0JDmYFqfLAXtyEiv54wfrx91dl9U9yJqQCW7n+QDeWBmf43vvWt1+ZQQUWVEUhdADS380CETB+Xzebrdpmp7P58PhkCQJLDJ0MXMlNyiookQrx5cysvrB94uAIivKskzT1LZtei2ZRNrR/q80TdfrNew6DHpLlmXfw2/0PW3hk9xmnGcFRJ4xXry2tev7/3kE1FlB0vRoYsCeBo7jCEUB441WBldNVrwk6WKMu7BRucH6wfeFQCdWEMubD38ajUZM6HyPuCiwApZOhYlXPTZMF/VvINCVFVXEgFE4nU6FC4rJ5VBGsC0rNCWUob7NB3tgRVmWkFZCxyNBIAYMRwhlhUgeMEWUN1+CTmrFCgj7Ee5veZtdrt+6EYF+WAG5yxCLJgxMMi+HYRhw0nH7TdimQMYzixDyPE9o5DRCo2+4WQR6YwXEdX8Pv8lEQFV9KVCyG2RYYZomQmg+nyuvFUo2Rt/27yHQJysAHdj6oH75eWhWwIohH+L/7/WffqMhEOifFaBNQfI047QlCwjDsQIsGQjEGgIvXeYtIDAIKwC4/X4PlgZsGkCbAR2tbeGG0MAHz/OG8wjfwoDQ79gib1sNrKIooiiC0CNabvTLCvAy2bYdx7G2ItR6Sj9FIzCgrCDVFEWx2+1AbkCuJp3wTW6TP1neL0k54GUSfkJFvkB9p0aARuAarCD1nc/np4dHz/M6uobyPA/D8OvnL5ApTsrXJxqBXhC4Kit6abEuRCMwNAKaFUMjrMt/fwhoVry/PtMtHhoBzYqhEdblvz8ENCveX5/pFg+NgGbF0Ajr8t8fApoV76/PdIuHRkCzYmiEdfnvDwHNivfXZ7rFQyOgWTE0wrr894eAZsX76zPd4qER0KwYGmFd/vtD4D/KmW8aIpmnnQAAAABJRU5ErkJggg==;" vertex="1" parent="1">
          <mxGeometry x="340.42" y="-485.44000000000005" width="118" height="44.87" as="geometry" />
        </mxCell>
        <mxCell id="1Zp0o188tNxIGdORWYWi-5" value="UPDATE STATS" style="text;html=1;align=center;verticalAlign=middle;whiteSpace=wrap;rounded=0;" vertex="1" parent="1">
          <mxGeometry x="448.11" y="-581" width="100.5" height="30" as="geometry" />
        </mxCell>
        <mxCell id="1Zp0o188tNxIGdORWYWi-6" value="INDEX Maint" style="text;html=1;align=center;verticalAlign=middle;whiteSpace=wrap;rounded=0;" vertex="1" parent="1">
          <mxGeometry x="359.9200000000001" y="-581" width="79" height="30" as="geometry" />
        </mxCell>
        <mxCell id="1Zp0o188tNxIGdORWYWi-7" value="Backup Script" style="text;html=1;align=center;verticalAlign=middle;whiteSpace=wrap;rounded=0;" vertex="1" parent="1">
          <mxGeometry x="256" y="-581" width="79" height="30" as="geometry" />
        </mxCell>
        <mxCell id="1Zp0o188tNxIGdORWYWi-8" value="" style="shape=image;verticalLabelPosition=bottom;labelBackgroundColor=default;verticalAlign=top;aspect=fixed;imageAspect=0;image=data:image/png,iVBORw0KGgoAAAANSUhEUgAAAQYAAACYCAIAAACJTNDsAAAMZUlEQVR4Ae2dXWvc2BnHdZfb9ivkM6yvehcYfJlkwrC56UIvmqiXIoENVFAMFbsEQ9FVLjqbhiUrAqZdj1/wbmjchap0Miyt4m1RWMcxozi2R/KM5syLj5N4oZk5Xe2MZ0Yj+Zx5/x8ORqN3PXp+fv5H501600yU0uNmqtVq1WaqVCqkmco/Jh8JFpgcC/zotmXmxpVKhTl2rVar1+vHx8eUUub8b9++fffu3enp6Q/NJJ2cnBwfH9frdQYDIaRcLvu+XyqVis101ExeS3KRYIFxtUCLn3rMdZkbl0ol3/fL5QYh1Wo1AOPk5OTNmzcBFaenp9Lx8XGtVmMxgZFwdHTkeZ7ruoVC4bCZDpppHwkWmBwLMKdlDlwoFFzX9bwGJIwNQkilUqnVaixcMDBYrJCq1SohxPf9YrHIYCgWiwFSkxMncaewQE8LtAofBkaxWPR9n0UMpqMCKqRyuVwqlViIqdVqFAkWmHYL1Go15vClUqlcLgfhglEhFYtFz/PK5fK02wHPBwu0WYAQ4nlesVg8Q4Xkum61WmX7srI5/sICs2MB13UDKur1OqVUqlQqbezgBywwSxYol8sBFdVqtV6vSyN//Fw267kupdRzXdM0Oe+HEJLLZgkhlFLHcSzL4jwhDp96C/i+73leqVQihNRqtVEiQQhRVXVubs5zXdu2k8mkLMs8L8BzXVmWU6kUA2N+fn5xcZHnhDh26i3gOI6u64eHh0dHR77vVyqVUSJBKbVtO5VKUUoJIUYzcb4D0zQ1TWMn1DSNP+xw3g8OH38LGIaxu7sbyKcRI2GapqqqzGpCPNgwjHQ6zU6oKIpt2+P/SnCHo7WAruv//c93BwcHnuf5vj9KJBzH0TQtnU4TQmzbTiQSuWyWxzqO48iybBgGE07JZBJlCR57zsKxzGf++Y+/v379mgWKESNhNRMhxLIs27Y5PdhuJsuyghMiSsyCW/M8I/OZ58+f7+3tsRLFKJHYWMukOxJPoGCq6cwpHcfhMRmOnWILOI7DvOX+/fuO4zDtNEokptjWeLSJs0A+n2faCUhM3LvDDQ/EAru7u3t7e4VCAUgMxL446cRZ4OXLl69evTo8PBwsEvae/2TrUGB+9e8s+dfXAvPEvTnccFwL5HY3o2SGxMHBwWCReLJ1uLC6++nqtpC8sLr73Z/TnnG7tKQKyZ5xmzX9iGtl7D9BFnjwdOHz3Cd9887ODithx0ZiYy3DvmyapplOp8O/5zzZOhQCAzsJQ6K0pB4t/U5IBhLD8ezM8gprxraxljEMgy3zXDqojTUMI7O8En6qB08XHubu9s07Ozv5fD52lFAU5eLFi6w5naZplmUFdc9dbwtIdDXLTK2UZTmRSHiuy9y3tXnBOexACEkmk4lEglKq6zpr/bCxlgk5VUQkXrx4kc/n9/f3Y0cJdjeKouSy2Vw2yxoU9bohINHLMrOznlUPE0JkWWb1AIZh8Dz++5bOiqJQSpkrqqoa3pJtsEjYts0aqyaTSYZpeNgCEjzvfjqOtSxL0zSGhOe6qqpytlHILK8wJcYajCaTyXAlNkAkWDNaWZY912VtkxRFCS+eAonpcOtzP4Vt2+95UBTFcRxFUXRdD5cVfS+Uy2ZlWdZ1nSkoXdeDckWvYweIRKOvqusGRAYLvW6FUgokQowzC5vO4TPhZmEeyHyPnTx8f0ppRCS2t7djlyUsyzrTfCidToeXbIBE3xc23Tt0tjrTdZ2nLSYLC61+yCJGiBkHiETIVXttAhK9LIP1Q7MAkIhRZYF6iaH55QgvBCSAxAjdbxwvzYUEGxaAdaoQ8ndp89mY1157rjs7YxYN4kk3V//06N7HovJn+o18gYjNvEiYpsnq4IT8HX8kwj8ij+M/vTG7p0f3Pr51RbpzXUy+dUWyvnfsPV9gBhIQTkOF5tG9j+9cl377SzEZSMRrIYtmf0N19mgXAxKNdk3RM4RTNL+a4L2ARAwectkskJhgZ49260ACSETzlJnZC0gAiZlx9mgPCiSARDRPmZm9gASQmBlnj/agQAJIRPOUmdkLSACJmXH2aA8KJIBENE+Zmb2ABJCYGWeP9qBAAkhE85TQvWzbXlxc5OyFHHqF4W0EEkBCgLfJsszGOuHpcingPkScAkgACQF+9H6eJEVROIczEnAfIk4BJIAErx9trGU0TXMch42FxXu6UR8PJIAErw++nzdMURRN08IHN+G9zLCOBxJAgtfXgn58wQLvGUd6PJAAErwOaJpmMGBw+LjrvFcayvFAAkgMxdEm5yJAAkhMjrcO5U6BBJAYiqNNzkWmH4no/aqj7Dn+HU2Fj+NE1yX6WFBel2ju14MYfEnUOSml048ExnHi/QctEInHDSR472fAxwMJCKd+LjYKJAzD0HU9kUgIaSFCCGETQbBpfsIfGEgAiXAPoSKFU5woYRiG2HaEqqpGaXICJIDEOCLhOE4ikRBYy2FZVpQQgbJEPB5mdBynUQgnsY0I2ZxXuWy2H/2N7YgS8agY/y9O4ltVDB0Jx3FUVRX4IH0nqm1FBUgAiVZ/6LY8dCRs23Ych01+IASM1hN2e8K2dUACSLQ5RJcfQ0ciqCAyTZMfCUJI8CE+fD5p9uxAAkh0oaBt1dCRaLv60H8ACSDRz+mABMdcE5hfYhrnlwASQCLQsp0L+OLE2d7JX/+FbegC827u64OSIzB/pt/ALEQxtBOQ4ETCNS5sXpYE5m+/+P2Lor1d2BKSXxRtIBGDB1TVcfJAH0uuceGvV37+tw9/JiRvXpaAxMPc3a55e3s7n8/v7+9LraVFz3WDD3CdKugcaxAlOKkAEvxTm2JG01HPaCq0eA0kgETYN6jJmNEUSOCLU4iggnCCcIo1JTbqJcJiwqerZ7ciSnAWslG87lqwZitRvG4UOTzjNn+joNbvE41lCCcIJwinNiqABJAAEkAiVoEhZGeUJc6WFjrLD61rxr8s0ZBhiBKIEpMeJUQNasTOAyRCgkDfTYgS0xYlULzu6/ThOwAJINFnXEDUXqP2OgyS8S9LIEqEB4G+WxElwgBoLVizZSCBqrpzBA00+0Ozv54tyVF7jdrrPnig9pqzIxG6EMXrP4QuRJxt/tCF6BwyqfMQCKc+keFo6acdECUQJQIphWZ/DTCABJAAEj+FCCDBycN2YQtlCZQl2hr4df+BNk5o4zTpbZy6e/a51wIJIAEk2vABEkBiFpDIZbOpVCrSND9AAkjMAhKyLM/NzbVFg14/gASQmHokVFU1TVOW5V4UtK0HEkBiupGwbTuVSmmalkqlPNdt8/6uP4AEkJhuJJjbG4YRZUqexs5AAkhMNxKEEM91g86oXQND20ogASSmGwnLsjLLKyxbltXm/V1/AAkgMd1IdHX7sJVAAkgAiTZCgASQmGgk2rxZyA8gASQmF4nSkjp/7cYH8x+Jypeu3qTf9Bl0I1a/IozQ0dklKO4adCFqa/7d2mGoc7m0pF69/ptLV2+KyvPXbgCJvsNwhOyAETpGPEIHkODsMoH+EtPWXwJIAAn0qmuTVUACSAAJIIF5rzHJb8uQHGdK2IgSiBKIEogSiBKIEogSH/5/SEwMgBnEhM4FjOPUCBcQThBOARtAAkhscfKAcZxiV0qM/5iwiBKcVKCqLjYVS5vPOqeJOPca4fNLAAkgAeGEL0744oQvTvjihC9Oue4YBCHiYe4uitcoXqN43cYJkAASQAJIdCgoFK9RvA60E6IEogSiBKIEosRl6dsv8MWpjQRECXyEBRJAoiM4BE3EUZZAWQJRAlECUQJRAlECVXWoqgukUfgChBOEE4QThBOEE4QThBOEE4RTuF4KtkI4QThBOEE4QThBOEE4QThBOAXSKHwBwgnCCcIJwgnCCcIJwgnCCcIpXC8FWyGcIJwgnCCcIJwgnCCcIJwgnAJpFL4A4QThBOEE4QThBOEE4QThBOEUrpeCrRBOEE4QThBOEE4QThBOEE4QToE0Cl+AcIJwgnCCcIJwgnCCcIJwgnAK10vBVggnCKf+wimXjT3VUMghS5vPFlZ3zz3t0JkD2SxEnnG7tKSKyvPXbnww/5GofOnqTfqNRB8Ly65xYfOyJDALHwDzj3/41a0r0p3rYvKtK5L1vWPv+QLzg6cLn+c+6Zu7D5PsOE5meUVg3ljLiM1frn8lNou9vY21zF/WnojNYp/3y/WvBL7fzPLK+sqG2DsUe3vsDtdXNvrm7khQJFhgVi0AJGb1zeO5e1ggQOJ/OfL4qCiL+2IAAAAASUVORK5CYII=;" vertex="1" parent="1">
          <mxGeometry x="461.29999999999995" y="-552.5" width="74.12" height="43" as="geometry" />
        </mxCell>
        <mxCell id="1Zp0o188tNxIGdORWYWi-9" value="" style="shape=partialRectangle;whiteSpace=wrap;html=1;bottom=1;right=1;left=1;top=0;fillColor=none;routingCenterX=-0.5;" vertex="1" parent="1">
          <mxGeometry x="263.42" y="-493" width="272" height="60" as="geometry" />
        </mxCell>
        <mxCell id="1Zp0o188tNxIGdORWYWi-10" value="" style="endArrow=classic;html=1;rounded=0;" edge="1" parent="1">
          <mxGeometry width="50" height="50" relative="1" as="geometry">
            <mxPoint x="394.7099999999999" y="-897" as="sourcePoint" />
            <mxPoint x="394.7099999999999" y="-826" as="targetPoint" />
          </mxGeometry>
        </mxCell>
        <mxCell id="1Zp0o188tNxIGdORWYWi-11" value="SQL Jobs on each RDS and on each DB" style="text;html=1;align=center;verticalAlign=middle;whiteSpace=wrap;rounded=0;" vertex="1" parent="1">
          <mxGeometry x="270" y="-635" width="121" height="30" as="geometry" />
        </mxCell>
        <mxCell id="1Zp0o188tNxIGdORWYWi-12" value="&lt;b&gt;Master RDS&lt;/b&gt;" style="text;html=1;align=center;verticalAlign=middle;whiteSpace=wrap;rounded=0;" vertex="1" parent="1">
          <mxGeometry x="356.83000000000004" y="-824" width="77.18" height="30" as="geometry" />
        </mxCell>
        <mxCell id="1Zp0o188tNxIGdORWYWi-13" value="" style="shape=image;verticalLabelPosition=bottom;labelBackgroundColor=default;verticalAlign=top;aspect=fixed;imageAspect=0;image=data:image/png,iVBORw0KGgoAAAANSUhEUgAAAHcAAABzCAIAAAAtygrLAAAKF0lEQVR4Ae2dT2gbxx7Hh5580EUHEXIRJYcNNd1LDQt2CjqE9wKismEpJVAoDAKnRe768HiXTV0CC8GFsFD6KBbYhmC8x2BEbBBNrFue3CTswUTgm/dSWIR0Gpjje7Z/9s+T0XprydqVZWZY7JnZ+fuZ33xnpLVnyf9OHFcuSQJEUU4S72nZinIKkPkoKbc73YPDcChXGqiuUMdoKB8chr9u/PHl/H+mFzaufs0sbj5//aHd6V6BQ7JZ06aMfG89ePzZN79Mza9f/ZpZ3Jx9uj23vHNtWadHGfh+9s0vtx48vjv35O7ck+FSnn26jawPDsNkjbPP0tOgfHAY/vTblsh36JTnlneA8vVknSxl4Ht37gnaL/BNmjKydl+8vw52nRRl4HvrweNIvulQvj6sh0853n7TtGVRQ2afbo/QrodJ+TL2O0LKAH0krIdGeevV24v0VyQr+oe4x5BWP8mKe4PPX39gjPW5Uxg8+XAo7755d+d+WSR4Gf+oKM8t70yW137d+GNwbH3mHALl3Tfvvpj9frwozyxuTpbX3Bfv+8Q1YPKrUvZ9/4vZ72/fezh2lKfm1yfLa89ffxiQXD/ZrkQ5CAJA/Gnh23GknBrowSm3Wi1EPL6UAfTWq7f9mGbfaQekHATBP7779+17Dz8tfAvXmNoyfFc1WV5LFPQglHsRj7Ut45eCe/tB31Z6uQx9Uw6C4Osffhat+AbYMujG9MJGQqD7o9zudL/+4edPPp9FoUDPWCsG6sb0wsafB39dzkD7SNUHZcbYRYhvhmKARU/Nrw/9a7w+KLc7XWnFQ0O+MZQB9NB1Q1GWH4lNltcUZRnK1Pz6zOJmX98WzS3vzCxu4tZC8ijKEYgV5eNHqDHXCL+TU7YcbbDSvBaDSjGULR9vq9UeQ546avWTiYBuKMVQiqEUI+qv9JRiKMUYq2fYar8cbbDiBlnyq9VPrX5q9VOrnyQLMUGlGEoxlGIoxYiRCOmWUgylGEoxlGJIshATVIqhFEMphlKMGImQbinFUIqhFEMphiQLMUGlGEoxlGIoxYiRCOmWUgylGEoxlGJIshATVIqhFEMphlKMGImQbinFUIqhFEMphiQLMUGlGEoxlGIoxYiRCOmWUgylGEoxrqFiwMkNveeP3IxTSECFJstr0wsbozy5gXPe7nT/+d2/IkHfjFNIpubXh36gQH//VXksMJxHHlp0M87HSO6MqD7+dxUoc84PDkPxjLOboRiJnuA3COVI0GOtGIkiHkQx0KLheE/U6PGlnDTiK1HmnPu+f+d+GUCPKeUUEF+VMud898272/ceju9pqukcWzugLqNucM63d/87jpQny2tLqw2xI8n5h0AZQN+5X4550UDkuTqjOlFn9un21Pz60mojtePEh0MZpOOrH3+Pf6mDxHpUlJdWG2N5YjvMNcbY1qu3j569vCTr9CkvrTb29oPUTBglaGi2jCUyxvb2g69+/P1vX0aQJuVR8QUsw6eMuHffvIu363Qoj5Zv4pShgr394NGzl5F2nTRl4IujPkJPgraMvQIN6WWdHOWl1cafB3+lr7/YZcmTBmWscm8/+Om3LVwbh0gZ3/vivnifxAHK2IXBPKlShiYCa9CQyfLa1a/phY255Z2RvLroktBHQFlk/ejZy6tfoA+X7PBIko2M8kh6O6pKFeU0yEdQbrVaruvW6/U06k+lDsaY53nux65Wq4mvHW53ur1pPM9rtVq9bQyCoFqt2ifOdd1arRa/n4mgXKlUCCG5XC4Mr9c7Ynt7e8mYdqdbKBQIIcaZ03WdnDjf96GQMAwh8iyJgWkopSKKer1OCJmYmCieOMMwCCGapsU0RqYcBAEhxLbto5ye50k5xRET/ZCMnTgpCwZ703POIYv4E9OjJyYjpImvFx69F4tFwzCwxnan22w2NU3L5XJBcPwymDAMDcOglIqNCYLAdV1CSKlUAsMPw1DTtGKxCLmgAb7vNxpxX6LKlG3b1jQtCALLsnRdF+cUY6xUKtm2Xa/XwTQ0TXNdFx6aUErBOkzTRAPhnDebTSgT5odlWdg+z/Mgi/jTsixoervTdV0XDCqfz9u2jRmPHqVTSiuVSr1eN00TslNKI2e3RBkHj3Neq9UIIQAIKYsJwA/thJ62Wi1CCPh7U14U8xHlMAyz2azjOJzzRqMhmTNQnpiYyOVytm1Xq1UgSynN5XKlUqlarTqOk81mCSFIpFKpwGB4nuc4DiEEBy8IgqMBa5w54FWr1cCyIGhZFmTMZDK6riNHSmk2mz2yREopSCRMW6xX7HC700VbFuObzSYhBGsEWxYToN8wjGw2Cw3L5/OGYTSbzchJhllEz0eUq9WqCMgwjEKhgKkZY9BzcWFE0JgMhmdlZQViwjAUJ4RoPpiFcw5ihzYC8xT6D8nAiCilEIR6RU0DixNjsPyLKEMtzWYT8MVQBvuAIYQuEEJM03Qcp9H4+6cB55TbnW4mk7FtGxsnEQFbNk1THENII3IPwzCfz1cqFSwnCIIze21EsvB9/2h0kSDnXNf1YrGIJYAHugoLEaVU13XRcmFFwXES8wJlmAqtE+f7PiDG7sQoBudcpAxDUq1WTdPUNA30SjQIsWrwn1MGXrAvqZ04z/Oy2Sx2njF2pPqwPmBBQA3MASJhfUDKUEgmk8meOUmIID3KCCxQmqahQEt1gWhQSguFgrj0B0GQzWYvolwqlQghmUxGXAMqlQrOs3jKxWKRECKaF3a22WzCKiWuRthm8JxSZoxBUl3X82dOO3GEEMh/ecpHyIByGIaZTMayLGwfWBzOa8YYbBxRcKFZhULBMAzMBZGWZRFCgEu/lIvFoqZpOKXANsWNQQxl0EBxlksQQd+xU9Ld878UgIJgd93udPECKIBsAMogpqjRnHOQfmxQb2+hibisI2iYatjVASjDTg4RgHXjbIik3O50oV7Yd8GfCbquKyoV5xxaK44Z1gKeU1s2TVOcs2Ii2Du3Wq0YymIFki7Dguk4zsrKCqV0YmICFQNWPF3XXdd1zhxMecYY1FssFi3LgkJEiYikTAiBDZLYftjJFQoFXdfFeFxOYSCBMmxa6JmDTxyGYeBUgyUEkkGTcf1HgxBrAf8pZUop2peUqNVq4V3HcVzXFYtrNBqUUlGS2p2uZVlov2EYAl9KqeM4vu9XKhUYFc/zYNt71qnj36Ic12q1o/01pPE8T6wXBgYtEVYky7IiVyHGmOM4OA+wg7VazTRNWFTana7jOGJLKKW2bfd+eoaPKpRS+OwHcMS2YfnoOddljOr14Icr9IhpeivoTSbGiOkhXvopFg6LoRSDH+GkeLHk3luRd6WGxbdELJMxFp64yGLFlOe6LMWq4HAJnNrycAtVpUkEFGUJSCJBRTkRrFKhirIEJJGgopwIVqlQRVkCkkhQUU4Eq1SooiwBSSSoKCeCVSpUUZaAJBJUlBPBKhX6f7TC/2FQVOG8AAAAAElFTkSuQmCC;" vertex="1" parent="1">
          <mxGeometry x="369.0300000000001" y="-797" width="52.78" height="51" as="geometry" />
        </mxCell>
        <mxCell id="1Zp0o188tNxIGdORWYWi-15" value="" style="endArrow=classic;html=1;rounded=0;" edge="1" parent="1">
          <mxGeometry width="50" height="50" relative="1" as="geometry">
            <mxPoint x="398.79" y="-736" as="sourcePoint" />
            <mxPoint x="398.79" y="-624" as="targetPoint" />
          </mxGeometry>
        </mxCell>
        <mxCell id="1Zp0o188tNxIGdORWYWi-16" value="" style="shape=image;verticalLabelPosition=bottom;labelBackgroundColor=default;verticalAlign=top;aspect=fixed;imageAspect=0;image=data:image/png,iVBORw0KGgoAAAANSUhEUgAAAM4AAAC1CAIAAACYmFeRAAAgAElEQVR4Ae1deVgUR9rvwRlHkGMAkeEwEcGLDQFjTFwMGhMRTTgEUYyKkVwGgo+KiTGiEjCriHjguURFeFRUyHqAGBCVqASUwxBRQBiQ4R5gYM5uNBo/N73bX2313DDMAD1/zPN29VtV7/urX3dV14m8oH4UAv2CANIvuVCZUAi8oKhGkaCfEJBLtefPnz99+vTJkyc9PT0Y9aMQ+F8Eenp6njx58vTp0+fPn6tIVRlU++OPPyh6/S+w1JUiBHp6ev744w+lhPsfqj1//pwimSJQqXvyEejp6VH8hvt/qlEvM/kwUndUQqCnp+fZs2fyXm//odrz589VSoxSohBQhoA8tv2balS9qQw96r4aCMirSf9NtadPn6qREqVKIaAMgadPn5Kr0X9TjfoUUAYddV89BHp6emRQ7dmzZ+olQ2lTCKiAALnFhjx58kSFiENLRSqVCoVCPp/f3t7O4/Ha2toaGxu5XG5jY2NLSwvvr19HR0dXV5dQKBxa0Kjs7ZMnT6AXG0LVnhiGNTQ0lJeX5+bmHjt2LC4ubsuWLV988cXChQsXLFjg+9dv/vz5c+fOnT9/vre3Nx7i7++/ZMmSsLCwrVu3JiQkpKenFxUVVVdXd3V1qVwcg1mRXIcOUaqJxeI7d+4cP348JCTEycnJ1tbW2trawsLCxMTE0NCQyWQaGBggyn40Gm3YsGFMJtPIyIjFYllZWbHZbAcHB39//8TExNu3b4tEosHMJoW+yaCaQv3BcBNFUZFIxOPxampqrl+/vn37dk9PTwaDoYxIfXDfzMwsICDg0KFDLS0tgwFKNX2AK1A1ow8k9e7u7srKyp9++mnbtm1BQUFOTk59QB+NkvDz8xMIBAMJu76wdUhQrba2NjExcdmyZR4eHqNGjdKIHn0Zyc7Obgi+2AYz1QQCQV5e3sqVK21sbIyNjWk0Wl/xhcViTZgwwd3d3cvLy8/Pb4mcn5+fn5eXl7u7++TJky0tLYncv/32W4lEovhNwePxMjIykv/6nQV+6f/9ZWRk5ObmFhQUlJeX19TUPH78uL6+vqGhobm5mcfj6WG7cLBRDUXR7u7u2traH3/8cdq0aUTpqi4wGAxzc/PRo0fb2dm98sor8+bN27Rp08GDB69cuVJVVVVfX9/U1MTj8bq7u5XSBSeTRCLp7u5ub29vaWmpr6/ncrmKSYZhWFVV1auvvqq6zZDmqFGjXFxc5syZ4+fnFxISEhMTk5KSkpGRcfv27aqqKi6Xy+Pxurq6xGKxUkv6UGFQUa21tTUzM/Prr7+2t7eH0FdwSafTraysXF1d586du3jx4o0bN16+fLmkpKS5uVlX74bg4GAFBmt8i0ajmZmZvf7660uWLFm3bl1cXNypU6du3br16NEjPp8vlUr7kFjkpAYJ1Xg83tmzZ729ve3s7FQvCXd396+++mrv3r3nz5+/e/cul8vVk9a6p6en6l70RtPQ0HDSpEkzZ84MCAiIioqqq6sjU6SvQgY81UQiUXp6+vTp083MzFQE3dHR8R//+Ed+fn5TUxOfzxeLxSiK9hWgfZLOmTNnVPSlD9WYTKajo6P2atWBSjUURTs6On799de5c+cqhZvBYFhaWrq6uu7atausrKxP2KDtRJYvXz5s2DDINTabPWnSpFeA35gxY+zt7e3s7GxtbW1sbNhstrW1tZWVlYWFhZmZmbGxsaGh4fDhw1X/JMrOztaSawOSaiKRKCcn59NPPzU0NIQKA7ocPXr0e++998033+Tl5Q2sMSIul/v+++9D7ri6ulZUVOBUkEgkYrFYJBJ1dHS0trbW19fX1tZWV1c/fPiwuLg4JyfnzJkzR44ciYuLi4yMXL58uZ+f3+zZs93c3CZOnEin06GUicusrCyKav9BgMPhrF69ety4cQQ6MgUjI6PPP/88PT2dw+Go+KmoJYg1S1Yqlebm5jo7O0PeeXt7t7a2qpWmVCrt6urCB0iKi4vT09MtLCygZPHLWbNmqZu46pYMpLeaUChMTk52cnJS8FAiCGJsbLxly5aKioqOjg5tf1WpDrQGmmKx+NSpU1AblMlkRkZGavzw8Hi84OBgctVMp9NXrVpVW1urgZ0qRhkYVJNKpdXV1cuXL5f5LBKBtra2oaGhVVVV+tbMV7EwZKqtXbuWcBAXHB0ds7OzNXiKBAJBTEwM+UG1t7dPSkrSds/OAKBaW1vb0aNHFffHjh07dtGiRcXFxRoUgMwC1p9AHo83Y8YMiG2enp719fXqGpmSkgIOWuBpTp069erVq+ompYG+vlOtqqrqyy+/HDFiBIQ1cTlixIiVK1f+/PPPetIlpkEZKI1SXFzs4uJCuIwLW7duVRoRVLhw4QKbzYYS8fDwKCwsBNW0J+s11UpLS2fMmKFghs/EiRMzMzPb29sHU41JLmyJRHLs2DGo0WZkZHTr1i2yssyQgoICBwcHiGdubm75+fn9Vg/oKdW6urrOnj0LQUNc4gMsYWFhbW1tMpEdfIGtra2LFi2CZmiOHz9e6QcjiqIPHz708PAg0MOFMWPGaK8LTSb+ekc1FEUbGhq+//77kSNHQugQlx4eHmfPnu3u7pbp0mANLCgoeOWVVwgQEAQZMWLE5s2bFePQ2NgYEBAAxkIQxMrK6syZM/0MlN5Rrb6+/vPPP4cqCwKpESNGrF69+v79+/0Mkz5kJ5VKExISCChwwcnJ6fr16/LaDyKRaPXq1VAUIyOjH3/8sf890i+qdXZ2Ojs7Dx8+HEIHv7S3t09OTu7s7Ox/mPQkR4FA4OPjA4JDo9FCQkLa29vJFvL5/FWrVjGZTFAfQZBNmzYpfhGSk+qTEH2hmkQiuX//vrW1NYQLcTlp0qSbN2/2ic8DOpGKigryh2RGRgbkVGtrK0RKBEEMDAyWLl2qtHkHJdVXl3pBNalUeuvWLVdXV4JYoMBkMj/44ANi7K+vPB+g6QiFwvj4eFNTUxCiKVOmNDc3Ex5JJJKkpCQWiwXqIAhiaWl57do1ebUtEV1Lgl5Qrby8fMqUKRAu+KWZmdn69esbGxu15P9ATPbx48dz5syB4FqzZg3hC5/PJzfREARhMBheXl45OTkaj2sRWWgg6J5qDQ0N8upNIyOj7du38/l8XT2IGgDaD1FQFM3MzDQ3NwfZZm1tTTQwWltbvb29wbuETKPRLCwskpOT+8FOKAtdUg1F0erqanI/OI6LsbHxnj17IHOpSwKBZcuWEQTCBX9//46ODgzDGhsb3377begudLl69eqWlpb+fIZ1SbXa2tqAgADyLAMEQWxsbPbv30/ASglkBB49egR1s40ZM+bixYtSqbSqqgqc+E4eX8crU39//3v37g3+0YLOzs6XKymMjIygpw3n2cGDBwfxmCaZN5qFHDx4EEIvMDCQx+MVFBQQD7CpqWlYWJjM6X00Gm3atGnFxcWa5a5uLJ291Y4cOSJzDq2RkdHOnTspnqlSkA0NDdD3wfDhw3NycrKysggKWllZFRYW3rx5U95a69GjRxcVFamSXS91dEA1FEWvXbtGYAEKBgYGoaGhOvk+6iWOOomOouiJEyegTtrp06dv3bqVQNXa2rq8vBzDMB6P5+PjI7MaGTVqVH5+vrZh1wHVysrKRo8eTWABCv7+/tp2WCec0F6mjY2NgYGB0DA82Otma2tLLHLm8/lRUVEyX2+vv/76L7/8otV2W39TrbGxccWKFTIbqp6enhwOR3ulMlhTvnTpErm3lniAx4wZAw5D8Xi8ffv2mZiYEAqEMGXKlIcPH2oPpX6lmlgs3r9/P/TCx111cXG5deuWVp8q7YGo25RFItHKlSsJxkDCK6+8AvVoCAQCeRO02Gy29oaY+5VqlZWVkydPhrBAEGTkyJEHDhzQbYEN6NwrKytlNsIQBHFwcJDp2qVLl2ROn1mwYIGW2NZ/VBOJRPLWoQQGBg6sRZoyC0+3gd999x35GUYQZPr06TINE4lEx44dI4/cGxoaRkVF4V3BMiNqHNh/VEtNTZWJxVtvvaXVNWEaQzOwIlZUVPztb38jI+zn5yfPET6fn5CQYGxsDMWytrY+depUn3+f9RPV6uvrJ0yYALmEX/bztGN5uA/0cKFQGB0dTUb4o48+UuCaQCDYuXMnOZadnR3eRaIgrrq3+oNqEolk586d5A5bAwOD8PBwLbUM1AViEOiXlpZOnToV4k1gYKBS10JDQ6HuEgRBfHx8wE9XpYkoVegPqpWUlMicIzR58uTbt28rNZFSUBEBkUi0YcMGaA7zvHnzlEZvbm5+9913IY4iCBIVFdWHGxNpnWoikWjXrl2Q/wiCMJnMLVu2UANQSnmglkJVVRXU0l+xYoXSFKRS6Y0bN8j7g5ibm//8889Ko6uooHWqNTQ0kN/qCIKw2ezq6moVraTUVEQARdHDhw+D76dr166pElcsFiclJYHDDAiC0Gg0Hx8fDZbRy8xR61RLSUkBPSfkw4cPyzSICuw9AomJic7OzrNnz75+/bpaqQUFBREFhAt0On337t19Uo1ql2rd3d0yW2mOjo48Hk8tFCjlfkCgsbGRPFPVzc3t0aNHvc9du1TLycmBnhL88ujRo703nUpBGwhcvnyZPKK6adOm3uelXaotWLCATLUpU6Y8fvy496ZTKWgDgZebzK9fvx4qNSMjo95v7KpFqslc12lgYBAdHU0dZqgNlvRVmkVFReSFkrNmzeplqWmRart37yaPAY8bN07Fb6K+Ao5KR10ExGLxpk2boP4pFot18eJFdZMC9bVFtc7OTvKuJAiCeHt7D8HjlUDEB4TM4XDGjx8PVqPDhg0LDg7uzcectqhWVlb21ltvgbbik4USEhKg6VMDAvqhZiSKoidPnoSKz8HBITc3V2MotEI1FEXPnTtH/pCxtrYempsIaVw8uo3o7u4OsW3dunUaT/fSCtVEItG2bdsgKxEEef/996l5trplj1q5X758GZokYWtr++DBA7USIZS1QrWOjo6QkBAy1dLS0oiMKUH/EWhtbZ03bx5UjvHx8ZpZrhWqNTU1/f3vf4dMRBCEGlzXrJB0FUsqlR44cAAqR2tra83KUW2qSaXS2traoqKiyspKeVkWFRVB9iEIEhQUpCvIqHw1RqCqqmrmzJlQaZ47d06DBNWm2s2bN93c3PCpGT/88AO4rReR/c8//wwZ93I9RUpKCqEACSiK8ni8x48f9+1cPCgX6lIDBF4eYxUREQFtsj537lwNPg7Uptp7771H0AjfmZY8yWTPnj2EDi6wWKx79+7Jc/Xs2bO+vr6enp6LFi0qKSmRp0aF6wSBgoICaJWypaWl6vvYEzarTTVotSqTyfz444+hnr01a9ZAVJs+fXpDQwORKyFwOJyFCxeCq8RcXFyojfsIfPRBEIvFvr6+YIEyGIyNGzeqa5vaVCOfHIggyKJFi8AdVsm75IeEhIDrvVAUbWxsTExMJJ/bYGVldefOHXXdoPS1ikBmZiZINc1GfdSmWkxMDJQrfunj40OssbGysgJ1aDTajh078NOyUBTlcrnHjx+HttAh9NlsNrXtrVZ5o0Hi3d3d9vb2RBkhCDJ27Fh1T6ZSm2rp6elgloRMp9MXLlxYWVmJYRgRiAssFis1NRVFUaFQmJ6e7ufnJ3MvBVzZ1ta2qalJAzioKFpFYMuWLVCxxsXFqTU7V22qlZWVQVkSlwwGIygoiMfjESG4gK+MamhoWLx4MYvFUny4s4eHBzWioFXSaJZ4SUkJVKzLly+XeV6CvPTVphqXy33ttdegXMFL8mHqM2bMiI+PJw+JgrEIeenSpfJspcJ1iEBLS4unpydRTAiCjB8/Xq1tCdSmWnt7+8cffwxmaWlpCVXk4F0FMo1Gs7GxgTbA2r59uw4BpbKWh4BQKCTXoWot3VObauSNqyZNmpScnEyet6mAZPhRXCEhIXv27IHedr2cfycPKSq8lwigKJqeng6dXBsTE6N6smpTDd9eFNzGl06nX7p0qby8fNasWYrpRdx99dVX8XM8T548Ca097J99WVUHiNIkEPj999+hPeo9PDxU/zJQm2oYhnG5XKhBtmjRIqlU+ujRI19fX2JvaYJYhECj0czNzcPCwvDmJIqiq1atgnaLoLbwIIpW34T29vaFCxcSpYkL5LEieWZrQjWxWLx27VqojYXPeayvrw8JCZF3lKevr29mZiYxSN/V1RUYGAiazmKx5BlKhesDArGxsdDh5hcuXFDRME2ohmFYfn4+NC4WEBCAZ9nZ2Xn8+HFoEpGbm9u+ffuI/X9xzbq6OmjsYdmyZSraTanpBIEbN25AzbVvvvlGRUs0pJpYLIY+fcHJ3FKptLy8HN/chslkhoWFVVRUkHvLCgsLoX6Tffv2qWg3paYTBFpbW8FzXhAEmThxooqWaEg1DMOuXr0K1n0MBuPrr78GG4n19fVJSUn5+fkyTUFRNCUlBZpPTO2BJRMrvQqE3g62trYqNtc0p5pIJIJ2xHRxcSksLFRxQZRQKARPcsBPq+yTvSH0qmAGnzGHDh0CXzGWlpZ5eXmquKk51TAMS0tLA3NlMBhbtmxRcXpjW1sbtM3Chx9+CE4PUcV6Sqf/EYBGJo2NjRMTE1Uxo1dUa25uhpY5GBsbqzgvo6amxsnJCWRqZGQk8XGqiumUjk4QEAgEYKnR6fSIiAhVLOkV1VAUPXbsGLTiPjw8nPwFQDblypUroMUmJiYnTpxQJSI5KSqknxGAqqOgoCB8hphiM3pFNQzDOBwOOAUcZ48qs4Gh7W6cnZ1//fVXxbZSd/UEAWiRr4+Pjyotn95STSqV/vjjj9De9x4eHoq/SshT7by8vGTOCNcTcCkzQAQyMjLAGmnWrFmq7DXbW6phGCYQCPz9/cG8GQzG+vXrFZyxAE0gZjAYGzZsoGpPsDj1WS4tLQUnSbi6uqoyct0HVMMwrLKyElre4uTklJubK7PjQyKRQN2/+HmU+gwuZRuIADRn0cnJ6caNG6CCTLlvqIZhGHlB3sKFC2VW4Xfv3oUWH0yZMkWDdYUy/aEC+wGB5ubm2bNnE/XYmDFjVJm41mdUa25u9vLyIrJHEGT48OF79+6FPJe5hJWsBsWiLvUKAWh6rIWFxblz52TWYKDZfUY1qVSanZ3t6OgIss3ExAT6Gi0vL58+fTqow2Kx2traQJsoWc8REAgE4EF9NBpt3759CprmuDt9RjUMw0QiEXnRPZvNJoabxGLxrl27QJ4hCLJ161Y9R5YyD0JAJBLt2LEDLMedO3eCw9+QPn7Zl1TDMKyhoQE6rWjYsGEfffQRvt6upqYG2krS2tr6t99+k2kZFai3CKAompSUBK6wjI2N7W+qYRhGbvWzWKz4+HiBQLBx40bwUUAQJCwsjM/n6y2mlGHyELh48SL4bbdjxw4dUA1FUWgYHkEQExMT8jmNDg4O2dnZSpuT8rylwnWIADTXUJUDAvq4AsWd7+7u3rRpE7RTEvQ+MzAwWLlyJTW+rkO69Cbr6upqsKX07bffKp3RoxWqYRhWVVU1b948aIkKyDZ7e/u7d+/2xlsqrg4RaGxsnD9/PlGgERERSntGtUU1DMPy8vKgeeiEZS8PAIyOjlZau+sQSiprxQh0dnaCo5HffPONzt5qGIZJpdKsrCyQXoT84YcfKn0IFLtK3dUtAiiKLlu2jChQXVagBBBHjhyBlnOZmZnhGxYROpQwEBFYvnw5QbWNGzcqbXZrsQLF4evs7FyzZg1x2JSFhcWRI0dUmUk3ENEfUjaHhoYSbfEtW7YoPexM61TDMKyuri4yMtLd3X3GjBm7du2SOQY/pAppcDgbFxdHLHj74YcflL4++oNqGIZ1dXU1/fVT+podHMUwFLxITk4mZo7ppgt3KKBM+YhhWEZGBjFBMj4+vl+H26kCGFIIXLt2zcLCAkEQIyOjY8eOKZ1E3U8V6JAqgyHi7J07d/BhUHNz87S0NKUDjBTVhggx+t7Nuro6GxsbBEHGjRt3/fp1pRlQVFMKEaUgF4H9+/e7u7snJiYq7enAMIyimlwcqRuqIKB0PIpIhKIaAQUlaBcBimraxZdKnUCAohoBBSVoFwGKatrFl0qdQICiGgEFJWgXAYpq2sWXSp1AgKIaAQUlaBcBimraxZdKnUCAohoBBSVoFwEdU00kEnG5XGoSm3YLWT9S1yXV2tra8PPn2Wy2KtsO6gdilBX/RkAikfB4vOrq6vPnz+/evTs7O1vpuiRdUq28vBw/H4jJZEZFRSmd8EQVss4RkEqlXC43Nzd39+7dS5cuffXVV/GVLAwGIyEhQbF5uqRabW0tsWWzr68vtfWV4qLS7d22trasrKyIiAgvLy8HBwdirRQhsNlsxRbqkmp8Pj8gIAC39bXXXisoKFBsK3W3/xHg8/l5eXkRERF2dnbm5ubQcYkEzxAEcXV1VWyeLqmGYdjKlStxc0eOHKnKpGHFzlB3e48AiqICgeDlka8FBQVRUVHgGcMgscjy999/rzh3HVMtPj6eWOD15ZdfUufOKi4trd7t6uq6f//+Tz/9tHHjRldXV2KNJ5lVMkMyMzMVm6djql26dIlYdWNnZ1dVVaXYXOquNhCorKw8duzYypUr3377beiYV5msYjAYdnZ24HHWbDZbadnpmGo1NTX4/HTcpUOHDmkDSipNMgIoitbV1R05csTd3Z3NZpuYmKjyGnt5GOj3339fWFi4ZcsWkIXz589XupJcx1QTiUTgQceWlpaqzFInA0eFKEUARdHu7u7m5uZ79+7t27eP+PYHGUOW6XS6hYWFnZ1dWFhYQUEB3tnO5/PDw8NB5a+//lrpzG8dUw3DsISEBNDoc+fOKUWNUlAdAalU2tbWVlRUdPr06Q0bNrz33ntmZmYg4PJkJyenuXPnrl27Nicnp6WlBcyxqanJ3d2diGhoaJiYmKi0W1T3VCspKSGMRhDE3d2d+jgAy1UzWSKR4F35X3zxhY+Pj5ubG9EmBtEmy5aWlkuXLt29e3deXh6Xy5W5B15paSnIV0dHx4GxOE8sFk+cOJHw2czMjHqxaUyv1tbWnJyc7du3z549m81ms1gsVVpgCIKMGjUqODg4NTWVw+HweDzFuyKcPHmSKC8EQd59992amhqlNuv+rYZhWFxcHGj6/Pnz8c3nlVpPKWAY1tnZefXq1cjIyFmzZhH7tYB4ypRpNJqZmZmNjU1QUNDZs2ehKlIxsKtWrQLTXLRokSrbtOsF1crKysCtTK2srFJTUxU/WIqxGDp3u7u7o6Ojoc0SQR5AMpPJnDBhgqen56effpqamlpXV6e0jQWBKRKJwH5dJpMZExMD6ci81Auqtbe3BwcHg6BQ57jLLC1yYFVV1cyZM0HoZMqWlpYzZ86MiIg4fPjwL7/8ovi0VnIuYMi9e/fALCwtLVVpqOnL6nYURQ8dOgQ6wGAwTp06BXpIyTIRqKiomDFjBggdWR4+fPiyZcsKCwu7urp6X1fs378fzMLOzo7H48m0DQrUi7cahmHEhCLCDUNDQ2oSG1Ra5EuRSBQaGmpiYgL23RMYQoKrq+vevXuLiopaWloEAoG6VSe+lfakSZPAZOfOnUu2SmaIvlBNLBZHRUWBxxYhCBIQEEDNLJJZbGBge3t7cnJyWFiYj4+Pu7v7hAkTRo4cCbKBLM+ZM2fz5s2pqan379/v7OxEUbS9vb24uLikpETxjOjHjx+DozsIgiQlJYHGKJD1hWoYhj169IjNZoO4jBgxYvv27Ro8fAocHqy3RCJRa2vrgwcPbt68mZycHBUVtWTJkpfjSCCekMxisd5+++2AgIC4uLjQ0NApf/1WrVrV3t4uD6WLFy9C/XOqb9auR1STSqV79+6F4Jg8eXJ+fr48z6lwmQigKCoUCnk8Xm1tbVFR0cGDBxcsWABRBMTZ0NCQOKWJxWKlpaXJTBbDsMjIyOHDhxNxp06dqvqLQI+ohmGYWCzG97wknEEQxMfHh8vlynOeClcRAYFAUFJScujQoU8++cTR0ZHNZhM7/INom5qanjx5UmaaPB4PXwtC6K9fv16mpsxA/aIahmGXLl0C+9hwr0JDQxW3IWT6RgXKQ6CjoyM/P3/WrFkEaQiBxWKlp6fLjFhWVjZt2jRC8+XM2wsXLsjUlBmod1Tj8/mrV68G/cHl6OhomQ5QgRogUFJSMn/+fGNjYzLOdDp99erV5KFPqVSampoK1sJsNvvhw4eq5653VENRtLS09M0334RQMDc3P3HihOqOUZryELhw4YKjoyMEL3gZFBREnsolEAg2b94Mqn3wwQdK56iBNugd1XDjDhw4QP5iHzt27Pnz53vfCQn6P6Tk9vb2hIQE8HRikDqEHBAQQJ5c09LSMnfuXEIHQZDNmzer1arRU6oJhcIVK1aAjuHyxIkTL1++PKT40VfOVlRUhIaGkiElh3h5eTU0NED5FhcXgyOtpqam6k7A0VOqYRjW2tq6aNEiMhATJkxQqzUKQTYEL0UiUWZmJjjbmYwqGOLh4UFeKBAbGwvqvOyQu3//vlpg6i/V8E7dt956C/QQl21sbKh2m4rFjE/9YLFYNBqNjCQeQixawy/feOONkpISKH1TU1Mw+uLFi9WqPfVluB3yCry8evWqk5MTGSYWi3X48GGl89nBpIaaLBaLORyOzJqBIA2TyQwLC7t48SIRgiAIm83OyMgA4crJyQEVTExMjh07BiqoIuv1Ww3fhiQtLW3s2LGgq7jMYrGioqIaGxtV8XOo6fB4vBMnTkBD4xCGRkZGX375ZXt7+++//w7d+uc//0kc5CMUColNCHA1e3v7Bw8eqAupvlMNH0I4f/482KND4EKn0wMCAu7cuaOu24Nbn8PhhIeHK17RyWAwVqxYUVdXh2EYh8OBus2jo6OJ/g7iLCkC9uDgYHLHm1JIBwDV8Lkr2dnZUHMB99zAwMDZ2flf//oX1QmCF3Z6erqNjQ04UklQBBRCQ0OJeWatra3z5hqbZRIAAAcGSURBVM0D7y5btgwfdJdIJGvWrIG26rh165ZSYpEVBgbVcLZlZGRMnjyZ3G7DMYqNjW1paVF99JeMxYAOEYlE9+/f/+KLL6CJWCCBcNnU1HTPnj2gs93d3evXrwc1x40bV1tbK3MeodJtYMCUQXnAUA1nW25u7jvvvAOCAspz5sxJS0sjHlbQz0EsS6XS8vLy7du3Ozs7g2iQZRqN5ujoePz4caJyxGGRSqUpKSnQOFVubq5YLN67dy/E3cTERM3AHEhUwz28d++egq8qKyurzz77rKysTDM4BlYsFEW5XG5cXJzSOd847Xx9fa9evQrxDHf57t27rq6uIDsjIiIaGhqgEUIXFxcOh6MZSgOPahiGNTc3R0ZGkkeucKTodLq1tXV0dPTg/jgVi8VJSUlubm5QrxhIF1COjY1ta2sjvishurS2tnp7e4P6zs7OO3bsgJaRgp8LUApKLwck1fDKNDk5WWYnCIGXg4PD0aNHGxoaNPhcUgqcrhSEQuHjx49Pnz4NrtMmXCYLDAZj2rRpOTk5SluxMsedwQRdXFx687E/UKmGl3RJSYm3tzf0oQ6igyDIO++8s3v37rt37/L5fHnPtK54o3q+EomkqakpLy8vKirKxcUF8lHe5euvv75+/XoVq7za2loFjy6dTg8PD+9Nn/nApho+VJqUlKS4RUyn011dXT/77LOsrKzegKU6M/pQUyKRFBUVRUdH+/j4ODk5yWMVFG5jY7Nu3brCwkKlLzPQ1A0bNkDpEJdWVla9eaUNgIEpEAh5slgsrqmpiYiIIHCRKQwbNszc3HzixImxsbG1tbV6/oZDUbSmpmbfvn2TJ0+2srICZ1XI9A4M9PPzKyoq6urqUtfH5uZmMB1Q/uGHH3rZczng32og//Lz8z09Pc3MzOT1vYHY+fv7nzt37sGDB21tbQKBQN1SAfPtvSyVSl+u6OTxeHV1dbdv346NjZ06dSporVLZwMDA0tIyICCgqKioN/YcP36cWNJCZDp+/PjepInHHVRUwzCMx+OdOXPG19dX5kAWgR0hWFpa+vr6RkZGnjx58tdff62trVV61EPvQSdS4PF4HA7n1q1bKSkp27ZtW7JkiaurK9SPRZgqT6DT6VOmTAkJCbl586a6sy0ISwihpaXFy8sLzMvS0jI7O5tQ0FgYbFTDgWhsbDxz5szy5cvNzc1B1BTIpqamzs7O77//fmBg4KeffpqSklJQUFBXVycUCtVq7sgrCXzBXH19/d27d7Oysnbu3PnJJ5/4+vrOnj170qRJMsfcFFiL32IymYGBgQcOHCguLpbZWybPGAXhEokkLS0NXEAaHh6uykZDCtLEbw1OqmEYhq/YvnPnjoKmrryypNFopqamo0aNsrGxGTNmzBtvvPHVV1/FxcUdOXLk9OnTV65cKSoq4nA4j//6cbnchv/+8JDq6urffvvt+vXrqampBw8ejI2NXb16tYeHx5gxY2xtba2srMzNzQ0NDVWp5eVZOH78+JiYmJKSEqV7oSllAFlBIBAcPXrU2tqayWSGh4dzudw+aV0MWqqBCDY2Nu7cudPNzY28yFReWepbOJ1OZ7FY9vb269atu3btWp+8ZkCIyDKPx+vbXe6GBNVwHNvb269evbp06dLZs2fb29tD/eD6xi0EQWg0mrm5+dSpU729vdeuXZuRkTGgh3eHENVwwkkkEg6Hc+XKlfj4+I8//njy5Mmq7OHTn0QcOXLkm2++GRQUtG3btrNnz5aWlqq1Bo78ftKTkCFHNQJ3sVjc3t7O4XCuX78eGxvr4+PTn3wi5zV16tTvvvsuPT29tLS0oaGBx+MJhcI+aSQRLutWgKnW09OjW4N0mLtQKCwtLU1KSlq6dKmLi4udnR2bzba0tDQ1NTUyMhoxYgSDwVC3LU+n05lMpqGhobGxMYvFsrKyYrPZdnZ248aNmzdv3o4dO7Kysh4+fCgSiXToeD9k3dPTQ1FNNs74dv8VFRU3btw4ffp0QkLCjh071q9fHxwcHBAQsGDBAl9fXx8fnw/++s377++DDz7w9fX18/NbsGCBv7//4sWL16xZExMTs2vXrqNHj54/f76oqKiysrKtra1POlBkm66XoU+ePIGp9vTpU700VS+Mejn7ubu7m8/nd3R08Hi8tra2pr9+jf/9NTU18f76dXR0dHZ2dnV1icXiwVQJalwMT58+han27NkzjZOjIlIIyEPg2bNnMNX+/PNPedpUOIWAxgj8+eefMNVevHhB1aEaA0pFlIkAufZ88eIF8uLFiz///HMof4fKBIsK1BgB8rcn/nr7N9VevHhBtdg0RpaKCCHw/PlznFTQ/3+o9uLFiz/++AOKQ11SCKiLAPlrgCDc/1PtxYsXz58/p2pSdcGl9HEEenp65L3PcLb9H4vz9ovS3RS6AAAAAElFTkSuQmCC;" vertex="1" parent="1">
          <mxGeometry x="477" y="-709" width="47.9" height="42.08" as="geometry" />
        </mxCell>
        <mxCell id="1Zp0o188tNxIGdORWYWi-17" value="Loop each RDS instance and each Database" style="text;html=1;align=center;verticalAlign=middle;whiteSpace=wrap;rounded=0;" vertex="1" parent="1">
          <mxGeometry x="438.92" y="-739" width="142" height="30" as="geometry" />
        </mxCell>
      </root>
    </mxGraphModel>
  </diagram>
</mxfile>
